<svg width="129" height="129" viewBox="0 0 129 129" fill="none" xmlns="http://www.w3.org/2000/svg">
<circle cx="64.5" cy="64.5" r="64.5" fill="#AFF3C2"/>
<path d="M55.0584 58.2199C56.6424 57.2536 58.7033 57.7677 59.6573 59.3783C60.6114 60.9826 60.1038 63.0701 58.5137 64.0364C56.9298 65.0027 54.8689 64.4886 53.9148 62.878C52.9608 61.2799 53.4745 59.1924 55.0584 58.2199Z" fill="#C6987E"/>
<path d="M58.8562 58.4615C58.7461 58.3748 52.863 51.3752 52.863 51.3752L50.4596 54.3237L55.7679 61.1313L58.8562 58.4615Z" fill="#C6987E"/>
<path d="M53.8965 113.033L52.3982 119.965L47.6647 119.246L49.1936 112.408L53.8965 113.033Z" fill="#C6987E"/>
<path d="M75.1174 112.414L75.1725 119.513L70.4085 119.872L70.3963 112.86L75.1174 112.414Z" fill="#C6987E"/>
<path d="M52.9975 118.837C52.8996 118.546 52.5511 118.422 52.3003 118.608C51.8111 118.967 50.9488 119.389 49.7012 119.24C48.4047 119.085 47.9399 118.391 47.7809 117.896C47.6953 117.636 47.4201 117.499 47.1694 117.599L39.1397 120.857C38.6504 121.055 38.259 121.439 38.0572 121.928C37.8615 122.387 38.1918 122.901 38.6871 122.901L52.3309 123C52.8691 123.006 53.2972 122.554 53.2727 122.009L53.1565 119.339C53.1565 119.296 53.1443 119.252 53.1321 119.209L52.9975 118.837Z" fill="#0C0C0C"/>
<path d="M69.9253 118.837C70.0232 118.546 70.3779 118.422 70.6225 118.608C71.1118 118.967 71.9741 119.389 73.2216 119.24C74.5181 119.085 74.9768 118.391 75.1419 117.896C75.2275 117.636 75.5027 117.499 75.7535 117.599L83.7832 120.857C84.2725 121.055 84.6638 121.439 84.8656 121.928C85.0613 122.387 84.7311 122.901 84.2358 122.901L70.5919 123C70.0538 123.006 69.6257 122.554 69.6502 122.009L69.7663 119.339C69.7663 119.296 69.7786 119.252 69.7908 119.209L69.9253 118.837Z" fill="#0C0C0C"/>
<path d="M69.8642 23.4203L65.6261 23.792L58.8868 27.6387V54.9927H76.8726V27.6387L69.8642 23.4203Z" fill="#54585A"/>
<path d="M68.7022 26.1768H67.4852C66.2254 26.1768 65.2042 25.1424 65.2042 23.8664V19.233H70.9772V23.8664C70.9834 25.1424 69.962 26.1768 68.7022 26.1768Z" fill="#C6987E"/>
<path d="M65.2042 21.593C65.2042 21.593 66.1031 23.4204 68.1457 23.4204C70.1883 23.4204 70.9772 21.5559 70.9772 21.5559L65.2042 21.593Z" fill="#AC856E"/>
<path d="M68.158 22.3488H67.9684C65.0268 22.3488 62.605 19.9949 62.4888 17.0155L62.3849 14.0484C62.2626 10.8955 64.7516 8.2753 67.8644 8.2753H68.2619C70.6164 8.2753 73.8638 10.8955 73.7414 14.0484L73.6375 17.0155C73.5213 19.9949 71.0996 22.3488 68.158 22.3488Z" fill="#C6987E"/>
<path d="M64.1706 16.2969C64.2379 17.3004 63.4918 18.1676 62.5011 18.2357C61.5104 18.3039 60.6542 17.5482 60.5869 16.5447C60.5196 15.5412 61.2657 14.674 62.2564 14.6059C63.2472 14.5439 64.1033 15.2996 64.1706 16.2969Z" fill="#C6987E"/>
<path d="M75.5333 16.2969C75.6006 17.3004 74.8545 18.1676 73.8638 18.2357C72.873 18.3039 72.0169 17.5482 71.9496 16.5447C71.8823 15.5412 72.6284 14.674 73.6192 14.6059C74.6099 14.5439 75.4661 15.2996 75.5333 16.2969Z" fill="#C6987E"/>
<path d="M58.8868 54.8626L47.7014 115.09L54.1289 115.028L70.4819 54.9803L58.8868 54.8626Z" fill="#0C0C0C"/>
<path d="M76.8726 54.9927L76.1693 115.152H69.375L66.6658 55.3706L76.8726 54.9927Z" fill="#0C0C0C"/>
<path d="M58.8868 27.6387C58.8868 27.6387 43.867 36.8186 40.216 43.1864C39.5005 44.4314 40.43 46.0419 41.6898 46.7047C43.0842 47.4419 44.8027 46.9401 45.6038 45.5712L59.4983 37.4071C59.5044 37.4071 58.8868 30.3951 58.8868 27.6387Z" fill="#54585A"/>
<path d="M62.073 10.6787L62.495 15.2377H63.1738L63.2594 12.8467C63.2594 12.8467 63.6141 11.9299 65.198 9.96015C65.198 9.96015 66.2315 12.6361 72.6345 12.1158L73.0076 15.1386L73.6681 15.0643L74.0166 11.8184C74.249 10.7221 74.3285 9.69999 74.1328 8.59741C73.7353 6.36746 71.9435 5.13479 66.7697 6.70815C66.3416 6.83823 67.2162 6.75151 66.7697 6.70815C65.2898 6.5409 61.388 6.52232 62.073 10.6787Z" fill="#2E2A33"/>
<path d="M69.693 54.5591L68.2375 70.3298C68.1824 70.9245 68.5799 71.4634 69.1609 71.5749L87.0183 75.0313C87.6727 75.1614 88.2965 74.6906 88.3699 74.0216L90.0027 59.0314C90.0639 58.4491 89.6908 57.9102 89.1221 57.774L71.0873 53.5371C70.4146 53.376 69.7602 53.8592 69.693 54.5591Z" fill="#AFAFAF"/>
<path d="M70.6837 54.8379L69.2282 70.6086C69.1732 71.2032 69.5706 71.7421 70.1516 71.8536L88.0091 75.31C88.6634 75.4339 89.2872 74.9694 89.3606 74.3004L90.9935 59.3102C91.0546 58.7279 90.6816 58.189 90.1128 58.0527L72.078 53.8158C71.4114 53.6548 70.7509 54.1379 70.6837 54.8379Z" fill="#D1D1D1"/>
<path d="M79.9793 70.9369C81.7528 71.4696 82.768 73.3588 82.2421 75.1552C81.7162 76.9515 79.8509 77.9798 78.0774 77.4533C76.3039 76.9206 75.2887 75.0313 75.8085 73.2349C76.3406 71.4324 78.1997 70.4041 79.9793 70.9369Z" fill="#C6987E"/>
<path d="M82.3705 73.9349C82.3583 73.7924 81.7834 64.3399 81.7834 64.3399L78.6094 64.9222L79.0314 72.981L82.3705 73.9349Z" fill="#C6987E"/>
<path d="M76.8726 27.6387C76.8726 27.6387 81.6795 31.1261 81.9852 36.0939L83.4897 47.7082C83.5753 48.3896 83.612 49.0709 83.5875 49.7585L83.0065 67.4247H76.4079L76.2855 48.3029L76.8726 27.6387Z" fill="#54585A"/>
<path d="M66.1337 23.4203C65.62 23.7982 63.1432 25.2105 63.1432 25.2105C63.1432 25.2105 63.2105 28.7413 68.4576 28.4563C73.0749 28.2085 73.0443 25.3406 73.0443 25.3406L69.8581 23.4203H66.1337Z" fill="#C6987E"/>
<path d="M47.6158 40.8945L56.5934 55.4263L52.337 59.5084L40.2404 45.2057L47.6158 40.8945Z" fill="#54585A"/>
<path d="M76.2794 54.8007V48.2967L74.7872 36.4346" stroke="#424647" stroke-width="0.7693" stroke-miterlimit="10" stroke-linecap="round" stroke-linejoin="round"/>
</svg>
