<svg width="129" height="129" viewBox="0 0 129 129" fill="none" xmlns="http://www.w3.org/2000/svg">
<circle cx="64.5" cy="64.5" r="64.5" fill="#E29BEE"/>
<path d="M42.997 75.07L42.956 90.7689L36.0058 89.3433L30.153 88.1223C30.153 88.1223 38.1655 103.897 46.8803 103.897C55.5951 103.897 56.7218 90.7719 56.7218 90.7719L57.2398 75.07H42.997Z" fill="#C6987E"/>
<path d="M79.0999 34.5724C78.462 34.9346 77.5841 34.4643 77.2914 33.7865C76.9988 33.1088 77.1334 32.3259 77.3558 31.6131C77.5782 30.9003 77.8884 30.2167 77.9411 29.4776C77.9671 28.803 77.7753 28.1378 77.3938 27.5802C77.0123 27.0227 76.4614 26.6023 75.8224 26.3811C77.0807 25.3849 77.1831 23.2495 76.0272 22.1365C75.4858 21.6165 74.7659 21.3331 74.1368 20.9242C73.7789 20.6882 73.4456 20.4171 73.1418 20.115C73.7033 20.2531 74.2877 20.271 74.8567 20.1675C75.3127 20.0677 75.7362 19.8547 76.0881 19.5484C76.4399 19.2421 76.7089 18.8522 76.87 18.4148C77.0186 17.9718 77.0404 17.4961 76.9328 17.0414C76.8253 16.5867 76.5927 16.171 76.2613 15.8411C75.9195 15.5217 75.4883 15.3137 75.0252 15.2448C74.562 15.1759 74.0888 15.2494 73.6685 15.4555C72.855 15.8849 72.4102 16.7672 72.0151 17.5968L71.6464 18.3651C70.5022 16.8519 69.4253 15.289 67.6606 14.7573C66.0599 14.2753 64.3392 14.8128 62.6711 14.6931C61.4567 14.6025 60.292 14.1672 59.0804 14.0329C57.8689 13.8985 56.4906 14.1585 55.7765 15.1429C55.3551 15.7272 55.2234 16.4692 54.7991 17.0447C53.9212 18.2307 52.0307 18.3914 51.3108 19.6738C50.7255 20.7197 51.1762 22.0401 50.9245 23.2115C50.6524 24.4852 49.5989 25.4171 48.7385 26.3957C47.8782 27.3743 47.1261 28.7181 47.6089 29.9275C48.0362 30.9938 49.2799 31.5664 49.6837 32.6385C49.9764 33.4214 49.7657 34.289 49.7511 35.1245C49.7364 35.96 50.07 36.9532 50.8865 37.1431L60.172 39.5911C63.3705 40.8882 66.6686 42.2203 70.1217 42.2027C73.5749 42.1852 77.2592 40.5434 78.6083 37.3768C78.1063 37.3579 77.6302 37.149 77.2768 36.7925C77.7277 36.5821 78.1255 36.2735 78.4411 35.8892C78.7566 35.505 78.9817 35.055 79.0999 34.5724Z" fill="#263238"/>
<path d="M71.4884 37.479C72.2551 35.142 73.0101 32.7611 73.3584 30.3131C73.7066 27.8651 73.6334 25.3119 72.7731 23.0099C72.6443 22.6594 71.5294 20.3019 71.1548 20.3399C70.8885 20.3662 71.5733 22.563 71.4474 22.7967C70.1598 25.0052 69.8086 27.6606 70.0164 30.2109C70.2381 32.686 70.7357 35.1287 71.5001 37.4936" fill="#263238"/>
<path d="M63.2886 58.0273C67.128 57.9455 71.4825 49.5556 71.4825 49.5556L71.7312 28.0375C71.9302 21.8415 68.4859 16.5598 62.2761 16.5306L61.6908 16.5598C58.9055 16.7118 56.2792 17.9032 54.3327 19.8977C52.3861 21.8923 51.2616 24.5442 51.1821 27.3276C51.0387 32.6998 50.945 38.6388 51.1353 41.5075C51.5274 47.4435 57.5294 48.0482 57.5294 48.0482C57.5294 48.0482 57.5646 49.4271 57.5821 51.174C57.6231 55.0943 61.7347 58.15 63.274 58.0185L63.2886 58.0273Z" fill="#C6987E"/>
<path d="M57.5441 48.057C57.5441 48.057 61.3074 48.0774 65.1703 45.3548C65.1703 45.3548 63.5139 49.7776 57.547 49.5614L57.5441 48.057Z" fill="#7F6358"/>
<path d="M71.4825 32.472C71.582 32.4223 75.5063 31.0464 75.597 35.1011C75.6878 39.1559 71.5732 38.4168 71.5645 38.3145C71.5557 38.2123 71.4825 32.472 71.4825 32.472Z" fill="#C6987E"/>
<path d="M72.776 36.7488C72.7936 36.7488 72.8492 36.7955 72.9691 36.8481C73.1391 36.9165 73.3289 36.9165 73.4988 36.8481C73.9261 36.6816 74.2743 35.9892 74.2802 35.256C74.2813 34.9068 74.2053 34.5618 74.0578 34.2452C74.0167 34.1194 73.9458 34.0053 73.851 33.9127C73.7562 33.8201 73.6404 33.7518 73.5135 33.7135C73.4312 33.6939 73.3446 33.7036 73.2687 33.741C73.1929 33.7783 73.1324 33.8409 73.0979 33.918C73.0452 34.032 73.0745 34.1138 73.0511 34.1196C73.0277 34.1254 72.9633 34.0524 72.9926 33.8859C73.0133 33.7842 73.068 33.6926 73.1477 33.6259C73.2018 33.5824 73.2642 33.5502 73.331 33.5311C73.3979 33.5121 73.4679 33.5065 73.5369 33.5149C73.7047 33.5443 73.8622 33.6161 73.9944 33.7235C74.1266 33.8309 74.229 33.9703 74.2919 34.1284C74.4742 34.4772 74.5677 34.8655 74.564 35.2589C74.564 36.0798 74.1514 36.8539 73.5661 37.038C73.4573 37.0724 73.3421 37.0819 73.2291 37.0658C73.1161 37.0496 73.0082 37.0081 72.9135 36.9445C72.7848 36.8452 72.7614 36.7546 72.776 36.7488Z" fill="#7F6358"/>
<path d="M53.7485 20.5619C53.0842 20.2084 55.0362 18.0496 56.6486 17.293C59.0834 16.1537 62.8175 15.4234 65.0825 16.0339C67.8128 16.7672 70.0896 18.0788 71.4884 20.5444C72.8872 23.0099 73.4374 25.8699 73.3935 28.6918C73.3789 29.5536 73.3028 30.4446 72.8492 31.1866C72.2932 32.0922 71.2075 32.6735 71.2718 33.9151C71.29 34.1395 71.2634 34.3653 71.1936 34.5794C71.1238 34.7935 71.0121 34.9917 70.8651 35.1624C70.1276 35.9629 69.2058 35.2296 68.7786 34.4905C67.8597 32.9072 67.7367 31.0055 67.6343 29.1826C67.5612 27.8855 67.4909 26.5534 67.8421 25.309C68.0323 24.6283 68.3454 23.9827 68.4976 23.2933C68.6498 22.6039 68.6205 21.8327 68.1816 21.263C68.0808 21.1429 67.9692 21.0324 67.848 20.9329C67.2726 20.4457 66.5779 20.1197 65.8349 19.9883C65.0919 19.8569 64.3274 19.9248 63.6193 20.1851C61.3338 21.0264 57.43 22.2884 56.3969 21.523C54.9103 20.4217 54.5474 19.6972 54.5474 19.6972L53.7485 20.5619Z" fill="#263238"/>
<path d="M64.863 15.476C62.6155 14.7573 60.0637 14.8304 57.983 15.9434C56.8769 16.5276 55.8819 17.4683 55.56 18.6748C55.2381 19.8812 55.7707 21.3623 56.9354 21.8181L57.0173 21.8677C58.7732 22.4286 59.8911 22.1832 61.6176 21.561C63.0808 21.0381 64.3567 20.1237 65.8112 19.6066C67.3704 19.0591 69.0579 18.9889 70.6573 19.4051C69.077 17.6582 67.1134 16.2034 64.863 15.476Z" fill="#263238"/>
<path d="M72.6092 19.5073C72.5741 19.5366 72.2463 19.148 71.585 18.6894C71.2 18.4211 70.7845 18.1995 70.3471 18.0292C69.8239 17.8091 69.2578 17.7092 68.6907 17.737C67.6524 17.8523 66.6676 18.2573 65.8492 18.9056C65.2171 19.4051 64.9245 19.8258 64.8864 19.7965C64.8484 19.7673 64.9303 19.6709 65.0649 19.484C65.2569 19.2189 65.4777 18.9759 65.7234 18.7595C66.5464 18.0336 67.5753 17.5813 68.6673 17.4654C69.2751 17.4305 69.8825 17.5386 70.4407 17.7809C70.8917 17.9693 71.315 18.2179 71.6991 18.5199C72.3575 19.0487 72.6385 19.4898 72.6092 19.5073Z" fill="#455A64"/>
<path d="M73.0218 20.9475C72.9879 21.3522 72.8829 21.7477 72.7116 22.1161C71.9791 23.9399 70.6342 25.4528 68.9073 26.3957C68.5641 26.6089 68.1855 26.7593 67.7894 26.8398C67.7397 26.7609 69.5014 26.0948 70.9792 24.4063C72.457 22.7178 72.9369 20.9096 73.0218 20.9475Z" fill="#455A64"/>
<path d="M74.6811 21.6107C74.713 21.7625 74.7179 21.9187 74.6957 22.0722C74.6744 22.4934 74.6156 22.9118 74.5201 23.3225C74.2073 24.6916 73.5599 25.9622 72.6357 27.0209C71.7115 28.0795 70.5392 28.8935 69.2233 29.39C68.8283 29.54 68.421 29.6553 68.006 29.7347C67.856 29.7782 67.6993 29.794 67.5436 29.7815C67.5436 29.7347 68.1845 29.6237 69.1502 29.1972C70.4101 28.6675 71.532 27.8572 72.4303 26.8284C73.3285 25.7996 73.9793 24.5795 74.3329 23.2612C74.6079 22.2621 74.6313 21.6107 74.6811 21.6107Z" fill="#455A64"/>
<path d="M60.1954 15.1108C60.1954 15.1576 59.7711 15.2569 59.1156 15.5169C57.3954 16.1992 55.9329 17.4027 54.9337 18.9582C54.749 19.2947 54.5468 19.6213 54.328 19.9368C54.4059 19.5534 54.5547 19.1878 54.7669 18.8588C55.2346 18.0347 55.8495 17.303 56.5813 16.7C57.313 16.0975 58.1505 15.6359 59.0512 15.3387C59.4159 15.195 59.8034 15.1178 60.1954 15.1108Z" fill="#455A64"/>
<path d="M75.9599 15.6221C76.0272 15.6221 75.8487 16.7906 74.9269 17.886C74.0051 18.9815 72.8784 19.3613 72.8784 19.2941C72.8784 19.2269 73.8646 18.7507 74.725 17.7108C75.5854 16.6708 75.878 15.5958 75.9599 15.6221Z" fill="#455A64"/>
<path d="M32.6521 88.2537L35.0693 86.7726C35.4795 86.5237 35.95 86.3913 36.4301 86.39H41.1123L45.9468 90.7865L47.3895 91.5051L46.851 99.1004L43.7081 98.7148C43.7081 98.7148 36.9978 99.0069 36.3482 98.5717C35.6985 98.1364 34.7591 96.7692 34.7591 96.7692C34.7591 96.7692 31.0806 95.5803 30.7207 95.2589C29.354 94.0349 29.9042 93.7428 29.9042 93.7428L29.275 93.4507C29.158 93.6727 28.242 92.1828 28.3386 91.435C28.3942 90.9997 28.2654 91.0026 28.2654 91.0026C27.9605 90.8278 27.6976 90.5884 27.4954 90.3012C27.2931 90.014 27.1564 89.6861 27.0949 89.3404C27.0276 88.8964 28.8507 89.2148 28.8507 89.2148L33.3954 89.2762L32.6521 88.2537Z" fill="#C6987E"/>
<path d="M36.6934 89.1739L32.418 83.3635C32.2633 83.1521 32.0607 82.9802 31.8267 82.8619C31.5928 82.7436 31.3341 82.6823 31.0718 82.6829H22.6204C22.4574 82.6829 22.3011 82.7475 22.1858 82.8625C22.0706 82.9776 22.0058 83.1336 22.0058 83.2963C22.0072 83.443 22.06 83.5846 22.1551 83.6965L26.9983 89.3054L36.6934 89.1739Z" fill="#455A64"/>
<path d="M34.6216 91.5548C34.3105 91.6383 33.9897 91.6805 33.6675 91.6804C32.1191 91.7705 30.5657 91.6367 29.0555 91.2831C28.7379 91.2258 28.429 91.1276 28.1367 90.991C28.4561 91.0127 28.7732 91.0606 29.0848 91.1341C29.6701 91.2364 30.469 91.362 31.3645 91.4262C32.2599 91.4905 33.0735 91.5197 33.6617 91.5168C33.9821 91.5012 34.3033 91.5139 34.6216 91.5548Z" fill="#7F6358"/>
<path d="M35.836 94.0992C35.5248 94.182 35.2041 94.2242 34.882 94.2248C34.1087 94.271 33.3331 94.2602 32.5614 94.1927C31.7887 94.1268 31.0219 94.0048 30.2671 93.8275C29.9503 93.7706 29.6423 93.6724 29.3511 93.5354C29.6705 93.5573 29.9876 93.6052 30.2993 93.6785C30.8846 93.7808 31.6835 93.9064 32.5789 93.9707C33.4744 94.0349 34.288 94.0642 34.8762 94.0612C35.1966 94.0456 35.5178 94.0583 35.836 94.0992Z" fill="#7F6358"/>
<path d="M27.1066 89.3405C27.1419 89.5205 27.1888 89.6981 27.2471 89.8721C27.4391 90.3527 27.8105 90.7402 28.283 90.953L28.3152 90.9676V91.0027C28.3049 91.5166 28.4183 92.0255 28.6459 92.4867C28.927 93.0536 29.3922 93.5087 29.9657 93.7779L30.0447 93.8129L30.0066 93.886C29.9628 93.9771 29.94 94.077 29.94 94.1781C29.94 94.2792 29.9628 94.3791 30.0066 94.4702C30.1063 94.6671 30.2482 94.8397 30.4222 94.9756C30.809 95.2728 31.2343 95.5165 31.6864 95.7001C32.6883 96.1152 33.7255 96.4398 34.7855 96.6699H34.8264L34.8469 96.705C35.1182 97.0977 35.4377 97.4549 35.798 97.7683C36.1445 98.1114 36.5709 98.3633 37.0388 98.5016C37.3995 98.5902 37.7709 98.6275 38.142 98.6126L39.2541 98.6418L41.3991 98.7002L45.262 98.8083H45.2766L49.8798 99.746L51.1587 100.021L51.4923 100.1C51.5321 100.104 51.5708 100.116 51.6064 100.135C51.5675 100.139 51.5282 100.139 51.4894 100.135L51.1499 100.082L49.8594 99.8541L45.2415 98.9777H45.2561L41.3933 98.8959L39.2512 98.8463L38.1362 98.82C37.748 98.8319 37.3601 98.7907 36.9832 98.6973C36.4848 98.5513 36.0303 98.2843 35.6605 97.9202C35.2875 97.5947 34.958 97.2225 34.6801 96.8131L34.7416 96.8569C33.6703 96.6217 32.6231 96.2883 31.6132 95.8607C31.1466 95.6678 30.7085 95.4123 30.311 95.1012C30.1157 94.9435 29.9586 94.7438 29.8515 94.517C29.8008 94.4044 29.776 94.2819 29.7791 94.1586C29.7821 94.0352 29.8129 93.9141 29.8691 93.8042L29.9101 93.9122C29.3061 93.6226 28.819 93.1363 28.5288 92.5334C28.3001 92.0503 28.1927 91.5189 28.2157 90.9851L28.2479 91.0348C28.0032 90.9208 27.7843 90.7584 27.6042 90.5576C27.4242 90.3568 27.2867 90.1216 27.2002 89.8663C27.1369 89.6982 27.1052 89.52 27.1066 89.3405Z" fill="#7F6358"/>
<path d="M37.2202 96.334C37.2436 96.3807 36.6759 96.67 35.9062 96.7722C35.1366 96.8744 34.5162 96.7459 34.525 96.6962C34.5338 96.6466 35.1425 96.6699 35.8799 96.5677C36.6174 96.4655 37.1997 96.2785 37.2202 96.334Z" fill="#7F6358"/>
<path d="M39.3916 89.1652C39.3916 89.2207 38.4639 89.2995 37.3109 89.3434C36.1579 89.3872 35.2244 89.3726 35.2244 89.3142C35.2244 89.2557 36.1521 89.1798 37.3051 89.136C38.4581 89.0921 39.3916 89.1067 39.3916 89.1652Z" fill="#7F6358"/>
<path d="M47.2988 90.8829C47.2988 90.8829 47.211 90.9676 47.0061 90.9997C46.7122 91.0315 46.4161 90.9658 46.1633 90.8128C45.8099 90.5822 45.4796 90.3181 45.1771 90.024L44.0241 89.0162L41.9171 87.2079C41.6112 86.974 41.3254 86.7151 41.0626 86.4338C41.3984 86.6238 41.715 86.8459 42.0078 87.0969C42.5726 87.5293 43.3393 88.1486 44.1616 88.8497C44.5713 89.2061 44.9576 89.5508 45.3029 89.8692C45.5913 90.1632 45.9036 90.4329 46.2365 90.6755C46.4618 90.8259 46.7263 90.9072 46.9973 90.9092C47.1905 90.9121 47.2929 90.8654 47.2988 90.8829Z" fill="#7F6358"/>
<path d="M35.7921 89.2996C35.7498 89.2618 35.7115 89.2197 35.678 89.1739L35.3854 88.8L34.2733 87.4007L32.6697 85.3149L31.7274 84.0822C31.5612 83.88 31.3425 83.7274 31.0953 83.641C30.9687 83.5972 30.8368 83.5706 30.7031 83.5622C30.5714 83.5622 30.4105 83.5622 30.2817 83.5622L24.4289 83.5388L22.6526 83.5154H22.1697C22.1128 83.5168 22.0559 83.5119 22 83.5008C22.0556 83.4877 22.1127 83.4828 22.1697 83.4862L22.6526 83.4716L24.4289 83.4453L30.2817 83.4249C30.428 83.4249 30.5744 83.4249 30.7148 83.4249C30.8615 83.4349 31.0062 83.4643 31.145 83.5125C31.4176 83.6097 31.6585 83.7794 31.8415 84.0033L32.7809 85.2448L34.3582 87.3511C34.7942 87.9353 35.1513 88.4232 35.4117 88.7796C35.5258 88.9373 35.6166 89.0717 35.7044 89.171C35.7389 89.21 35.7684 89.2532 35.7921 89.2996Z" fill="#263238"/>
<path d="M26.6003 84.386C26.6546 84.3442 26.7201 84.3194 26.7884 84.3146C26.8568 84.3098 26.9251 84.3252 26.9847 84.359C27.0443 84.3928 27.0926 84.4434 27.1235 84.5044C27.1545 84.5655 27.1667 84.6343 27.1586 84.7022C27.1506 84.7702 27.1226 84.8342 27.0783 84.8864C27.0339 84.9385 26.9751 84.9765 26.9092 84.9954C26.8434 85.0144 26.7734 85.0135 26.708 84.9929C26.6427 84.9723 26.5848 84.9329 26.5418 84.8797C26.4873 84.8082 26.4619 84.7189 26.4706 84.6295C26.4793 84.5401 26.5214 84.4573 26.5886 84.3976" fill="#F5F5F5"/>
<path d="M71.901 47.8641L83.8056 54.8489L85.9946 93.4098L88.839 115.226H46.055C46.055 115.226 46.5262 88.6744 46.6725 80.6438C46.7779 75.0145 46.6257 64.1035 48.5337 57.3933C49.3472 54.5334 57.3129 50.838 57.3129 50.838C61.6762 54.6853 66.5545 53.5373 71.901 47.8641Z" fill="#FF725E"/>
<path d="M87.5807 105.586C87.5807 105.627 78.345 105.662 66.9496 105.662C55.5542 105.662 46.3184 105.627 46.3184 105.586C46.3184 105.545 55.5542 105.51 66.9496 105.51C78.345 105.51 87.5807 105.542 87.5807 105.586Z" fill="white"/>
<g opacity="0.3">
<path opacity="0.3" d="M46.2921 99.0245C49.6048 101.797 54.7523 103.298 58.9897 104.154C63.2272 105.01 67.5553 105.323 71.8044 106.1C74.7747 106.652 77.8914 107.432 80.7563 106.468C82.1826 105.962 83.4334 105.058 84.36 103.864C85.2865 102.669 85.8498 101.234 85.9829 99.7285C86.0041 99.6276 86.0036 99.5233 85.9814 99.4225C85.9592 99.3218 85.9158 99.2269 85.8541 99.1442C85.7687 99.0794 85.6708 99.0329 85.5666 99.0078C85.4623 98.9826 85.3539 98.9794 85.2483 98.9982C72.457 99.5649 58.9107 99.486 46.2921 99.0157" fill="black"/>
</g>
<path d="M44.027 91.0319H73.9231L74.0695 75.3066L87.8645 73.5305C87.8645 73.5305 87.926 89.5011 87.926 94.739C87.926 101.026 82.4829 105.396 77.9118 104.724C73.3408 104.052 44.027 98.5892 44.027 98.5892V91.0319Z" fill="#C6987E"/>
<path d="M88.8215 76.7965L72.7438 78.4645V59.634C72.7438 59.634 74.3241 53.2714 79.8784 53.5373C85.4327 53.8031 88.7044 59.8005 88.8215 65.3013C88.9385 70.802 88.8215 76.7965 88.8215 76.7965Z" fill="#FF725E"/>
<path d="M50.2339 55.1849C50.2339 55.1849 45.0805 58.5706 43.6993 62.307C42.2507 66.2244 40.2168 78.9144 40.2168 78.9144H47.4421L50.2339 55.1849Z" fill="#FF725E"/>
<path d="M72.6092 60.3818C72.6282 60.6103 72.6282 60.8399 72.6092 61.0683C72.5946 61.5445 72.5741 62.1755 72.5507 62.9409C72.5038 64.5184 72.4541 66.7006 72.4599 69.1106C72.4658 71.5207 72.5302 73.7029 72.5916 75.2803C72.6209 76.0457 72.6443 76.6767 72.6619 77.1529C72.6797 77.3814 72.6797 77.6109 72.6619 77.8394C72.6157 77.6142 72.5883 77.3855 72.5799 77.1558C72.5389 76.7176 72.4892 76.0779 72.4424 75.2891C72.3458 73.7087 72.2609 71.5265 72.2522 69.1106C72.2434 66.6947 72.3165 64.5125 72.4043 62.9321C72.4453 62.1434 72.4892 61.5065 72.5272 61.0654C72.5368 60.8358 72.5642 60.6072 72.6092 60.3818Z" fill="#263238"/>
<path d="M80.7036 53.8411C80.7036 53.882 80.1651 53.7389 79.2931 53.7535C78.1576 53.7652 77.0467 54.0844 76.0788 54.6771C75.1109 55.2698 74.3223 56.1137 73.7973 57.1188C73.3905 57.8871 73.2764 58.4246 73.2384 58.4158C73.2408 58.2868 73.2625 58.1588 73.3027 58.0361C73.3909 57.6973 73.5134 57.3684 73.6685 57.0545C74.1736 56 74.9731 55.1136 75.971 54.502C76.9689 53.8905 78.1225 53.5798 79.2931 53.6074C79.6444 53.6135 79.9943 53.6537 80.3378 53.7272C80.4649 53.7461 80.5883 53.7845 80.7036 53.8411Z" fill="#263238"/>
<path d="M46.9242 64.0539C46.9378 64.1242 46.9447 64.1956 46.9446 64.2671C46.9446 64.4307 46.9446 64.6323 46.9622 64.8777C46.9622 65.4064 46.9798 66.1718 46.9798 67.1183C46.9798 69.0113 46.9505 71.6258 46.8949 74.5121C46.8393 77.3983 46.7837 79.9836 46.7457 81.9029C46.7281 82.826 46.7135 83.5855 46.7018 84.1435C46.7018 84.3889 46.6842 84.5904 46.6784 84.754C46.6821 84.8248 46.6752 84.8957 46.6579 84.9644C46.6426 84.8953 46.6357 84.8247 46.6374 84.754C46.6374 84.5904 46.6374 84.3889 46.6198 84.1435C46.6198 83.6147 46.6023 82.8494 46.6023 81.9029C46.6023 80.0099 46.6315 77.3954 46.6871 74.5062C46.7427 71.6171 46.7954 69.0347 46.8334 67.1183C46.8539 66.1923 46.8686 65.4356 46.8803 64.8777C46.8803 64.6323 46.8978 64.4307 46.9007 64.2671C46.8986 64.1953 46.9064 64.1235 46.9242 64.0539Z" fill="#263238"/>
<path d="M46.7398 70.3609C45.9262 70.4296 45.1092 70.4481 44.2933 70.4164C43.4766 70.434 42.6595 70.4008 41.8469 70.3171C42.6604 70.2484 43.4775 70.2299 44.2933 70.2616C45.1101 70.2422 45.9273 70.2753 46.7398 70.3609Z" fill="white"/>
<path d="M72.3341 66.0141C72.3341 66.055 66.774 66.09 59.9408 66.09C53.1077 66.09 47.5416 66.055 47.5416 66.0141C47.5416 65.9732 53.1018 65.9381 59.9408 65.9381C66.7798 65.9381 72.3341 65.9644 72.3341 66.0141Z" fill="white"/>
<path d="M88.4732 63.4375C88.4188 63.4438 88.3638 63.4438 88.3094 63.4375L87.847 63.3995L86.1497 63.2534C84.7128 63.1337 82.7287 63.0022 80.5339 62.9409C78.3391 62.8795 76.3491 62.9058 74.9093 62.9409L73.2033 62.9935H72.7409C72.6866 63.0014 72.6313 63.0014 72.577 62.9935C72.6296 62.9797 72.6836 62.9718 72.738 62.9701L73.2003 62.9292C73.6042 62.8971 74.1836 62.862 74.9064 62.8269C76.3462 62.7598 78.3362 62.7218 80.5368 62.7802C82.7375 62.8386 84.7245 62.9905 86.1584 63.1366C86.8754 63.2096 87.4548 63.2768 87.8528 63.3323L88.3123 63.3966C88.3675 63.4031 88.4216 63.4169 88.4732 63.4375Z" fill="white"/>
<path d="M88.6254 74.5939C88.6254 74.6377 84.9937 74.5939 80.5193 74.4887C76.0448 74.3836 72.4102 74.2696 72.4131 74.2287C72.4161 74.1878 76.0419 74.2287 80.5222 74.3368C85.0025 74.4449 88.6254 74.553 88.6254 74.5939Z" fill="white"/>
<path d="M74.0197 56.6339C74.0197 56.6777 68.2898 56.7098 61.2226 56.7098C54.1553 56.7098 48.4254 56.6777 48.4254 56.6339C48.4254 56.5901 54.1553 56.5579 61.2226 56.5579C68.2898 56.5579 74.0197 56.593 74.0197 56.6339Z" fill="white"/>
<path d="M72.4161 77.8598C72.4161 77.9007 66.6686 77.9358 59.5779 77.9358C52.4873 77.9358 46.7398 77.9007 46.7398 77.8598C46.7398 77.8189 52.4873 77.7839 59.5779 77.7839C66.6686 77.7839 72.4161 77.816 72.4161 77.8598Z" fill="white"/>
<path d="M74.2597 87.2313C74.2597 87.2722 68.0089 87.3072 60.3008 87.3072C52.5926 87.3072 46.3389 87.2722 46.3389 87.2313C46.3389 87.1904 52.5897 87.1553 60.3008 87.1553C68.0118 87.1553 74.2597 87.1875 74.2597 87.2313Z" fill="white"/>
<path d="M88.3913 114.253C88.3913 114.294 78.9653 114.329 67.3417 114.329C55.718 114.329 46.2921 114.294 46.2921 114.253C46.2921 114.212 55.7151 114.177 67.3417 114.177C78.9683 114.177 88.3913 114.215 88.3913 114.253Z" fill="white"/>
<g opacity="0.3">
<path opacity="0.3" d="M72.5477 78.6427C72.3604 74.921 72.4951 71.4389 72.3048 67.7201C71.0354 73.1777 70.436 78.7692 70.5197 84.3714C70.5402 85.7005 70.6046 87.0531 71.0348 88.3122C71.465 89.5712 72.656 90.6492 73.8734 91.1867L73.9904 78.4821C73.4432 78.523 73.0979 78.6164 72.5477 78.6427Z" fill="black"/>
</g>
</svg>
