<svg width="129" height="129" viewBox="0 0 129 129" fill="none" xmlns="http://www.w3.org/2000/svg">
<circle cx="64.5" cy="64.5" r="64.5" fill="#EEC39B"/>
<path d="M54.1793 62.9974V108.007" stroke="#2A272D" stroke-width="1.9882" stroke-miterlimit="10"/>
<path d="M21.6221 62.9974V108.007" stroke="#2A272D" stroke-width="1.9882" stroke-miterlimit="10"/>
<path d="M73.4293 76.8978C73.4293 76.8978 67.1819 75.4816 66.2413 79.5486C65.4289 83.0384 73.9263 82.9048 73.9263 82.9048L92.6098 83.017C92.6098 83.017 99.6481 83.8293 103.127 75.7114C106.606 67.5935 109.957 46.3341 109.957 46.3341C109.957 46.3341 110.46 43.4108 108.023 42.9832C105.158 42.4809 104.597 48.6695 104.597 48.6695C104.597 48.6695 100.268 74.9098 93.9832 76.1924C93.0159 76.3901 92.2464 77.1223 91.2577 77.1116L73.4293 76.8978Z" fill="#FFEEE3"/>
<path d="M56.8246 55.7026L50.9246 55.2964C50.4436 55.2644 49.984 55.4835 49.7114 55.8736L46.414 60.8598L49.2198 60.9934L50.8017 58.5618C50.8017 58.5618 55.3603 59.7001 57.0437 58.5618L56.8246 55.7026Z" fill="#AC856E"/>
<path d="M80.5905 39.5469L72.7077 54.1955L56.3276 54.7192V60.1063L73.6269 60.8651C75.9143 60.9667 78.084 59.8711 79.3667 57.9739L87.2387 43.8384L80.5905 39.5469Z" fill="#95EF75"/>
<path d="M56.3276 54.7139V60.1009L58.1553 60.181V54.6551L56.3276 54.7139Z" fill="#F7E5DA"/>
<path d="M64.9105 98.1359L63.9859 104.613L59.3257 104.325L59.9938 97.6389L64.9105 98.1359Z" fill="#C6987E"/>
<path d="M65.0281 103.956C64.9265 103.651 64.5631 103.528 64.3012 103.715C63.7882 104.079 62.885 104.512 61.5864 104.346C60.2343 104.175 59.7586 103.453 59.5929 102.946C59.5074 102.678 59.2189 102.534 58.957 102.636L50.5558 105.928C50.0428 106.126 49.6366 106.521 49.4175 107.023C49.2144 107.494 49.5511 108.023 50.0695 108.033L64.2959 108.242C64.857 108.253 65.3059 107.788 65.2846 107.226L65.183 104.479C65.183 104.431 65.1723 104.389 65.1563 104.346L65.0281 103.956Z" fill="#1F252A"/>
<path d="M79.0674 38.291L77.7314 40.4341C77.6459 40.6371 77.6084 41.1288 77.9772 41.3105L78.4956 41.6846L79.6072 39.9851L79.0674 38.291Z" fill="#FFEEE3"/>
<path d="M81.5578 40.5569L81.98 40.3539C83.3695 39.6751 83.9467 37.997 83.268 36.6075L78.7574 27.3727L73.7499 29.8203L78.9605 40.1615C79.5163 41.3105 80.4088 41.1181 81.5578 40.5569Z" fill="#C6987E"/>
<path d="M70.0142 31.6428C71.4839 34.6463 75.1126 35.8968 78.1161 34.4271C81.1196 32.9575 82.3701 29.3341 80.9005 26.3253C79.4308 23.3218 75.8074 22.0712 72.7986 23.5409C69.7898 25.0106 68.5446 28.6393 70.0142 31.6428Z" fill="#C6987E"/>
<path d="M77.3252 37.6176C78.7521 36.9228 79.3453 35.1966 78.6452 33.7697L76.1013 28.5591L69.9661 31.5572L72.0397 35.8059C73.0017 37.7619 75.3692 38.5795 77.3252 37.6176Z" fill="#C6987E"/>
<path d="M70.7624 32.7811L70.4311 35.1112C70.4044 35.4799 70.7945 35.7204 71.1365 35.5547L72.6436 35.1432L70.7624 32.7811Z" fill="#C6987E"/>
<path d="M76.0746 31.616C76.0746 31.616 73.9529 31.755 73.6056 28.479C73.6056 28.479 69.918 30.8304 68.4163 29.8952C68.4163 29.8952 67.9567 20.6283 75.615 20.9543C83.2733 21.2803 83.8719 29.5478 83.8719 29.5478L79.5751 33.4277L76.0746 31.616Z" fill="#1C2226"/>
<path d="M75.77 31.7496C76.1708 32.578 77.1702 32.92 77.9986 32.5138C78.8216 32.1077 79.169 31.1136 78.7628 30.2853C78.362 29.4569 77.3626 29.1149 76.5342 29.5211C75.7112 29.9272 75.3692 30.9212 75.77 31.7496Z" fill="#C6987E"/>
<path d="M80.4462 30.5204L81.5845 33.1765C81.5845 33.1765 79.0834 35.1806 77.8222 32.5994L79.6392 32.0863L80.4462 30.5204Z" fill="#1C2226"/>
<path d="M73.6056 28.479C73.6056 28.479 68.6087 32.3375 66.6367 29.1043C65.0655 26.523 66.813 24.8503 69.3355 25.2671C70.4257 25.4488 70.9655 24.7113 71.8206 24.1288L73.6056 28.479Z" fill="#1C2226"/>
<path d="M78.0947 42.9779C78.0947 42.9779 78.207 40.6211 78.9552 39.8034C79.7033 38.9857 83.6902 36.7305 83.6902 36.7305C83.6902 36.7305 89.4245 38.3925 92.9464 44.9446C95.688 50.0483 98.2693 62.9654 98.2693 62.9654L81.7235 65.3649C80.2966 55.7132 77.6244 51.3149 78.0947 42.9779Z" fill="#ADFF86"/>
<path d="M83.4123 36.2763L84.1017 36.5862C84.3475 36.6984 84.401 37.0298 84.1979 37.2115L79.8263 41.1021C79.6499 41.2624 79.372 41.2143 79.2491 41.0113L78.7574 40.1615C78.6666 40.0012 78.704 39.7981 78.8483 39.6805L83.0275 36.335C83.1344 36.2388 83.284 36.2175 83.4123 36.2763Z" fill="#FFEEE3"/>
<path d="M58.647 56.5789L52.747 56.1728C52.266 56.1407 51.8064 56.3598 51.5338 56.7499L48.509 61.0521L51.3361 61.4155L52.6241 59.4328C52.6241 59.4328 57.1827 60.5711 58.8661 59.4328L58.647 56.5789Z" fill="#C6987E"/>
<path d="M83.9414 40.6371L75.0378 55.6598L58.15 56.1247V60.9826L76.3739 61.7789C78.0841 61.8537 79.7141 61.0361 80.676 59.6145L90.5896 44.9285L83.9414 40.6371Z" fill="#9EFF86"/>
<path d="M58.15 56.1247V60.9773L59.9777 61.0574V56.1247H58.15Z" fill="#FFEEE3"/>
<path d="M98.2693 62.9654L65.7228 67.6844C63.2324 68.0478 61.3085 70.0626 61.068 72.569L58.6417 100.29L65.9099 100.76L69.405 76.7322L89.8414 77.2613C95.3887 77.2613 99.6428 72.3339 98.8358 66.8453L98.2693 62.9654Z" fill="#54585A"/>
<path d="M40.5835 60.8651H57.7492V61.9767H40.5835V60.8651Z" fill="#2A272D"/>
<path d="M40.5781 61.9767L35.0254 45.7569L36.1905 45.479L41.6363 61.0575L40.5781 61.9767Z" fill="#2A272D"/>
<path d="M77.5977 37.468C77.5977 37.468 79.1422 36.5541 79.1422 34.6302C79.1422 34.6302 80.1042 36.7144 78.1428 38.5475L77.5977 37.468Z" fill="#AC856E"/>
<path d="M102.935 109.054C102.678 109.054 102.443 108.878 102.374 108.616L93.8764 75.1128C93.1709 72.3392 90.6858 70.3992 87.8213 70.3992C85.0423 70.3992 82.5733 72.2643 81.8144 74.9365C78.843 85.4058 71.9275 108.247 71.8581 108.477C71.7672 108.782 71.4412 108.958 71.1366 108.862C70.832 108.771 70.6556 108.445 70.7518 108.14C70.8213 107.91 77.7367 85.0798 80.7028 74.6212C81.6006 71.452 84.5293 69.2395 87.8267 69.2395C91.2203 69.2395 94.1703 71.5375 95.004 74.8242L103.501 108.333C103.582 108.643 103.394 108.958 103.084 109.038C103.031 109.049 102.983 109.054 102.935 109.054Z" fill="#1F252A"/>
<path d="M80.6707 59.6092L85.7745 52.0578" stroke="#8DEF75" stroke-width="0.7847" stroke-miterlimit="10" stroke-linecap="round" stroke-linejoin="round"/>
<path d="M16 61.9766H60.4695V63.9807H16V61.9766Z" fill="#FFEEE3"/>
<path d="M54.1793 68.8494H21.6221" stroke="#2A272D" stroke-width="1.9882" stroke-miterlimit="10"/>
<path d="M77.6779 50.834L82.5679 42.9512" stroke="#95EF75" stroke-width="0.7847" stroke-miterlimit="10" stroke-linecap="round" stroke-linejoin="round"/>
</svg>
