<svg width="129" height="129" viewBox="0 0 129 129" fill="none" xmlns="http://www.w3.org/2000/svg">
<circle cx="64.5" cy="64.5" r="64.5" fill="#9BDFEE"/>
<path d="M28.9562 80.7319H49.8407V113.87H28.9562V80.7319Z" fill="#B2B2B2"/>
<path d="M49.7591 80.7319H70.6435V113.87H49.7591V80.7319Z" fill="#D1D1D1"/>
<path d="M60.7008 40.5465L61.5911 58.3591L65.7775 71.4213H58.2406L54.3261 60.1669L53.1028 47.3766L60.7008 40.5465Z" fill="#F7EBE7"/>
<path d="M60.9115 102.806L59.396 109.867L64.4863 110.472L65.9338 103.519L60.9115 102.806Z" fill="#C6987E"/>
<path d="M59.0902 109.228C59.2193 108.847 59.6271 108.712 59.9057 108.956C60.4494 109.439 61.428 110.03 62.8756 109.887C64.3775 109.738 64.9416 108.854 65.1591 108.215C65.2746 107.882 65.594 107.713 65.8795 107.855L74.9931 112.436C75.5435 112.714 75.9785 113.231 76.196 113.877C76.3999 114.481 75.9921 115.134 75.4212 115.12L59.6746 114.685C59.0562 114.672 58.5805 114.06 58.6348 113.353L58.8931 109.887C58.8999 109.833 58.9067 109.772 58.9271 109.717L59.0902 109.228Z" fill="#1F252A"/>
<path d="M60.9999 68.6621H72.8183C72.8183 68.6621 80.0154 68.2611 80.4436 74.1669C80.8717 80.0727 69.8892 96.9679 68.1698 105.993L58.2882 105.178L65.4037 80.6368L47.7067 80.7387C46.395 80.7455 45.0902 80.5553 43.8533 80.1271C40.4077 78.931 35.1475 77.2184 38.0154 67.731L60.9999 68.6621Z" fill="#092330"/>
<path d="M51.8795 102.833L49.4736 111.274L54.564 111.879L56.9018 103.546L51.8795 102.833Z" fill="#C6987E"/>
<path d="M49.1678 110.635C49.297 110.254 49.7047 110.118 49.9833 110.363C50.527 110.846 51.5057 111.437 52.9532 111.294C54.4552 111.145 55.0193 110.261 55.2368 109.622C55.3523 109.289 55.6717 109.119 55.9571 109.262L65.0707 113.843C65.6212 114.121 66.0562 114.638 66.2736 115.283C66.4775 115.888 66.0697 116.541 65.4989 116.527L49.4804 116.092C48.862 116.079 48.3863 115.467 48.4406 114.76L48.9775 111.294C48.9843 111.24 48.9911 111.179 49.0115 111.124L49.1678 110.635Z" fill="#1F252A"/>
<path d="M46.8776 33.5465C46.6125 33.8047 34.7533 36.829 34.7533 36.829L37.2882 43.5639L50.2552 42.5853L46.8776 33.5465Z" fill="#F7EBE7"/>
<path d="M51.7707 35.1708C51.7707 35.1708 59.4979 37.9912 60.7008 40.5465C60.2863 44.1552 59.0154 47.628 56.9222 50.5979C54.3533 54.2407 51.1795 60.4999 51.7639 68.662H29.4251C29.4251 68.662 30.628 45.698 37.2406 36.8834L51.7707 35.1708Z" fill="#F7EBE7"/>
<path d="M49.2358 38.8135C47.0406 38.365 45.627 36.2242 46.0756 34.0291L47.3873 27.6068L55.3319 29.231L54.0202 35.6533C53.5717 37.8485 51.4309 39.2621 49.2358 38.8135Z" fill="#C6987E"/>
<path d="M46.8436 29.8495C46.8436 29.8495 47.6795 35.0553 51.73 35.3679C55.2775 35.6397 54.9378 30.5087 54.9378 30.5087L46.8436 29.8495Z" fill="#AC856E"/>
<path d="M51.4106 32.5135L50.7105 32.3504C47.1969 31.5349 45.0086 28.0281 45.8241 24.5213L46.7484 20.5184C47.564 17.0048 51.0707 14.8164 54.5775 15.632L55.2775 15.7951C58.7911 16.6106 60.9795 20.1174 60.164 23.6242L59.2397 27.6271C58.4241 31.1407 54.9174 33.3291 51.4106 32.5135Z" fill="#C6987E"/>
<path d="M48.0193 24.1679C48.0193 24.1679 51.0843 23.1553 50.5678 18.6766C50.5678 18.6766 56.1554 25.8613 61.7961 20.574C61.7961 20.574 61.2989 19.9203 60.2591 18.1941C58.3629 15.0475 52.9125 10.7116 48.5494 15.7271C48.5494 15.7271 43.2416 14.9048 44.7639 23.0805L48.0193 24.1679Z" fill="#1C2226"/>
<path d="M48.0193 24.1678C47.7271 25.4183 46.4766 26.1999 45.2261 25.9144C43.9688 25.6222 43.1941 24.3717 43.4795 23.1212C43.7718 21.8708 45.0222 21.0892 46.2727 21.3746C47.53 21.6669 48.3116 22.9174 48.0193 24.1678Z" fill="#C6987E"/>
<path d="M51.893 38.562L48.6106 38.6232L50.9076 43.3805L53.3882 38.8203L51.893 38.562Z" fill="#0C2C40"/>
<path d="M45.7969 33.7572L50.0241 38.6912L47.2717 41.8514L42.2086 34.8922C42.2086 34.8922 43.5067 32.8058 45.7969 33.7572Z" fill="#FFF7F3"/>
<path d="M51.8931 38.5621L54.3261 41.3077L56.0387 37.0261C56.0387 37.0261 55.5901 35.1028 54.1901 35.4698L51.8931 38.5621Z" fill="#FFF7F3"/>
<path d="M50.996 41.8445C50.996 41.8445 54.1698 50.1222 53.3814 61.8659L50.2552 64.7203L46.6057 61.2067L50.5407 41.3076L50.996 41.8445Z" fill="#0C2C40"/>
<path d="M45.063 61.499L51.8591 63.7349L52.3076 67.7242L43.296 65.0329L45.063 61.499Z" fill="#C6987E"/>
<path d="M50.8465 66.3717C50.8465 68.7028 52.7358 70.5989 55.0737 70.5989C57.4047 70.5989 59.3008 68.7096 59.3008 66.3717C59.3008 64.0407 57.4115 62.1446 55.0737 62.1446C52.7426 62.1446 50.8465 64.0339 50.8465 66.3717Z" fill="#C6987E"/>
<path d="M51.7707 68.662H63.5824C63.5824 68.662 70.7794 68.261 71.2076 74.1668C71.6358 80.0727 59.8445 98.0552 58.1251 107.074L48.2435 106.258L56.1678 80.6299L38.4707 80.7319C37.1591 80.7387 35.8542 80.5484 34.6173 80.1202C31.1717 78.9241 25.9115 77.2115 28.7795 67.7241L51.7707 68.662Z" fill="#0C2C40"/>
<path d="M87.4028 47.7776H66.9804C66.3076 47.7776 65.7299 48.2465 65.5872 48.9057L61.7407 66.9426C61.5504 67.8261 62.23 68.662 63.1338 68.662H83.896C84.5756 68.662 85.16 68.1795 85.2892 67.5135L88.796 49.4766C88.9727 48.5931 88.2998 47.7776 87.4028 47.7776Z" fill="#B2B2B2"/>
<path d="M88.5785 47.7776H68.163C67.4901 47.7776 66.9125 48.2465 66.7697 48.9057L62.9232 66.9426C62.7329 67.8261 63.4057 68.662 64.3164 68.662H85.0717C85.7513 68.662 86.3358 68.1795 86.4649 67.5135L89.9717 49.4766C90.1484 48.5931 89.4756 47.7776 88.5785 47.7776Z" fill="#D1D1D1"/>
<path d="M62.2979 67.1193H48.3455C47.9173 67.1193 47.5775 67.4659 47.5775 67.8873C47.5775 68.3154 47.9241 68.6552 48.3455 68.6552H62.5697L62.2979 67.1193Z" fill="#B2B2B2"/>
<path d="M75.9377 57.7475C75.9377 58.9776 76.93 59.9698 78.16 59.9698C79.3901 59.9698 80.3824 58.9708 80.3824 57.7475C80.3824 56.5174 79.3833 55.5252 78.16 55.5252C76.93 55.5252 75.9377 56.5174 75.9377 57.7475Z" fill="white"/>
<path d="M39.6261 43.2446L32.1639 55.2941L50.0241 61.6688L47.5775 66.9562C47.5775 66.9562 32.3066 65.2436 24.9261 59.5553C24.2465 59.032 23.9067 58.1824 24.0222 57.3329C24.3688 54.6145 25.8504 48.0155 32.1639 38.6368C33.4484 36.7271 36.0038 36.1494 37.995 37.3048C40.0678 38.5009 40.795 41.1514 39.6261 43.2446Z" fill="#F7EBE7"/>
<path d="M45.2737 59.9698L32.164 55.2941L38.7222 44.6989" stroke="#EADDD8" stroke-width="0.7599" stroke-miterlimit="10" stroke-linecap="round" stroke-linejoin="round"/>
<path d="M54.1494 55.9805L57.3775 47.4582" stroke="#EADDD8" stroke-width="0.7599" stroke-miterlimit="10" stroke-linecap="round" stroke-linejoin="round"/>
<path d="M45.063 66.5961C45.063 66.5961 35.0319 65.3388 29.9756 62.4436" stroke="#EADDD8" stroke-width="0.7599" stroke-miterlimit="10" stroke-linecap="round" stroke-linejoin="round"/>
</svg>
