<svg width="218" height="218" viewBox="0 0 218 218" fill="none" xmlns="http://www.w3.org/2000/svg">
<ellipse cx="109.254" cy="108.795" rx="108.746" ry="108.795" fill="#AFF3C2"/>
<g clip-path="url(#clip0)">
<path d="M93.3352 98.2023C96.0057 96.5724 99.4804 97.4395 101.089 100.156C102.697 102.862 101.842 106.383 99.1608 108.013C96.4903 109.643 93.0156 108.776 91.4071 106.059C89.7986 103.364 90.6647 99.8426 93.3352 98.2023Z" fill="#C6987E"/>
<path d="M99.7382 98.6098C99.5526 98.4635 89.6337 86.657 89.6337 86.657L85.5815 91.6304L94.5313 103.113L99.7382 98.6098Z" fill="#C6987E"/>
<path d="M91.3762 190.659L88.85 202.35L80.8695 201.138L83.4472 189.603L91.3762 190.659Z" fill="#C6987E"/>
<path d="M127.154 189.614L127.247 201.587L119.215 202.193L119.195 190.366L127.154 189.614Z" fill="#C6987E"/>
<path d="M89.8605 200.449C89.6955 199.958 89.1078 199.749 88.685 200.062C87.8602 200.668 86.4063 201.378 84.3029 201.128C82.1171 200.867 81.3335 199.696 81.0654 198.86C80.9211 198.422 80.4571 198.192 80.0343 198.359L66.4963 203.855C65.6714 204.189 65.0115 204.837 64.6713 205.662C64.3413 206.435 64.8981 207.303 65.7333 207.303L88.7366 207.47C89.644 207.48 90.3657 206.718 90.3245 205.798L90.1285 201.295C90.1285 201.222 90.108 201.149 90.0873 201.075L89.8605 200.449Z" fill="#0C0C0C"/>
<path d="M118.401 200.449C118.566 199.958 119.164 199.749 119.576 200.062C120.401 200.668 121.855 201.378 123.958 201.128C126.144 200.867 126.917 199.696 127.196 198.86C127.34 198.422 127.804 198.192 128.227 198.359L141.765 203.855C142.59 204.189 143.25 204.837 143.59 205.662C143.92 206.435 143.363 207.303 142.528 207.303L119.525 207.47C118.617 207.48 117.895 206.718 117.937 205.798L118.133 201.295C118.133 201.222 118.153 201.149 118.174 201.075L118.401 200.449Z" fill="#0C0C0C"/>
<path d="M118.298 39.5042L111.152 40.1311L99.7897 46.6194V92.7588H130.114V46.6194L118.298 39.5042Z" fill="#54585A"/>
<path d="M116.338 44.1537H114.287C112.163 44.1537 110.441 42.4089 110.441 40.2565V32.4413H120.174V40.2565C120.184 42.4089 118.462 44.1537 116.338 44.1537Z" fill="#C6987E"/>
<path d="M110.441 36.422C110.441 36.422 111.956 39.5042 115.4 39.5042C118.844 39.5042 120.174 36.3593 120.174 36.3593L110.441 36.422Z" fill="#AC856E"/>
<path d="M115.421 37.6967H115.101C110.142 37.6967 106.059 33.7264 105.863 28.7008L105.688 23.6961C105.481 18.3779 109.678 13.9583 114.926 13.9583H115.596C119.566 13.9583 125.041 18.3779 124.835 23.6961L124.659 28.7008C124.463 33.7264 120.38 37.6967 115.421 37.6967Z" fill="#C6987E"/>
<path d="M108.698 27.4888C108.812 29.1814 107.554 30.6441 105.883 30.7591C104.213 30.874 102.77 29.5993 102.656 27.9067C102.543 26.2141 103.801 24.7514 105.471 24.6364C107.141 24.5319 108.585 25.8066 108.698 27.4888Z" fill="#C6987E"/>
<path d="M127.856 27.4888C127.969 29.1814 126.711 30.6441 125.041 30.7591C123.37 30.874 121.927 29.5993 121.814 27.9067C121.7 26.2141 122.958 24.7514 124.628 24.6364C126.299 24.5319 127.742 25.8066 127.856 27.4888Z" fill="#C6987E"/>
<path d="M99.7898 92.5394L80.9314 194.127L91.768 194.023L119.339 92.7379L99.7898 92.5394Z" fill="#0C0C0C"/>
<path d="M130.114 92.7588L128.928 194.232H117.473L112.905 93.3961L130.114 92.7588Z" fill="#0C0C0C"/>
<path d="M99.7897 46.6194C99.7897 46.6194 74.4665 62.1037 68.3109 72.8445C67.1046 74.9446 68.6718 77.6611 70.7958 78.7791C73.1467 80.0224 76.044 79.1761 77.3947 76.8671L100.821 63.0963C100.831 63.0963 99.7897 51.2689 99.7897 46.6194Z" fill="#54585A"/>
<path d="M105.162 18.0123L105.873 25.7021H107.018L107.162 21.6691C107.162 21.6691 107.76 20.1228 110.43 16.8003C110.43 16.8003 112.173 21.3139 122.968 20.4362L123.597 25.535L124.711 25.4096L125.298 19.9347C125.69 18.0854 125.824 16.3614 125.494 14.5017C124.824 10.7403 121.803 8.6611 113.08 11.3149C112.358 11.5344 113.833 11.3881 113.08 11.3149C110.585 11.0328 104.007 11.0015 105.162 18.0123Z" fill="#2E2A33"/>
<path d="M118.009 92.0274L115.555 118.629C115.462 119.632 116.132 120.541 117.112 120.729L147.219 126.559C148.323 126.778 149.374 125.984 149.498 124.856L152.251 99.571C152.354 98.5889 151.725 97.6799 150.766 97.4501L120.36 90.3035C119.226 90.0318 118.122 90.8468 118.009 92.0274Z" fill="#AFAFAF"/>
<path d="M119.679 92.4976L117.225 119.099C117.133 120.102 117.803 121.011 118.782 121.199L148.89 127.029C149.993 127.238 151.045 126.454 151.168 125.326L153.921 100.041C154.024 99.0591 153.396 98.1501 152.437 97.9202L122.03 90.7737C120.906 90.502 119.793 91.317 119.679 92.4976Z" fill="#D1D1D1"/>
<path d="M135.352 119.653C138.342 120.551 140.053 123.738 139.167 126.768C138.28 129.798 135.135 131.532 132.145 130.644C129.155 129.746 127.443 126.559 128.32 123.529C129.217 120.488 132.351 118.754 135.352 119.653Z" fill="#C6987E"/>
<path d="M139.383 124.709C139.363 124.469 138.393 108.525 138.393 108.525L133.042 109.507L133.753 123.1L139.383 124.709Z" fill="#C6987E"/>
<path d="M130.114 46.6194C130.114 46.6194 138.218 52.5018 138.734 60.8813L141.27 80.4717C141.414 81.621 141.476 82.7703 141.435 83.93L140.455 113.728H129.33L129.124 81.4747L130.114 46.6194Z" fill="#54585A"/>
<path d="M112.008 39.5042C111.142 40.1416 106.966 42.5237 106.966 42.5237C106.966 42.5237 107.079 48.4792 115.926 47.9986C123.711 47.5807 123.659 42.7432 123.659 42.7432L118.287 39.5042H112.008Z" fill="#C6987E"/>
<path d="M80.787 68.9787L95.9232 93.4902L88.7468 100.376L68.3522 76.2506L80.787 68.9787Z" fill="#54585A"/>
<path d="M129.114 92.4349V81.4643L126.598 61.4559" stroke="#424647" stroke-width="0.7693" stroke-miterlimit="10" stroke-linecap="round" stroke-linejoin="round"/>
</g>
<defs>
<clipPath id="clip0">
<rect width="89.3575" height="197.349" fill="white" transform="translate(64.5748 10.1205)"/>
</clipPath>
</defs>
</svg>
