<svg width="220" height="220" viewBox="0 0 220 220" fill="none" xmlns="http://www.w3.org/2000/svg">
<ellipse cx="109.951" cy="109.572" rx="109.951" ry="109.572" fill="#E29BEE"/>
<path d="M73.2953 127.529L73.2255 154.198L61.3778 151.776L51.4007 149.702C51.4007 149.702 65.0593 176.5 79.9151 176.5C94.771 176.5 96.6915 154.203 96.6915 154.203L97.5745 127.529H73.2953Z" fill="#C6987E"/>
<path d="M134.839 58.7314C133.751 59.3467 132.255 58.5477 131.756 57.3964C131.257 56.2451 131.487 54.9151 131.866 53.7042C132.245 52.4933 132.774 51.332 132.863 50.0765C132.908 48.9303 132.581 47.8004 131.93 46.8532C131.28 45.906 130.341 45.1919 129.252 44.8161C131.397 43.1238 131.571 39.4961 129.601 37.6054C128.678 36.722 127.451 36.2406 126.378 35.5459C125.768 35.145 125.2 34.6845 124.682 34.1712C125.639 34.4059 126.636 34.4363 127.605 34.2605C128.383 34.0908 129.105 33.7291 129.705 33.2087C130.304 32.6883 130.763 32.026 131.038 31.2829C131.291 30.5303 131.328 29.7223 131.145 28.9499C130.961 28.1775 130.565 27.4713 130 26.9108C129.417 26.3681 128.682 26.0148 127.893 25.8978C127.103 25.7808 126.297 25.9056 125.58 26.2558C124.193 26.9853 123.435 28.484 122.762 29.8934L122.133 31.1986C120.182 28.6279 118.347 25.9729 115.339 25.0697C112.61 24.2509 109.677 25.164 106.833 24.9605C104.763 24.8067 102.778 24.0672 100.712 23.839C98.647 23.6107 96.2974 24.0524 95.0802 25.7248C94.3619 26.7173 94.1374 27.9778 93.414 28.9555C91.9175 30.9703 88.6949 31.2432 87.4677 33.4218C86.47 35.1985 87.2382 37.4416 86.8092 39.4316C86.3453 41.5953 84.5494 43.1784 83.0828 44.8409C81.6162 46.5034 80.3341 48.7862 81.1572 50.8407C81.8855 52.6521 84.0057 53.6248 84.6941 55.4461C85.1929 56.7761 84.8338 58.25 84.8088 59.6693C84.7839 61.0886 85.3526 62.7759 86.7444 63.0985L102.573 67.2572C108.025 69.4606 113.648 71.7236 119.534 71.6938C125.42 71.664 131.701 68.875 134.001 63.4955C133.145 63.4634 132.333 63.1085 131.731 62.503C132.5 62.1456 133.178 61.6212 133.716 60.9684C134.253 60.3157 134.637 59.5512 134.839 58.7314Z" fill="#263238"/>
<path d="M121.864 63.6692C123.171 59.699 124.458 55.6545 125.051 51.4958C125.645 47.3371 125.52 42.9997 124.054 39.0892C123.834 38.4936 121.933 34.4888 121.295 34.5533C120.841 34.598 122.008 38.3299 121.794 38.7269C119.599 42.4786 119 46.9897 119.354 51.3221C119.732 55.5268 120.581 59.6764 121.884 63.694" fill="#263238"/>
<path d="M107.886 98.5765C114.431 98.4376 121.854 84.1848 121.854 84.1848L122.278 47.6299C122.617 37.1042 116.745 28.1317 106.16 28.0821L105.162 28.1317C100.414 28.3899 95.9371 30.4139 92.6189 33.8022C89.3008 37.1904 87.3838 41.6955 87.2483 46.424C87.0038 55.5503 86.8442 65.6394 87.1684 70.5127C87.8369 80.5968 98.0684 81.6241 98.0684 81.6241C98.0684 81.6241 98.1282 83.9665 98.1581 86.9341C98.228 93.594 105.237 98.7849 107.861 98.5616L107.886 98.5765Z" fill="#C6987E"/>
<path d="M98.0933 81.639C98.0933 81.639 104.509 81.6737 111.093 77.0485C111.093 77.0485 108.27 84.562 98.0983 84.1947L98.0933 81.639Z" fill="#7F6358"/>
<path d="M121.854 55.1632C122.023 55.0789 128.713 52.7415 128.867 59.6296C129.022 66.5178 122.008 65.2622 121.993 65.0885C121.978 64.9149 121.854 55.1632 121.854 55.1632Z" fill="#C6987E"/>
<path d="M124.059 62.4286C124.088 62.4286 124.183 62.508 124.388 62.5973C124.677 62.7135 125.001 62.7135 125.291 62.5973C126.019 62.3144 126.613 61.1383 126.623 59.8927C126.625 59.2996 126.495 58.7133 126.244 58.1756C126.174 57.9618 126.053 57.768 125.891 57.6107C125.729 57.4534 125.532 57.3374 125.316 57.2724C125.175 57.2391 125.028 57.2556 124.899 57.319C124.769 57.3824 124.666 57.4888 124.607 57.6198C124.518 57.8133 124.567 57.9523 124.527 57.9622C124.488 57.9721 124.378 57.8481 124.428 57.5652C124.463 57.3924 124.556 57.2367 124.692 57.1235C124.784 57.0496 124.891 56.9949 125.005 56.9625C125.119 56.9301 125.238 56.9207 125.356 56.9349C125.642 56.9849 125.91 57.1069 126.136 57.2893C126.361 57.4717 126.535 57.7085 126.643 57.9771C126.953 58.5697 127.113 59.2293 127.107 59.8976C127.107 61.2921 126.403 62.6072 125.405 62.9199C125.22 62.9785 125.024 62.9946 124.831 62.9671C124.638 62.9396 124.454 62.8692 124.293 62.7611C124.074 62.5924 124.034 62.4385 124.059 62.4286Z" fill="#7F6358"/>
<path d="M91.6232 34.9305C90.4908 34.33 93.8181 30.6626 96.5668 29.3773C100.717 27.4419 107.083 26.2012 110.944 27.2384C115.598 28.484 119.479 30.7122 121.864 34.9007C124.248 39.0892 125.186 43.9476 125.111 48.7415C125.086 50.2055 124.957 51.7191 124.183 52.9796C123.236 54.5181 121.385 55.5056 121.494 57.6148C121.525 57.996 121.48 58.3796 121.361 58.7434C121.242 59.1071 121.052 59.4437 120.801 59.7338C119.544 61.0936 117.973 59.848 117.244 58.5924C115.678 55.9026 115.468 52.672 115.294 49.5753C115.169 47.3719 115.049 45.1089 115.648 42.9948C115.972 41.8385 116.506 40.7418 116.765 39.5706C117.025 38.3994 116.975 37.0892 116.227 36.1215C116.055 35.9175 115.865 35.7298 115.658 35.5607C114.677 34.733 113.493 34.1792 112.226 33.956C110.96 33.7328 109.656 33.8482 108.449 34.2903C104.553 35.7196 97.8987 37.8634 96.1378 36.5632C93.6036 34.6923 92.985 33.4615 92.985 33.4615L91.6232 34.9305Z" fill="#263238"/>
<path d="M110.57 26.2905C106.738 25.0697 102.388 25.1938 98.8416 27.0845C96.9559 28.0771 95.2598 29.675 94.7111 31.7246C94.1623 33.7742 95.0703 36.2903 97.0557 37.0644L97.1954 37.1488C100.188 38.1016 102.094 37.6848 105.037 36.6277C107.532 35.7394 109.707 34.1861 112.186 33.3077C114.844 32.3775 117.72 32.2582 120.447 32.9653C117.753 29.9976 114.406 27.5262 110.57 26.2905Z" fill="#263238"/>
<path d="M123.774 33.139C123.714 33.1886 123.156 32.5286 122.028 31.7494C121.372 31.2937 120.664 30.9172 119.918 30.6279C119.026 30.254 118.061 30.0844 117.095 30.1316C115.325 30.3274 113.646 31.0154 112.251 32.1167C111.173 32.9653 110.674 33.6799 110.61 33.6303C110.545 33.5806 110.684 33.4169 110.914 33.0993C111.241 32.649 111.618 32.2362 112.036 31.8685C113.439 30.6353 115.193 29.867 117.055 29.6701C118.091 29.6109 119.126 29.7945 120.078 30.206C120.847 30.5262 121.568 30.9485 122.223 31.4616C123.345 32.3598 123.824 33.1092 123.774 33.139Z" fill="#455A64"/>
<path d="M124.478 35.5856C124.42 36.273 124.241 36.9449 123.949 37.5707C122.7 40.6689 120.408 43.239 117.464 44.8409C116.879 45.2031 116.233 45.4585 115.558 45.5953C115.473 45.4613 118.476 44.3298 120.996 41.4614C123.515 38.593 124.333 35.5211 124.478 35.5856Z" fill="#455A64"/>
<path d="M127.306 36.7121C127.36 36.97 127.369 37.2354 127.331 37.4962C127.295 38.2116 127.195 38.9224 127.032 39.6202C126.498 41.946 125.395 44.1044 123.819 45.9029C122.244 47.7014 120.246 49.0841 118.003 49.9276C117.329 50.1824 116.635 50.3783 115.927 50.5132C115.672 50.587 115.404 50.6139 115.139 50.5926C115.139 50.5132 116.232 50.3246 117.878 49.6001C120.026 48.7002 121.938 47.3238 123.469 45.576C125 43.8283 126.11 41.7555 126.712 39.516C127.181 37.8188 127.221 36.7121 127.306 36.7121Z" fill="#455A64"/>
<path d="M102.613 25.6702C102.613 25.7496 101.89 25.9184 100.772 26.36C97.8398 27.5191 95.3467 29.5637 93.6435 32.206C93.3287 32.7777 92.984 33.3326 92.6109 33.8685C92.7437 33.2171 92.9975 32.5961 93.3592 32.0373C94.1564 30.6372 95.2047 29.3942 96.4521 28.3699C97.6994 27.3463 99.1271 26.5621 100.662 26.0573C101.284 25.8132 101.945 25.6821 102.613 25.6702Z" fill="#455A64"/>
<path d="M129.486 26.5386C129.601 26.5386 129.297 28.5237 127.725 30.3847C126.154 32.2457 124.233 32.8909 124.233 32.7767C124.233 32.6626 125.914 31.8537 127.381 30.0869C128.848 28.3202 129.346 26.494 129.486 26.5386Z" fill="#455A64"/>
<path d="M55.6608 149.925L59.7814 147.409C60.4806 146.986 61.2827 146.761 62.101 146.759H70.0827L78.3237 154.228L80.7831 155.448L79.8652 168.351L74.5075 167.696C74.5075 167.696 63.0688 168.193 61.9613 167.453C60.8539 166.714 59.2526 164.391 59.2526 164.391C59.2526 164.391 52.982 162.371 52.3684 161.825C50.0388 159.746 50.9766 159.25 50.9766 159.25L49.9041 158.754C49.7045 159.131 48.1431 156.6 48.3077 155.329C48.4025 154.59 48.183 154.595 48.183 154.595C47.6632 154.298 47.2151 153.891 46.8703 153.403C46.5255 152.915 46.2925 152.358 46.1876 151.771C46.0729 151.017 49.1807 151.558 49.1807 151.558L56.9279 151.662L55.6608 149.925Z" fill="#C6987E"/>
<path d="M62.5499 151.488L55.2617 141.618C54.998 141.258 54.6526 140.966 54.2538 140.765C53.855 140.564 53.414 140.46 52.967 140.461H38.5601C38.2823 140.461 38.0158 140.571 37.8193 140.766C37.6229 140.962 37.5125 141.227 37.5125 141.503C37.5149 141.753 37.6049 141.993 37.7669 142.183L46.0229 151.712L62.5499 151.488Z" fill="#455A64"/>
<path d="M59.0181 155.533C58.4878 155.675 57.941 155.746 57.3918 155.746C54.7522 155.899 52.1042 155.672 49.5299 155.071C48.9884 154.974 48.4619 154.807 47.9635 154.575C48.5081 154.612 49.0486 154.693 49.5798 154.818C50.5775 154.992 51.9394 155.205 53.4659 155.315C54.9924 155.424 56.3792 155.473 57.3819 155.468C57.9281 155.442 58.4757 155.463 59.0181 155.533Z" fill="#7F6358"/>
<path d="M61.0883 159.855C60.5578 159.996 60.0111 160.068 59.4621 160.069C58.1439 160.147 56.8217 160.129 55.5062 160.014C54.1891 159.902 52.8819 159.695 51.5952 159.394C51.0551 159.297 50.5301 159.13 50.0338 158.897C50.5783 158.935 51.1188 159.016 51.65 159.141C52.6477 159.314 54.0096 159.528 55.5361 159.637C57.0626 159.746 58.4494 159.796 59.4521 159.791C59.9983 159.764 60.5459 159.786 61.0883 159.855Z" fill="#7F6358"/>
<path d="M46.2076 151.771C46.2678 152.077 46.3478 152.379 46.4471 152.674C46.7745 153.491 47.4076 154.149 48.213 154.51L48.2679 154.535V154.595C48.2504 155.468 48.4437 156.332 48.8316 157.116C49.3108 158.079 50.1038 158.852 51.0814 159.309L51.2161 159.369L51.1512 159.493C51.0765 159.648 51.0377 159.817 51.0377 159.989C51.0377 160.161 51.0765 160.331 51.1512 160.486C51.3211 160.82 51.563 161.113 51.8596 161.344C52.519 161.849 53.2439 162.263 54.0146 162.575C55.7225 163.28 57.4906 163.831 59.2975 164.222H59.3673L59.4023 164.282C59.8647 164.949 60.4094 165.556 61.0235 166.088C61.6143 166.671 62.341 167.099 63.1387 167.334C63.7535 167.484 64.3867 167.548 65.0193 167.523L66.915 167.572L70.5716 167.671L77.1564 167.855H77.1814L85.0283 169.448L87.2083 169.915L87.777 170.049C87.845 170.056 87.9109 170.077 87.9716 170.108C87.9053 170.116 87.8383 170.116 87.772 170.108L87.1934 170.019L84.9934 169.632L77.1215 168.143H77.1465L70.5616 168.004L66.91 167.92L65.0094 167.875C64.3477 167.895 63.6864 167.825 63.0439 167.666C62.1943 167.418 61.4196 166.965 60.7891 166.346C60.1533 165.793 59.5916 165.161 59.1179 164.466L59.2227 164.54C57.3965 164.141 55.6113 163.574 53.8899 162.848C53.0945 162.52 52.3477 162.086 51.67 161.557C51.3371 161.29 51.0693 160.95 50.8868 160.565C50.8003 160.374 50.7581 160.166 50.7633 159.956C50.7685 159.747 50.8209 159.541 50.9168 159.354L50.9866 159.538C49.9571 159.046 49.1267 158.219 48.632 157.195C48.2422 156.375 48.059 155.472 48.0983 154.565L48.1531 154.649C47.7361 154.456 47.3629 154.18 47.0559 153.839C46.749 153.498 46.5147 153.098 46.3672 152.664C46.2593 152.379 46.2052 152.076 46.2076 151.771Z" fill="#7F6358"/>
<path d="M63.4479 163.652C63.4878 163.731 62.5201 164.222 61.2081 164.396C59.8961 164.57 58.8385 164.351 58.8535 164.267C58.8685 164.183 59.9061 164.222 61.1632 164.049C62.4203 163.875 63.413 163.557 63.4479 163.652Z" fill="#7F6358"/>
<path d="M67.1494 151.473C67.1494 151.568 65.568 151.702 63.6026 151.776C61.6371 151.851 60.0457 151.826 60.0457 151.726C60.0457 151.627 61.6271 151.498 63.5926 151.424C65.5581 151.349 67.1494 151.374 67.1494 151.473Z" fill="#7F6358"/>
<path d="M80.6284 154.391C80.6284 154.391 80.4788 154.535 80.1296 154.59C79.6286 154.644 79.1238 154.532 78.6929 154.272C78.0904 153.881 77.5274 153.432 77.0118 152.932L75.0463 151.22L71.4545 148.148C70.9331 147.751 70.4458 147.311 69.9979 146.833C70.5703 147.156 71.11 147.533 71.6092 147.96C72.572 148.694 73.879 149.746 75.2807 150.937C75.9791 151.543 76.6376 152.128 77.2263 152.669C77.7178 153.169 78.2501 153.627 78.8176 154.039C79.2017 154.295 79.6526 154.433 80.1146 154.436C80.4439 154.441 80.6185 154.362 80.6284 154.391Z" fill="#7F6358"/>
<path d="M61.0135 151.702C60.9413 151.638 60.8761 151.566 60.819 151.488L60.3201 150.853L58.4245 148.476L55.6908 144.933L54.0845 142.838C53.8012 142.495 53.4284 142.236 53.007 142.089C52.7913 142.014 52.5664 141.969 52.3385 141.955C52.114 141.955 51.8396 141.955 51.6201 141.955L41.6431 141.915L38.615 141.876H37.7919C37.6949 141.878 37.5978 141.87 37.5026 141.851C37.5973 141.828 37.6948 141.82 37.7919 141.826L38.615 141.801L41.6431 141.756L51.6201 141.722C51.8696 141.722 52.119 141.722 52.3584 141.722C52.6084 141.739 52.8551 141.789 53.0918 141.871C53.5565 142.036 53.967 142.324 54.279 142.704L55.8803 144.813L58.5692 148.392C59.3125 149.384 59.9211 150.213 60.365 150.818C60.5596 151.086 60.7142 151.315 60.8639 151.483C60.9228 151.55 60.973 151.623 61.0135 151.702Z" fill="#263238"/>
<path d="M45.3446 143.354C45.4371 143.284 45.5487 143.241 45.6652 143.233C45.7818 143.225 45.8982 143.251 45.9998 143.309C46.1014 143.366 46.1837 143.452 46.2365 143.556C46.2893 143.659 46.3101 143.776 46.2963 143.892C46.2826 144.007 46.2349 144.116 46.1593 144.205C46.0837 144.293 45.9835 144.358 45.8712 144.39C45.7589 144.422 45.6396 144.42 45.5282 144.386C45.4167 144.351 45.3182 144.284 45.2448 144.193C45.152 144.072 45.1087 143.92 45.1234 143.768C45.1382 143.616 45.2101 143.476 45.3246 143.374" fill="#F5F5F5"/>
<path d="M122.567 81.3114L142.86 93.1771L146.592 158.684L151.441 195.745H78.5083C78.5083 195.745 79.3115 150.64 79.5609 136.997C79.7405 127.434 79.4811 108.899 82.7336 97.4996C84.1204 92.6411 97.6992 86.3634 97.6992 86.3634C105.137 92.8992 113.453 90.9489 122.567 81.3114Z" fill="#FF725E"/>
<path d="M149.296 179.368C149.296 179.438 133.552 179.497 114.126 179.497C94.7011 179.497 78.9573 179.438 78.9573 179.368C78.9573 179.299 94.7011 179.239 114.126 179.239C133.552 179.239 149.296 179.294 149.296 179.368Z" fill="white"/>
<g opacity="0.3">
<path opacity="0.3" d="M78.9124 168.222C84.5594 172.932 93.3342 175.483 100.558 176.937C107.781 178.391 115.159 178.922 122.402 180.242C127.466 181.18 132.779 182.505 137.662 180.867C140.094 180.008 142.226 178.473 143.805 176.443C145.385 174.413 146.345 171.975 146.572 169.418C146.608 169.247 146.607 169.07 146.569 168.899C146.532 168.727 146.458 168.566 146.352 168.426C146.207 168.316 146.04 168.237 145.862 168.194C145.684 168.151 145.5 168.146 145.32 168.178C123.515 169.14 100.423 169.006 78.9124 168.207" fill="black"/>
</g>
<path d="M75.0512 154.645H126.014L126.263 127.931L149.779 124.913C149.779 124.913 149.884 152.044 149.884 160.942C149.884 171.622 140.606 179.046 132.813 177.904C125.021 176.763 75.0512 167.483 75.0512 167.483V154.645Z" fill="#C6987E"/>
<path d="M151.411 130.462L124.004 133.295V101.306C124.004 101.306 126.698 90.4973 136.166 90.9489C145.634 91.4005 151.211 101.589 151.411 110.933C151.61 120.278 151.411 130.462 151.411 130.462Z" fill="#FF725E"/>
<path d="M85.6319 93.7478C85.6319 93.7478 76.8471 99.4995 74.4925 105.847C72.0232 112.502 68.5562 134.059 68.5562 134.059H80.8729L85.6319 93.7478Z" fill="#FF725E"/>
<path d="M123.774 102.576C123.807 102.964 123.807 103.355 123.774 103.743C123.749 104.552 123.714 105.623 123.674 106.924C123.595 109.604 123.51 113.311 123.52 117.405C123.53 121.499 123.64 125.206 123.744 127.886C123.794 129.186 123.834 130.258 123.864 131.067C123.894 131.455 123.894 131.845 123.864 132.233C123.785 131.851 123.739 131.462 123.724 131.072C123.654 130.328 123.57 129.241 123.49 127.901C123.325 125.216 123.181 121.509 123.166 117.405C123.151 113.301 123.275 109.594 123.425 106.909C123.495 105.569 123.57 104.487 123.635 103.738C123.651 103.348 123.698 102.959 123.774 102.576Z" fill="#263238"/>
<path d="M137.572 91.465C137.572 91.5345 136.655 91.2913 135.168 91.3161C133.232 91.336 131.339 91.8784 129.689 92.8852C128.039 93.8921 126.695 95.3257 125.8 97.0331C125.106 98.3383 124.912 99.2514 124.847 99.2365C124.851 99.0172 124.888 98.7998 124.956 98.5914C125.107 98.0159 125.316 97.4572 125.58 96.9239C126.441 95.1325 127.804 93.6267 129.505 92.5878C131.206 91.5489 133.173 91.0211 135.168 91.068C135.767 91.0784 136.363 91.1466 136.949 91.2715C137.166 91.3036 137.376 91.3689 137.572 91.465Z" fill="#263238"/>
<path d="M79.9899 108.814C80.0132 108.934 80.0249 109.055 80.0248 109.177C80.0248 109.455 80.0248 109.797 80.0547 110.214C80.0547 111.112 80.0847 112.412 80.0847 114.02C80.0847 117.236 80.0348 121.678 79.94 126.581C79.8452 131.484 79.7504 135.876 79.6856 139.136C79.6557 140.704 79.6307 141.995 79.6108 142.943C79.6108 143.359 79.5808 143.702 79.5709 143.98C79.5772 144.1 79.5654 144.22 79.5359 144.337C79.5099 144.22 79.4981 144.1 79.501 143.98C79.501 143.702 79.501 143.359 79.4711 142.943C79.4711 142.044 79.4412 140.744 79.4412 139.136C79.4412 135.92 79.4911 131.479 79.5858 126.571C79.6806 121.663 79.7704 117.276 79.8353 114.02C79.8702 112.447 79.8951 111.162 79.9151 110.214C79.9151 109.797 79.945 109.455 79.95 109.177C79.9463 109.055 79.9597 108.933 79.9899 108.814Z" fill="#263238"/>
<path d="M79.6756 119.529C78.2888 119.646 76.896 119.677 75.5052 119.623C74.1129 119.653 72.7201 119.597 71.3348 119.454C72.7217 119.338 74.1144 119.306 75.5052 119.36C76.8975 119.327 78.2906 119.383 79.6756 119.529Z" fill="white"/>
<path d="M123.305 112.144C123.305 112.214 113.827 112.273 102.179 112.273C90.5307 112.273 81.0425 112.214 81.0425 112.144C81.0425 112.075 90.5207 112.015 102.179 112.015C113.837 112.015 123.305 112.06 123.305 112.144Z" fill="white"/>
<path d="M150.817 107.767C150.724 107.778 150.631 107.778 150.538 107.767L149.75 107.703L146.856 107.455C144.407 107.251 141.025 107.028 137.283 106.924C133.542 106.819 130.15 106.864 127.695 106.924L124.787 107.013H123.999C123.906 107.026 123.812 107.026 123.719 107.013C123.809 106.99 123.901 106.976 123.994 106.973L124.782 106.904C125.47 106.849 126.458 106.79 127.69 106.73C130.145 106.616 133.537 106.551 137.288 106.651C141.04 106.75 144.427 107.008 146.871 107.256C148.093 107.38 149.081 107.494 149.759 107.589L150.543 107.698C150.637 107.709 150.729 107.732 150.817 107.767Z" fill="white"/>
<path d="M151.076 126.72C151.076 126.794 144.886 126.72 137.258 126.541C129.631 126.362 123.435 126.169 123.44 126.099C123.445 126.03 129.626 126.099 137.263 126.283C144.901 126.467 151.076 126.65 151.076 126.72Z" fill="white"/>
<path d="M126.179 96.2094C126.179 96.2838 116.411 96.3384 104.364 96.3384C92.3166 96.3384 82.549 96.2838 82.549 96.2094C82.549 96.1349 92.3166 96.0803 104.364 96.0803C116.411 96.0803 126.179 96.1399 126.179 96.2094Z" fill="white"/>
<path d="M123.445 132.268C123.445 132.337 113.648 132.397 101.56 132.397C89.4731 132.397 79.6756 132.337 79.6756 132.268C79.6756 132.198 89.4731 132.139 101.56 132.139C113.648 132.139 123.445 132.193 123.445 132.268Z" fill="white"/>
<path d="M126.588 148.188C126.588 148.258 115.932 148.317 102.792 148.317C89.6527 148.317 78.9922 148.258 78.9922 148.188C78.9922 148.119 89.6477 148.059 102.792 148.059C115.937 148.059 126.588 148.114 126.588 148.188Z" fill="white"/>
<path d="M150.677 194.093C150.677 194.162 134.609 194.222 114.795 194.222C94.9805 194.222 78.9124 194.162 78.9124 194.093C78.9124 194.023 94.9755 193.964 114.795 193.964C134.614 193.964 150.677 194.028 150.677 194.093Z" fill="white"/>
<g opacity="0.3">
<path opacity="0.3" d="M123.669 133.598C123.35 127.276 123.58 121.36 123.255 115.043C121.091 124.314 120.07 133.813 120.212 143.33C120.247 145.588 120.357 147.885 121.09 150.024C121.824 152.163 123.854 153.994 125.929 154.908L126.129 133.325C125.196 133.394 124.607 133.553 123.669 133.598Z" fill="black"/>
</g>
</svg>
