<svg width="218" height="218" viewBox="0 0 218 218" fill="none" xmlns="http://www.w3.org/2000/svg">
<ellipse cx="109.403" cy="108.795" rx="108.597" ry="108.795" fill="#EEC39B"/>
<path d="M92.0263 106.261V182.18" stroke="#2A272D" stroke-width="1.9882" stroke-miterlimit="10"/>
<path d="M37.2107 106.261V182.18" stroke="#2A272D" stroke-width="1.9882" stroke-miterlimit="10"/>
<path d="M124.437 129.707C124.437 129.707 113.918 127.318 112.335 134.178C110.967 140.065 125.274 139.839 125.274 139.839L156.731 140.029C156.731 140.029 168.581 141.399 174.439 127.706C180.296 114.013 185.938 78.1539 185.938 78.1539C185.938 78.1539 186.784 73.2231 182.681 72.5019C177.858 71.6546 176.913 82.0932 176.913 82.0932C176.913 82.0932 169.625 126.354 159.043 128.517C157.415 128.851 156.119 130.086 154.454 130.068L124.437 129.707Z" fill="#FFEEE3"/>
<path d="M96.4802 93.9561L86.5465 93.271C85.7366 93.2169 84.9628 93.5865 84.5039 94.2446L78.9522 102.655L83.6761 102.88L86.3395 98.7788C86.3395 98.7788 94.0148 100.699 96.8491 98.7788L96.4802 93.9561Z" fill="#AC856E"/>
<path d="M136.494 66.7057L123.222 91.4141L95.6434 92.2975V101.384L124.77 102.664C128.621 102.835 132.274 100.987 134.434 97.7873L147.688 73.9442L136.494 66.7057Z" fill="#95EF75"/>
<path d="M95.6434 92.2884V101.375L98.7207 101.51V92.1893L95.6434 92.2884Z" fill="#F7E5DA"/>
<path d="M110.094 165.53L108.538 176.456L100.691 175.969L101.816 164.692L110.094 165.53Z" fill="#C6987E"/>
<path d="M110.292 175.347C110.121 174.833 109.509 174.626 109.068 174.941C108.205 175.554 106.684 176.285 104.497 176.005C102.221 175.717 101.42 174.5 101.141 173.643C100.997 173.193 100.511 172.949 100.07 173.121L85.9256 178.673C85.0618 179.007 84.378 179.674 84.0091 180.521C83.6672 181.315 84.234 182.207 85.1068 182.225L109.059 182.577C110.004 182.595 110.76 181.81 110.724 180.864L110.553 176.231C110.553 176.149 110.535 176.077 110.508 176.005L110.292 175.347Z" fill="#1F252A"/>
<path d="M133.93 64.5873L131.68 68.202C131.536 68.5446 131.473 69.3739 132.094 69.6804L132.967 70.3114L134.839 67.4448L133.93 64.5873Z" fill="#FFEEE3"/>
<path d="M138.123 68.4093L138.834 68.0668C141.173 66.9219 142.145 64.0914 141.002 61.7477L133.408 46.1708L124.977 50.2994L133.75 67.7422C134.686 69.6803 136.188 69.3558 138.123 68.4093Z" fill="#C6987E"/>
<path d="M118.687 53.3733C121.162 58.4394 127.271 60.5488 132.328 58.0698C137.385 55.5909 139.491 49.4791 137.016 44.404C134.542 39.3379 128.441 37.2286 123.375 39.7075C118.309 42.1865 116.213 48.3073 118.687 53.3733Z" fill="#C6987E"/>
<path d="M130.996 63.4514C133.399 62.2795 134.398 59.3678 133.219 56.961L128.936 48.172L118.606 53.229L122.097 60.3955C123.717 63.6947 127.703 65.0739 130.996 63.4514Z" fill="#C6987E"/>
<path d="M119.947 55.2934L119.389 59.2237C119.344 59.8457 120.001 60.2513 120.577 59.9719L123.114 59.2778L119.947 55.2934Z" fill="#C6987E"/>
<path d="M128.891 53.3283C128.891 53.3283 125.319 53.5626 124.734 48.0368C124.734 48.0368 118.525 52.0032 115.997 50.4256C115.997 50.4256 115.223 34.7947 128.117 35.3446C141.011 35.8944 142.019 49.8397 142.019 49.8397L134.785 56.3841L128.891 53.3283Z" fill="#1C2226"/>
<path d="M128.378 53.5536C129.053 54.9508 130.736 55.5277 132.13 54.8426C133.516 54.1575 134.101 52.4809 133.417 51.0836C132.742 49.6864 131.06 49.1095 129.665 49.7946C128.279 50.4797 127.703 52.1563 128.378 53.5536Z" fill="#C6987E"/>
<path d="M136.251 51.4803L138.168 55.9604C138.168 55.9604 133.957 59.3408 131.833 54.9869L134.893 54.1215L136.251 51.4803Z" fill="#1C2226"/>
<path d="M124.734 48.0368C124.734 48.0368 116.321 54.5452 113.001 49.0915C110.355 44.7376 113.297 41.9161 117.545 42.6192C119.38 42.9257 120.289 41.6817 121.729 40.6991L124.734 48.0368Z" fill="#1C2226"/>
<path d="M132.292 72.4928C132.292 72.4928 132.481 68.5175 133.741 67.1383C135.001 65.7591 141.713 61.955 141.713 61.955C141.713 61.955 151.368 64.7585 157.298 75.8101C161.914 84.4188 166.26 106.207 166.26 106.207L138.402 110.254C135.999 93.9741 131.5 86.5553 132.292 72.4928Z" fill="#ADFF86"/>
<path d="M141.245 61.1888L142.406 61.7116C142.82 61.9009 142.91 62.4598 142.568 62.7663L135.208 69.3288C134.911 69.5992 134.443 69.5181 134.236 69.1756L133.408 67.7423C133.255 67.4718 133.318 67.1293 133.561 66.931L140.597 61.288C140.777 61.1257 141.029 61.0897 141.245 61.1888Z" fill="#FFEEE3"/>
<path d="M99.5486 95.4343L89.6148 94.7492C88.805 94.6951 88.0312 95.0647 87.5723 95.7228L82.4794 102.979L87.2394 103.592L89.4079 100.248C89.4079 100.248 97.0831 102.168 99.9175 100.248L99.5486 95.4343Z" fill="#C6987E"/>
<path d="M142.136 68.5445L127.145 93.8839L98.7118 94.6682V102.862L129.395 104.205C132.274 104.332 135.019 102.952 136.638 100.555L153.329 75.783L142.136 68.5445Z" fill="#9EFF86"/>
<path d="M98.7117 94.6682V102.853L101.789 102.988V94.6682H98.7117Z" fill="#FFEEE3"/>
<path d="M166.26 106.207L111.462 114.166C107.269 114.779 104.03 118.178 103.625 122.406L99.5396 169.163L111.777 169.956L117.662 129.428L152.07 130.32C161.41 130.32 168.572 122.009 167.213 112.751L166.26 106.207Z" fill="#54585A"/>
<path d="M69.1354 102.664H98.0369V104.539H69.1354V102.664Z" fill="#2A272D"/>
<path d="M69.1264 104.539L59.7775 77.1803L61.7391 76.7116L70.908 102.989L69.1264 104.539Z" fill="#2A272D"/>
<path d="M131.455 63.199C131.455 63.199 134.056 61.6575 134.056 58.4124C134.056 58.4124 135.675 61.928 132.373 65.0199L131.455 63.199Z" fill="#AC856E"/>
<path d="M174.115 183.947C173.683 183.947 173.287 183.649 173.17 183.208L158.863 126.696C157.675 122.018 153.491 118.746 148.669 118.746C143.99 118.746 139.833 121.892 138.555 126.399C133.552 144.058 121.909 182.586 121.792 182.973C121.639 183.487 121.09 183.784 120.577 183.622C120.064 183.469 119.767 182.919 119.929 182.405C120.046 182.018 131.689 143.508 136.683 125.867C138.195 120.521 143.126 116.79 148.678 116.79C154.391 116.79 159.358 120.666 160.762 126.21L175.069 182.73C175.204 183.253 174.889 183.784 174.367 183.92C174.277 183.938 174.196 183.947 174.115 183.947Z" fill="#1F252A"/>
<path d="M136.629 100.546L145.222 87.8083" stroke="#8DEF75" stroke-width="0.7847" stroke-miterlimit="10" stroke-linecap="round" stroke-linejoin="round"/>
<path d="M27.7449 104.539H102.617V107.919H27.7449V104.539Z" fill="#FFEEE3"/>
<path d="M92.0263 116.132H37.2107" stroke="#2A272D" stroke-width="1.9882" stroke-miterlimit="10"/>
<path d="M131.59 85.7441L139.824 72.4479" stroke="#95EF75" stroke-width="0.7847" stroke-miterlimit="10" stroke-linecap="round" stroke-linejoin="round"/>
</svg>
