<svg width="219" height="220" viewBox="0 0 219 220" fill="none" xmlns="http://www.w3.org/2000/svg">
<ellipse cx="109.255" cy="109.572" rx="109.255" ry="109.572" fill="#9BDFEE"/>
<path d="M49.0482 137.147H84.424V193.441H49.0482V137.147Z" fill="#B2B2B2"/>
<path d="M84.2858 137.147H119.661V193.441H84.2858V137.147Z" fill="#D1D1D1"/>
<path d="M102.82 68.8802L104.328 99.1402L111.419 121.33H98.6525L92.0217 102.211L89.9496 80.4831L102.82 68.8802Z" fill="#F7EBE7"/>
<path d="M103.177 174.646L100.61 186.641L109.232 187.669L111.684 175.858L103.177 174.646Z" fill="#C6987E"/>
<path d="M100.092 185.556C100.31 184.91 101.001 184.679 101.473 185.094C102.394 185.914 104.052 186.918 106.504 186.676C109.048 186.422 110.003 184.921 110.372 183.836C110.567 183.27 111.108 182.981 111.592 183.224L127.029 191.005C127.962 191.479 128.698 192.356 129.067 193.453C129.412 194.481 128.721 195.589 127.754 195.566L101.082 194.827C100.034 194.804 99.2282 193.765 99.3203 192.564L99.7578 186.676C99.7693 186.584 99.7808 186.48 99.8153 186.387L100.092 185.556Z" fill="#1F252A"/>
<path d="M103.326 116.643H123.345C123.345 116.643 135.536 115.962 136.262 125.994C136.987 136.027 118.384 164.728 115.471 180.061L98.7332 178.675L110.786 136.985L80.8093 137.159C78.5875 137.17 76.3773 136.847 74.2821 136.119C68.4457 134.088 59.5355 131.178 64.3935 115.061L103.326 116.643Z" fill="#092330"/>
<path d="M87.8775 174.692L83.8023 189.031L92.4247 190.059L96.3848 175.904L87.8775 174.692Z" fill="#C6987E"/>
<path d="M83.2842 187.946C83.503 187.299 84.1936 187.069 84.6656 187.484C85.5865 188.304 87.2442 189.308 89.6962 189.066C92.2403 188.812 93.1959 187.311 93.5643 186.226C93.76 185.66 94.301 185.371 94.7845 185.614L110.222 193.395C111.154 193.869 111.891 194.746 112.259 195.843C112.605 196.87 111.914 197.979 110.947 197.956L83.8137 197.217C82.7662 197.194 81.9604 196.155 82.0525 194.954L82.9619 189.066C82.9734 188.973 82.9849 188.87 83.0194 188.777L83.2842 187.946Z" fill="#1F252A"/>
<path d="M79.4048 56.9886C78.9559 57.4273 58.8678 62.5649 58.8678 62.5649L63.1617 74.0062L85.1262 72.3437L79.4048 56.9886Z" fill="#F7EBE7"/>
<path d="M87.6933 59.7479C87.6933 59.7479 100.782 64.5392 102.82 68.8802C102.118 75.0107 99.9648 80.9103 96.4192 85.9555C92.0678 92.1438 86.6917 102.777 87.6817 116.643H49.8425C49.8425 116.643 51.8801 77.6314 63.0811 62.6573L87.6933 59.7479Z" fill="#F7EBE7"/>
<path d="M83.3994 65.9363C79.6811 65.1743 77.2867 61.5376 78.0464 57.8085L80.2683 46.8983L93.7255 49.6576L91.5037 60.5678C90.7439 64.2969 87.1177 66.6983 83.3994 65.9363Z" fill="#C6987E"/>
<path d="M79.3472 50.7081C79.3472 50.7081 80.7632 59.5518 87.6242 60.0828C93.6334 60.5446 93.0578 51.828 93.0578 51.828L79.3472 50.7081Z" fill="#AC856E"/>
<path d="M87.0832 55.2338L85.8975 54.9567C79.9459 53.5713 76.2391 47.614 77.6205 41.6567L79.1861 34.8565C80.5675 28.8877 86.5076 25.1701 92.4477 26.5555L93.6334 26.8326C99.585 28.2181 103.292 34.1754 101.91 40.1327L100.345 46.9328C98.9633 52.9017 93.0233 56.6192 87.0832 55.2338Z" fill="#C6987E"/>
<path d="M81.3388 41.0563C81.3388 41.0563 86.5306 39.3361 85.6558 31.7278C85.6558 31.7278 95.1203 43.9331 104.675 34.951C104.675 34.951 103.833 33.8405 102.072 30.9081C98.8597 25.5626 89.6273 18.1968 82.2367 26.7172C82.2367 26.7172 73.246 25.3202 75.8246 39.2091L81.3388 41.0563Z" fill="#1C2226"/>
<path d="M81.3389 41.0562C80.8439 43.1806 78.7257 44.5083 76.6075 44.0234C74.4778 43.5269 73.1655 41.4026 73.649 39.2783C74.144 37.154 76.2622 35.8263 78.3803 36.3112C80.51 36.8076 81.8339 38.9319 81.3389 41.0562Z" fill="#C6987E"/>
<path d="M87.9004 65.509L82.3403 65.6129L86.2313 73.6946L90.433 65.9477L87.9004 65.509Z" fill="#0C2C40"/>
<path d="M77.5744 57.3466L84.7347 65.7285L80.0725 71.097L71.4962 59.2747C71.4962 59.2747 73.695 55.7303 77.5744 57.3466Z" fill="#FFF7F3"/>
<path d="M87.9005 65.509L92.0217 70.1733L94.9227 62.8998C94.9227 62.8998 94.1629 59.6325 91.7915 60.256L87.9005 65.509Z" fill="#FFF7F3"/>
<path d="M86.381 71.0854C86.381 71.0854 91.757 85.1474 90.4216 105.098L85.1262 109.947L78.9444 103.978L85.6097 70.1733L86.381 71.0854Z" fill="#0C2C40"/>
<path d="M76.3312 104.474L87.843 108.272L88.6028 115.05L73.3382 110.478L76.3312 104.474Z" fill="#C6987E"/>
<path d="M86.1277 112.752C86.1277 116.712 89.328 119.933 93.2881 119.933C97.2366 119.933 100.448 116.724 100.448 112.752C100.448 108.792 97.2481 105.571 93.2881 105.571C89.3395 105.571 86.1277 108.78 86.1277 112.752Z" fill="#C6987E"/>
<path d="M87.6933 116.643H107.701C107.701 116.643 119.892 115.962 120.617 125.994C121.342 136.027 101.369 166.576 98.4568 181.896L81.7186 180.511L95.1414 136.974L65.1647 137.147C62.9429 137.159 60.7327 136.835 58.6375 136.108C52.8011 134.076 43.891 131.167 48.749 115.049L87.6933 116.643Z" fill="#0C2C40"/>
<path d="M148.05 81.1643H113.457C112.317 81.1643 111.338 81.9609 111.097 83.0808L104.581 113.722C104.259 115.223 105.41 116.643 106.941 116.643H142.109C143.261 116.643 144.251 115.823 144.469 114.692L150.409 84.0506C150.709 82.5497 149.569 81.1643 148.05 81.1643Z" fill="#B2B2B2"/>
<path d="M150.041 81.1643H115.46C114.32 81.1643 113.342 81.9609 113.1 83.0808L106.584 113.722C106.262 115.223 107.401 116.643 108.944 116.643H144.101C145.252 116.643 146.242 115.823 146.461 114.692L152.401 84.0506C152.7 82.5497 151.561 81.1643 150.041 81.1643Z" fill="#D1D1D1"/>
<path d="M105.525 114.022H81.8913C81.1661 114.022 80.5905 114.611 80.5905 115.327C80.5905 116.054 81.1776 116.631 81.8913 116.631H105.985L105.525 114.022Z" fill="#B2B2B2"/>
<path d="M128.629 98.1012C128.629 100.191 130.31 101.876 132.394 101.876C134.477 101.876 136.158 100.179 136.158 98.1012C136.158 96.0115 134.466 94.3259 132.394 94.3259C130.31 94.3259 128.629 96.0115 128.629 98.1012Z" fill="white"/>
<path d="M67.1217 73.4637L54.4818 93.9334L84.7347 104.763L80.5905 113.745C80.5905 113.745 54.7235 110.836 42.2217 101.172C41.0705 100.283 40.495 98.8401 40.6907 97.3969C41.2778 92.7788 43.7874 81.5684 54.4818 65.6361C56.6575 62.3919 60.986 61.4105 64.3589 63.3732C67.87 65.4052 69.1018 69.9078 67.1217 73.4637Z" fill="#F7EBE7"/>
<path d="M76.688 101.876L54.4818 93.9333L65.5907 75.9343" stroke="#EADDD8" stroke-width="0.7599" stroke-miterlimit="10" stroke-linecap="round" stroke-linejoin="round"/>
<path d="M91.7224 95.0995L97.1905 80.6218" stroke="#EADDD8" stroke-width="0.7599" stroke-miterlimit="10" stroke-linecap="round" stroke-linejoin="round"/>
<path d="M76.3312 113.133C76.3312 113.133 59.3398 110.997 50.775 106.079" stroke="#EADDD8" stroke-width="0.7599" stroke-miterlimit="10" stroke-linecap="round" stroke-linejoin="round"/>
</svg>
