<svg width="107" height="106" viewBox="0 0 107 106" fill="none" xmlns="http://www.w3.org/2000/svg">
<path d="M89.5433 37.2024C89.39 38.1159 88.9864 38.969 88.3773 39.6669L87.9997 39.425C88.2651 38.8503 88.463 38.2467 88.5893 37.6264L88.4833 37.4607C88.3475 37.4607 88.1521 37.8384 87.9401 38.5638H87.7447C87.7347 38.4416 87.6985 38.323 87.6387 38.216H87.5492C85.7638 43.1847 84.9622 45.5035 83.3125 49.336C83.0111 50.3298 82.7527 50.8631 82.5275 50.9691C82.5278 50.9929 82.5335 51.0163 82.5441 51.0376C82.5547 51.0588 82.5699 51.0775 82.5887 51.0921C82.6074 51.1067 82.6292 51.117 82.6525 51.122C82.6757 51.1271 82.6998 51.1269 82.7229 51.1215C82.7602 51.6179 82.6446 52.1138 82.3917 52.5425C82.0462 53.811 81.5326 55.0275 80.8646 56.1598L81.0302 57.2032C81.0358 57.2268 81.0356 57.2514 81.0296 57.2749C81.0235 57.2984 81.0118 57.3201 80.9955 57.3381C80.9792 57.356 80.9587 57.3697 80.9359 57.378C80.9131 57.3862 80.8886 57.3888 80.8646 57.3854H80.6824C80.6515 57.0983 80.5411 56.9625 80.3512 56.978H80.2617C80.0193 57.3715 79.8405 57.8008 79.7317 58.25H79.9139C80.0179 58.1994 80.1048 58.1194 80.1637 58.0199C80.2226 57.9203 80.2509 57.8057 80.2452 57.6902L80.6095 57.6603L80.805 57.7365C80.6656 57.9139 80.5856 58.1306 80.5764 58.356L80.6658 58.5216L80.4373 59.0648V59.1543C80.6799 59.1442 80.9192 59.2127 81.1197 59.3497C81.3144 59.3209 81.5001 59.2485 81.6629 59.1377C81.8749 59.1377 82.6302 59.1079 83.9618 59.1079L84.6243 58.8793C85.4425 58.8793 85.5617 58.8793 86.2805 58.833L86.5687 58.8032L86.7211 58.6972V58.7866C87.1752 58.7346 87.6347 58.7547 88.0825 58.8462V58.9357L87.6751 58.9655V59.1311C87.7955 59.1253 87.9112 59.0825 88.0063 59.0085C88.1123 59.0085 88.172 59.0549 88.1885 59.1742C87.9986 59.1978 87.8112 59.2389 87.6287 59.2967L87.4465 59.2371C87.3154 59.2884 87.1786 59.324 87.0391 59.3431L86.7509 59.2835C86.7532 59.303 86.7485 59.3228 86.7376 59.3392C86.7267 59.3556 86.7102 59.3675 86.6913 59.3729C86.6913 59.4789 86.7509 59.5385 86.8569 59.5253L87.2047 59.4955L87.0523 59.4358C87.0523 59.4822 87.0822 59.512 87.1418 59.512L88.639 59.3762L89.275 59.2934C89.2746 59.3035 89.2762 59.3137 89.2799 59.3231C89.2835 59.3326 89.2891 59.3412 89.2963 59.3483C89.3035 59.3555 89.3121 59.3611 89.3215 59.3648C89.331 59.3684 89.3411 59.3701 89.3512 59.3696L89.6228 59.2636L90.1363 59.2172C90.5437 59.1874 90.5305 59.1576 91.3917 59.0218C91.3917 58.9754 91.3917 58.9456 91.4513 58.9456V59.0218C92.0795 58.972 92.6992 58.8452 93.2964 58.6442L93.2202 58.462C92.9921 58.5141 92.7586 58.5397 92.5246 58.5382L91.2692 58.5978V58.5083L91.9648 58.4189H92.2232L92.359 58.3129V58.4023C94.3565 58.3794 96.3435 58.1102 98.2751 57.6007C98.5169 57.6007 98.5037 57.3722 98.6527 56.9382C98.5681 56.9418 98.4842 56.9211 98.4109 56.8786C97.9843 56.9857 97.5483 57.0512 97.1091 57.074C97.0495 57.074 97.0031 57.0277 96.9733 56.9084V56.8322L97.6689 56.862C97.9359 56.8408 98.1944 56.758 98.4242 56.6202C98.5003 56.6666 98.3645 56.7097 98.4242 56.6964H98.5467C98.6229 56.6964 98.6527 56.6368 98.6527 56.5142L98.5765 56.3486C98.2018 56.3489 97.833 56.4422 97.5033 56.6202V56.5308L96.9269 56.5904C96.9269 56.4082 96.8673 56.332 96.7911 56.332L96.4897 56.3618C96.1418 56.3917 95.9762 56.3618 95.8073 56.5142C95.8073 56.4546 95.7775 56.4248 95.7477 56.4248L95.4164 56.4546L95.221 56.5606C95.221 56.501 95.1912 56.4712 95.1613 56.4712L95.0388 56.5772V56.4877L94.575 56.4447H94.469V56.6103L94.7108 56.6699H94.9228C95.002 56.7128 95.0913 56.7334 95.1812 56.7295L95.3767 56.6401V56.7163C94.7789 56.8677 94.1728 56.9839 93.5614 57.0641C93.5088 57.0226 93.4458 56.9962 93.3792 56.9879C93.303 57.0641 93.4687 56.9879 93.4256 56.9879C93.4024 56.9934 93.3784 56.9935 93.3551 56.9885C93.3319 56.9834 93.3101 56.9732 93.2914 56.9585C93.2726 56.9439 93.2574 56.9253 93.2468 56.904C93.2362 56.8827 93.2305 56.8593 93.2302 56.8355L93.6078 56.7892C93.6923 56.8197 93.7786 56.8451 93.8662 56.8653C94.1676 56.713 94.1974 56.6533 94.3498 56.6368V56.4712C93.7016 56.5974 93.0425 56.6585 92.3822 56.6533H92.3225V56.4877C94.0318 56.2757 93.4587 56.3983 94.0318 56.2293C94.0318 56.289 94.0616 56.3188 94.0914 56.3188C94.1555 56.2539 94.242 56.216 94.3332 56.2128H94.4558C95.128 56.2375 95.7997 56.1502 96.4433 55.9544V56.0306L96.6387 55.9412H96.8209C96.8209 55.759 97.0793 55.7457 97.1522 55.7292V55.547C95.0785 55.971 94.5353 55.8484 93.9589 56.0173V55.9412C93.7312 55.9951 93.4968 56.0151 93.2633 56.0008C93.1978 56.0166 93.1395 56.0539 93.0977 56.1068C93.0977 56.0472 93.0678 56.0173 93.0215 56.0173C92.9751 56.0173 92.9751 56.0472 92.8989 56.1234L93.0215 56.0173L91.2228 56.3055C91.2233 56.2954 91.2216 56.2853 91.2179 56.2758C91.2143 56.2664 91.2087 56.2578 91.2015 56.2506C91.1943 56.2434 91.1858 56.2378 91.1763 56.2342C91.1668 56.2305 91.1567 56.2289 91.1466 56.2293C90.5308 56.4115 89.8962 56.5227 89.2552 56.5606C89.172 56.5682 89.0928 56.5992 89.0266 56.65C89.0266 56.6037 88.9968 56.5738 88.9372 56.5738L88.1819 56.6335L87.6817 56.756C87.6817 56.7097 87.6519 56.6798 87.5923 56.6798C87.3549 56.7462 87.1122 56.7917 86.8668 56.8157C86.7443 56.8157 86.9265 56.7858 86.837 56.7395L86.625 56.8223H85.7638C84.4388 56.9879 84.5845 57.0045 84.4388 57.0177L83.9386 56.9879C83.9386 57.0343 83.9386 57.0641 83.8624 57.0773C83.3037 57.0023 83.0166 56.9117 83.0012 56.8057C83.0773 56.2757 83.1966 56.0041 83.3953 55.9743H83.4848L83.3953 56.1565H83.4848C83.667 56.067 83.7432 55.9743 83.7432 55.8848V55.7027H83.561V55.537C83.5449 55.419 83.5609 55.2989 83.6073 55.1892L84.0148 54.5267V54.6923H84.2102V54.5267L84.1042 54.3611C84.1962 54.2603 84.3181 54.1918 84.452 54.1657V54.0762H84.1937V53.8178C84.5257 53.2225 84.7795 52.5867 84.9489 51.9264L85.1311 52.0026C85.2537 52.0026 85.3133 51.9264 85.2967 51.8072H85.1145V51.7409C85.1019 51.6163 85.1224 51.4906 85.1742 51.3765C85.3026 51.2644 85.4035 51.1242 85.469 50.9668C85.5345 50.8094 85.5628 50.639 85.5518 50.4689C85.5639 50.4673 85.5763 50.4685 85.5879 50.4724C85.5995 50.4763 85.61 50.4828 85.6187 50.4915C85.6273 50.5001 85.6338 50.5107 85.6378 50.5223C85.6417 50.5339 85.6429 50.5462 85.6412 50.5583C85.883 50.4225 86.0652 50.0582 86.201 49.4553C86.9145 47.962 87.5211 46.4201 88.0163 44.841C88.7663 43.0862 89.3217 41.2545 89.6725 39.3787H89.4903C89.5032 39.4998 89.4765 39.6218 89.4142 39.7265C89.3225 39.6867 89.2253 39.6611 89.126 39.6503V39.5741C89.1328 39.1117 89.2924 38.6644 89.5798 38.3021H89.6063L89.7587 38.8917H89.9408C89.9408 38.8454 89.9872 38.6201 90.0767 38.1795C90.0767 38.0901 90.0005 38.0437 89.8647 38.0272L89.699 38.1332V37.1659L89.5334 37.1957L89.5433 37.2024ZM87.3637 39.8192H87.4532C87.3173 40.061 87.2113 40.1969 87.1053 40.2134V39.955C87.2002 39.9288 87.2883 39.8825 87.3637 39.8192ZM86.6085 41.6345C86.7907 40.8925 86.9728 40.4685 87.1385 40.3625V40.4519C87.049 41.1475 86.8967 41.4954 86.6847 41.5252L86.7145 41.9624C86.5772 42.1113 86.4964 42.3035 86.4859 42.5057H86.3965L86.3501 41.8995C86.4395 41.8995 86.5323 41.7935 86.5919 41.6113L86.6085 41.6345ZM86.3203 42.6282C86.2964 42.8751 86.2303 43.116 86.1248 43.3404H86.0354V43.082C86.1215 42.7839 86.2275 42.6315 86.3203 42.6183V42.6282ZM81.3515 53.6257L81.441 53.7913C81.5779 53.7759 81.6386 53.7152 81.6232 53.6092V53.5197H81.5337L81.3681 53.6092L81.3515 53.6257ZM83.7432 55.6132V55.6894C83.879 55.6894 84.0148 55.431 84.1373 54.964L83.9552 54.9044C83.857 55.1327 83.7858 55.3717 83.7432 55.6165V55.6132ZM99.0535 56.1432V56.2194L98.9012 56.4016L99.1893 56.2956H99.2125V56.13H99.1529L99.0469 56.2194C99.0469 56.173 99.3782 56.0836 99.1231 56.0372C99.0568 56.0968 99.1794 56.1101 99.0436 56.1267L99.0535 56.1432ZM99.6432 56.6865L100.051 56.6567C100.051 56.5507 99.779 56.5208 99.6862 56.5208H99.6266V56.6865H99.6432ZM92.412 56.8388L92.5345 56.9912C92.5345 56.9448 92.5345 56.915 92.5942 56.915L92.6836 57.0807L92.306 57.0343C92.2563 56.8985 92.3093 56.8388 92.402 56.8223L92.412 56.8388ZM91.1731 56.9747C91.2015 56.9692 91.2307 56.9701 91.2587 56.9775C91.2866 56.9849 91.3125 56.9985 91.3345 57.0173C91.3565 57.036 91.3739 57.0595 91.3855 57.086C91.3972 57.1125 91.4027 57.1412 91.4017 57.1701H90.9644V57.0939C91.0381 57.0703 91.1051 57.0294 91.1598 56.9747H91.1731ZM92.1403 56.9283V57.0177L91.7925 57.0475V56.9581L92.1403 56.9283ZM88.6291 57.2927C88.6291 57.339 88.6589 57.3688 88.7185 57.3688C89.2783 57.2628 89.2187 57.2463 89.4903 57.2165C89.5798 57.2165 89.6262 57.2628 89.6427 57.3688L88.0858 57.5047L88.2382 57.5808V57.4914L87.6486 57.5378V57.4483L88.1786 57.402L88.6622 57.296L88.6291 57.2927ZM90.2323 57.1568V57.233C90.186 57.233 90.3847 57.233 90.292 57.3225C90.0974 57.2877 89.8999 57.2722 89.7023 57.2761V57.1999L90.2323 57.1568ZM90.6265 57.1105V57.1867L90.3383 57.2165V57.1403L90.6265 57.1105ZM80.9441 58.6541V58.9125C80.8547 58.9125 80.7785 58.8661 80.7487 58.7468V58.6707H80.9308L80.9441 58.6541ZM93.8927 58.4255V58.5912L94.1941 58.5613L94.0715 58.4852V58.5746L94.373 58.452C96.4466 58.2235 96.6917 58.3162 96.6586 58.0744V57.9982C95.7447 58.2456 94.8056 58.3878 93.8595 58.4222L93.8927 58.4255ZM97.129 58.1373L97.4304 58.197V58.0313L97.129 57.9717V58.1373ZM88.1852 58.727C88.2747 58.7733 88.0792 58.8164 88.1852 58.8032L89.2452 58.7137V58.8032C89.0503 58.8016 88.858 58.8482 88.6854 58.939C88.687 58.9268 88.6859 58.9145 88.6819 58.9029C88.678 58.8913 88.6715 58.8808 88.6628 58.8721C88.6542 58.8634 88.6436 58.8569 88.632 58.853C88.6204 58.8491 88.6081 58.8479 88.596 58.8495L88.1422 58.8959V58.8065C88.2647 58.8065 88.0825 58.8065 88.172 58.7303L88.1852 58.727ZM93.0877 58.6044L93.1772 58.77C93.525 58.6938 93.3295 58.7104 93.419 58.6342C93.419 58.6938 93.4488 58.7237 93.4786 58.7237H93.7204V58.5415H93.0844V58.6309L93.0877 58.6044ZM87.0954 59.2669H87.0358V59.1013H87.0954V59.2669ZM82.3618 59.8433V59.9327L85.1443 59.7042V59.5385L82.9217 59.7207L82.4314 59.6247L82.3618 59.8433ZM85.4623 59.6777H85.4922V59.512H85.4623V59.6777ZM43.0822 45.0497C41.9699 46.2699 40.9481 47.5697 40.0248 48.9385C39.2232 49.77 38.829 50.2635 38.8753 50.4358C38.6633 50.5716 38.5739 50.7074 38.6037 50.8598C38.5906 50.8643 38.5767 50.8659 38.563 50.8644C38.5492 50.8629 38.536 50.8583 38.5242 50.851C38.5125 50.8437 38.5025 50.8338 38.4951 50.8222C38.4876 50.8105 38.4829 50.7973 38.4812 50.7836C38.3129 51.0569 38.0907 51.2929 37.8281 51.4775C37.5656 51.662 37.2682 51.7911 36.9541 51.8568L36.2419 52.0225C36.1525 52.0225 36.1061 52.1119 36.1061 52.2345V52.3239L36.3777 52.2643V52.3405L35.7715 52.569L34.6983 52.8108L34.1385 52.8407C34.0623 52.9168 34.5757 52.8407 34.3803 52.887L33.6847 53.0527C33.2607 53.1587 33.0222 53.1123 32.989 52.9467H32.9128C32.9592 53.1123 32.9128 53.2183 32.7903 53.2481L32.9261 53.2183L32.8665 52.9599L31.5945 53.2613L31.7303 53.321C31.7303 53.2613 31.6541 53.2448 31.5348 53.2746L31.3692 53.4104L31.1738 53.364C31.0707 53.4329 30.9594 53.4885 30.8425 53.5297L30.6471 53.4833C30.1171 53.7847 30.5113 53.7847 30.4815 53.7847L30.5278 53.9503L30.8293 53.8742L31.2997 53.8443L31.2533 54.0398C29.5275 54.4936 30.7829 54.2352 30.3158 54.3412H30.2264L30.2728 54.5068L30.5444 54.4472V54.5367C30.326 54.5591 30.1171 54.6379 29.9382 54.7652V54.6758C29.3824 54.858 28.9032 55.2206 28.5768 55.706C28.653 56.0372 27.6692 56.448 32.2967 55.3747C32.628 55.3747 32.7969 55.3747 32.84 55.3449C32.84 55.2853 32.84 55.2555 32.9162 55.2389C33.4296 55.1793 33.1878 55.2687 33.5058 55.1925L34.4995 54.964L34.2875 55.0865C34.2875 55.0402 34.2875 55.0103 34.3472 54.9971C34.4713 55.0269 34.6007 55.0269 34.7248 54.9971L34.7844 55.2555L30.8757 61.526L29.9813 62.6059L29.5573 64.0435H29.6335L30.0575 63.8613L29.9217 64.4212L29.968 64.5868L30.0906 64.7392C30.031 64.7392 30.0144 64.7855 30.031 64.8452V64.9346L30.2132 64.8882C30.4715 64.6597 30.5775 64.451 30.5444 64.2688C30.7283 64.308 30.9164 64.3236 31.1042 64.3152V64.4046C30.9386 64.451 30.848 64.5868 30.8326 64.812V64.9015H30.922C32.3597 63.3446 35.8543 58.0015 38.6667 54.371C38.5761 53.9779 40.0435 53.4336 43.069 52.738H43.1584C43.1446 53.9208 42.9086 55.0906 42.4628 56.1863C42.2326 56.7688 42.0553 57.3708 41.9328 57.985C41.6326 58.7539 41.4041 59.549 41.2504 60.36L40.25 63.8415C39.5414 65.6828 39.009 67.5872 38.66 69.529C38.7497 69.5231 38.8396 69.5343 38.925 69.5622L39.0774 69.4263C39.0774 69.486 39.1238 69.5025 39.2 69.5025L39.1403 69.2442H39.6107C39.7465 69.2143 39.8691 69.0322 39.9585 68.7142C39.9585 68.2438 40.0347 67.9887 40.2467 67.9291C40.3554 67.3404 40.5333 66.7667 40.7767 66.2198C40.8928 65.5554 41.0967 64.9094 41.3829 64.2986C41.7903 62.8477 42.0785 62.0892 42.274 62.0461L42.3203 62.2283L42.0322 63.0001C41.6448 64.8479 41.1188 66.6638 40.4587 68.4326L40.6111 69.0951H40.7005C42.8726 63.767 44.7167 58.3111 46.2225 52.7578C46.2509 52.42 46.3591 52.0937 46.5382 51.8057C46.7173 51.5178 46.9622 51.2765 47.2527 51.1016L47.1168 50.9658V50.8896C47.3436 50.8551 47.5492 50.7369 47.6932 50.5583C47.6778 50.4987 47.4359 50.4082 46.9678 50.2867L48.3888 44.205C48.7712 42.6247 49.0588 41.023 49.2501 39.4085V39.319C48.9302 39.112 48.6489 38.8508 48.4187 38.5472V38.1067H48.3425C47.4647 39.4317 45.709 41.7504 43.122 45.0629L43.0822 45.0497ZM45.0929 46.4277C45.1177 47.0364 44.9986 47.6425 44.7451 48.1965C44.6557 49.2863 44.2615 49.9058 43.5791 50.0714V49.982L42.9729 50.2105L42.7013 50.2702C42.5783 50.3082 42.4467 50.3082 42.3237 50.2702L42.264 50.0283C43.0595 48.7556 43.9358 47.5352 44.8875 46.3747L45.0995 46.4045L45.0929 46.4277ZM43.7017 50.2105L43.8971 50.1642L43.9435 50.3298C42.9895 50.618 42.4595 50.767 42.3535 50.8002C42.2571 50.8313 42.1689 50.8833 42.0951 50.9525C42.0951 50.8929 41.9593 50.8929 41.7175 50.9525C41.6711 50.7869 42.3369 50.5451 43.705 50.2271L43.7017 50.2105ZM34.3074 52.7512L34.5194 52.7048L34.473 52.5227L34.261 52.569L34.3074 52.7512ZM37.0767 52.0258L37.123 52.1914L36.6692 52.2212V52.1318L37.0932 52.0258H37.0767ZM31.7767 53.7649V53.8543L31.4885 53.9139V53.8245L31.7767 53.7649ZM31.2467 54.8679V54.9441L30.8988 55.0203L30.8525 54.8547H31.2301L31.2467 54.8679ZM32.0781 54.6857V54.7619L31.4421 54.9143V54.8381L32.0781 54.6857ZM33.1812 54.5035V54.593L31.5249 54.9706L31.4785 54.805C32.4458 54.6393 32.3398 54.699 33.1712 54.5035H33.1812ZM41.5154 52.5657L41.6512 52.7181C41.4968 52.7421 41.3509 52.8048 41.2272 52.9003L41.0318 52.8705C40.7774 52.9774 40.5149 53.0638 40.2467 53.1288L40.0645 53.1752C40.0415 53.1833 40.0171 53.1866 39.9927 53.1847C39.9684 53.1828 39.9447 53.1759 39.9232 53.1644C39.9017 53.1528 39.8828 53.1369 39.8678 53.1177C39.8528 53.0985 39.8419 53.0763 39.836 53.0527L41.0914 52.7645L41.5154 52.569V52.5657ZM42.4065 52.3703L43.2975 52.1583V52.2477C42.9056 52.3235 42.5242 52.4458 42.1613 52.6121V52.5227C42.2583 52.4902 42.3459 52.4345 42.4164 52.3603L42.4065 52.3703ZM33.0255 54.911L33.4495 54.8215L33.4958 54.9872C33.3137 55.0335 33.4495 55.0335 33.2242 55.1395C32.8715 55.1476 32.5211 55.1987 32.1808 55.2919V55.2025L33.0255 54.911ZM34.1749 54.7155C34.2975 54.6857 34.3703 54.7155 34.3869 54.8513L34.1285 54.911C34.0225 54.9419 33.9463 54.8966 33.9 54.7752L34.1716 54.7155H34.1749ZM29.4546 64.2622V64.3516C29.5772 64.3218 29.6202 64.2622 29.5904 64.1396V64.0502C29.5669 64.054 29.5446 64.0626 29.5247 64.0757C29.5048 64.0887 29.4879 64.1058 29.4751 64.1258C29.4623 64.1458 29.4538 64.1683 29.4503 64.1918C29.4468 64.2153 29.4482 64.2393 29.4546 64.2622ZM29.819 65.776C29.8217 65.7996 29.8299 65.8223 29.8429 65.8422C29.856 65.8622 29.8735 65.8787 29.8941 65.8906C29.9147 65.9026 29.9378 65.9095 29.9616 65.9108C29.9854 65.9122 30.0091 65.908 30.031 65.8985C30.1535 65.8687 30.1966 65.8091 30.1668 65.6865V65.5971L29.9846 65.6435L29.8322 65.7793L29.819 65.776ZM80.4803 39.6072L81.1627 39.4151C81.4343 39.4449 81.5702 39.5045 81.5702 39.5807C81.8479 39.482 82.1375 39.4207 82.4314 39.3985V39.2925L81.7358 39.2627L80.3743 39.4913L79.7847 39.4449C79.7847 39.4913 79.8443 39.5542 79.9636 39.6337L80.4803 39.6072ZM39.4716 68.3697C39.4934 68.3602 39.5172 68.356 39.541 68.3573C39.5647 68.3587 39.5878 68.3656 39.6085 68.3775C39.6291 68.3895 39.6466 68.406 39.6596 68.426C39.6727 68.4459 39.6809 68.4686 39.6836 68.4922V68.5817L39.3358 68.6578C39.3572 68.5686 39.3572 68.4755 39.3358 68.3862H39.4418L39.4716 68.3697ZM53.4802 40.3823C52.6189 40.9941 51.7255 41.5591 50.8037 42.075V42.2407C50.9025 42.2217 50.9956 42.1797 51.0753 42.1181C51.0984 42.1126 51.1225 42.1125 51.1457 42.1175C51.169 42.1226 51.1907 42.1329 51.2095 42.1475C51.2282 42.1621 51.2435 42.1807 51.2541 42.202C51.2647 42.2233 51.2704 42.2467 51.2707 42.2705L51.4363 42.181H51.5125V42.2572C50.9543 42.8159 50.329 43.3033 49.6509 43.7081L49.7403 43.8903H49.6642L49.4687 43.8141C49.4687 43.8737 49.3925 43.9201 49.2103 43.9367V44.0128L49.4058 44.2547C49.3052 44.2515 49.2066 44.2254 49.1176 44.1785C48.8668 44.2299 48.63 44.335 48.4236 44.4865C48.2172 44.638 48.046 44.8324 47.9218 45.0563L48.0112 45.2219C48.1863 45.0296 48.391 44.8663 48.6174 44.7383V44.9967C48.5185 45.0157 48.4255 45.0577 48.3458 45.1192L48.5743 45.4505C48.9712 45.011 49.4233 44.6246 49.9192 44.301C50.161 44.3772 50.2968 44.4534 50.2968 44.5296H50.479C51.6951 43.6089 53.0474 42.8836 54.4872 42.3798V42.5454C54.2453 42.9098 54.0797 43.0887 53.987 43.1052C53.9993 43.2217 54.0354 43.3345 54.093 43.4365C53.6131 44.992 53.0162 46.5091 52.3075 47.9746C50.2973 52.9228 47.9739 57.7379 45.3513 62.3906C45.368 62.4862 45.4104 62.5755 45.4738 62.649C45.7865 62.6016 46.0856 62.4887 46.3517 62.3177H46.4278V62.4833H46.6233L46.7889 62.3939C46.7889 62.4403 46.8485 62.4701 46.9711 62.4535V62.6357C46.9414 62.9172 46.8424 63.1869 46.6829 63.4208C46.3916 63.8249 46.1812 64.2816 46.0635 64.7657V64.8551H46.2457C46.929 64.1124 47.5044 63.2772 47.9549 62.374C49.685 61.9043 51.3665 61.2709 52.9767 60.4826C53.9308 60.4517 54.8539 60.1355 55.6267 59.575V59.4855L55.1728 59.6213H55.0834V59.5319C55.7117 59.4895 56.3196 59.2914 56.8523 58.9555C58.5085 57.6703 59.7706 56.7627 60.6352 56.2327C63.2686 54.2948 64.5075 52.4498 64.3551 50.6643C63.8761 49.8629 63.2912 49.1297 62.616 48.4847C62.6006 48.2418 62.9937 47.894 63.7953 47.4413L66.0942 45.4538C66.7009 44.5065 67.0165 43.402 67.0018 42.2771L66.972 41.9459C66.8825 40.9322 66.1405 40.114 64.7493 39.4813C63.3707 38.7955 61.8383 38.4771 60.3006 38.5572C57.9232 38.851 55.5998 39.4823 53.4007 40.432L53.4802 40.3823ZM65.796 40.5049L65.7066 40.6871L63.1659 39.6138C64.8752 39.69 65.753 39.9782 65.7993 40.5049H65.796ZM55.4875 47.5937C55.6697 46.6397 55.8652 46.1097 56.0772 45.9904L57.9984 41.6842C57.9984 41.4258 58.376 41.2138 59.2075 41.0647L59.4791 41.0349V41.2933C60.2973 41.1575 60.8041 41.0813 61.0062 41.0647C62.52 40.9289 63.305 41.2469 63.3647 41.9723H63.5468L63.517 41.5649H63.6992C63.8808 41.6392 64.0401 41.759 64.1619 41.9128C64.2838 42.0665 64.364 42.249 64.3948 42.4427C64.3757 42.7769 64.2477 43.0957 64.0305 43.3503C63.9079 43.3503 63.8483 43.2742 63.835 43.1085H63.6528L63.5932 43.622C62.8214 44.788 62.2682 45.3776 61.937 45.4074C61.6344 45.8314 61.4379 46.0434 61.3473 46.0434C60.7529 46.6099 60.0922 47.1026 59.3797 47.5108C58.0135 47.9124 56.6838 48.4287 55.4047 49.0545C55.2892 49.0083 55.1638 48.9923 55.0403 49.0081V48.8425C55.0556 48.3945 55.2083 47.962 55.4776 47.6036L55.4875 47.5937ZM66.0478 42.2937V42.4758C65.9583 42.4758 65.7894 42.2042 65.5178 41.6577V41.492C65.6702 41.4821 65.8523 41.7537 66.0312 42.3003L66.0478 42.2937ZM49.2865 44.3507V44.4402C49.1902 44.4585 49.0982 44.4945 49.0149 44.5462H48.9387V44.3805L49.2865 44.3507ZM54.825 44.2215V44.4799C54.7356 44.4799 54.6296 44.6157 54.4938 44.8443V44.6787C54.6129 44.5531 54.6924 44.3953 54.7223 44.2248L54.825 44.2215ZM53.9638 46.007L53.9936 46.3382H53.9042L53.8743 46.007H53.9638ZM53.7518 46.6264C53.7363 46.9135 53.6601 47.0648 53.5232 47.0802H53.4338C53.5226 46.9456 53.5699 46.7877 53.5696 46.6264H53.7518ZM53.3576 47.5175V47.6069L53.2052 47.8785H53.023V47.7891C53.2052 47.7891 53.2947 47.6831 53.2814 47.5009L53.3576 47.5175ZM52.98 48.3191L52.9203 48.7563H52.8375L52.8077 48.3191H52.98ZM62.298 48.6503L62.6757 48.8789C62.6813 48.9025 62.6811 48.9271 62.675 48.9506C62.669 48.9741 62.6573 48.9958 62.641 49.0137C62.6246 49.0317 62.6042 49.0454 62.5814 49.0536C62.5585 49.0619 62.5341 49.0645 62.51 49.0611C62.4034 48.974 62.2701 48.9261 62.1324 48.9253V48.6669H62.298V48.6503ZM55.0105 49.6176V49.7832L54.6462 49.813V49.6474L55.0105 49.6176ZM60.8968 50.237C61.1552 50.3596 61.2745 50.4656 61.291 50.5683V50.6445C61.1545 50.6448 61.0202 50.6103 60.9008 50.5442C60.7814 50.4782 60.6808 50.3827 60.6087 50.2668L60.8968 50.237ZM53.3178 52.0987C54.9969 51.8231 56.6342 51.3356 58.1905 50.6478L58.7503 50.6014C59.1919 50.526 59.6445 50.546 60.0776 50.6603C60.5108 50.7746 60.9144 50.9804 61.2612 51.2639L61.291 51.5952C60.8825 52.7744 60.4287 53.47 59.9296 53.682L57.644 55.5271C56.7606 56.1608 55.8304 56.7267 54.8615 57.2198C53.2799 58.2181 51.5706 58.9981 49.7801 59.5385H49.6907C49.7503 59.2205 50.9649 56.734 53.3344 52.0788L53.3178 52.0987ZM55.7823 51.1049V51.1943L55.418 51.2242V51.1347L55.7823 51.1049ZM64.0272 50.7273L64.0868 51.4229C63.9973 51.5885 63.9212 51.6813 63.8284 51.6945L63.7224 50.5153C63.9145 50.5749 64.0205 50.6511 64.0205 50.7273H64.0272ZM50.0583 56.6434C49.9358 57.2198 49.8165 57.5212 49.694 57.5212V57.445C49.6794 57.2912 49.7054 57.1363 49.7693 56.9956C49.8332 56.855 49.9329 56.7336 50.0583 56.6434ZM52.344 59.8797C54.2761 59.1289 56.1182 58.1645 57.8361 57.0045V57.1701C57.8361 57.2463 57.5943 57.4715 57.0643 57.8326C56.1214 58.2522 55.2198 58.759 54.3712 59.3464C52.715 59.9228 51.9067 60.2838 51.92 60.4197C50.9313 60.7824 49.9665 61.2072 49.0315 61.6917C48.8648 61.6928 48.7014 61.6457 48.5611 61.5558C48.5466 61.4111 48.5766 61.2655 48.647 61.1382C48.7175 61.011 48.825 60.9082 48.9553 60.8437C49.202 60.8244 49.4499 60.8606 49.6807 60.9497C50.1396 60.7512 50.6151 60.5938 51.1018 60.4793V60.3137L50.542 60.36C51.0299 60.0434 51.5595 59.7959 52.1154 59.6247L52.387 59.5948V59.671C51.9167 59.7174 51.6616 59.8532 51.602 60.095C51.6023 60.1188 51.608 60.1422 51.6186 60.1635C51.6292 60.1848 51.6444 60.2034 51.6632 60.218C51.6819 60.2327 51.7037 60.2429 51.727 60.248C51.7502 60.2531 51.7743 60.2529 51.7974 60.2474C52.175 60.0652 52.3407 59.9162 52.3407 59.883L52.344 59.8797ZM49.5151 57.8061V57.8823C49.5216 57.9066 49.5222 57.9322 49.5167 57.9568C49.5112 57.9813 49.4998 58.0042 49.4835 58.0234C49.4673 58.0427 49.4465 58.0576 49.4232 58.0671C49.3998 58.0766 49.3745 58.0802 49.3495 58.0777V57.9883C49.3495 57.9121 49.4091 57.8359 49.5317 57.8061H49.5151ZM53.8213 58.9853C53.3865 59.0935 52.9724 59.2726 52.5957 59.5153H52.5063V59.3497C52.9333 59.3164 53.3353 59.1348 53.6425 58.8363C53.765 58.8363 53.8246 58.8661 53.8379 58.9721L53.8213 58.9853ZM49.3727 60.2242L49.6443 60.1944V60.2838C49.548 60.3022 49.4559 60.3381 49.3727 60.3898H49.1905C49.1905 60.3004 49.2368 60.2375 49.3561 60.2077L49.3727 60.2242ZM47.5408 61.2378L47.723 61.314C47.6634 61.844 47.4945 62.1157 47.2527 62.1322C47.0791 62.0457 46.8867 62.0036 46.6928 62.0097V61.7513C46.6928 61.6618 46.7392 61.5989 46.8585 61.5691C46.9777 61.5393 47.0407 61.6453 47.0539 61.8109C47.1957 61.6094 47.3578 61.423 47.5375 61.2544L47.5408 61.2378ZM17.8642 39.637C16.7383 40.4529 15.5611 41.1954 14.3397 41.8597V42.0883C14.4635 42.0666 14.5817 42.0205 14.6875 41.9525C14.8398 41.9525 14.9293 41.9988 14.9293 42.1479L15.1711 42.0121H15.2937V42.1181C14.5488 42.8512 13.7218 43.4959 12.8292 44.0393L12.965 44.2514H12.8424L12.584 44.1619C12.584 44.2381 12.478 44.2845 12.2362 44.2977V44.4203L12.5078 44.7217C12.3826 44.7202 12.2588 44.6943 12.1435 44.6455C11.8129 44.7156 11.5013 44.8561 11.2298 45.0572C10.9583 45.2584 10.7333 45.5157 10.57 45.8115L10.7058 46.0235C10.9338 45.7776 11.1987 45.5686 11.4909 45.4041L11.5207 45.7353C11.3976 45.7595 11.2798 45.8055 11.1729 45.8712L11.4611 46.2952C11.9885 45.7152 12.5938 45.2113 13.2598 44.7979C13.591 44.8874 13.76 44.9801 13.76 45.0993H14.0018C15.5967 43.8814 17.3728 42.9213 19.2653 42.2539V42.4825C18.9341 42.9661 18.7221 43.2079 18.6028 43.2245C18.6194 43.3821 18.6764 43.5327 18.7685 43.6617C18.141 45.7084 17.3524 47.7021 16.41 49.6242C13.7696 56.1407 10.7239 62.4855 7.29065 68.6214C7.31322 68.7398 7.35941 68.8525 7.42647 68.9527C7.84024 68.8855 8.23657 68.7369 8.59247 68.5154H8.72828V68.744H8.95684L9.2119 68.5684C9.2119 68.6446 9.30134 68.6744 9.45372 68.6578V68.8864C9.42212 69.2642 9.28559 69.6256 9.05953 69.9298C8.68843 70.4666 8.4169 71.0658 8.2579 71.6987V71.8047H8.48647C9.38206 70.8282 10.1399 69.7337 10.739 68.5518C13.0236 67.9379 15.2426 67.1014 17.364 66.0542C18.6232 66.0194 19.8421 65.6024 20.8587 64.8584V64.7358L20.2823 64.9015H20.1465V64.7789C20.968 64.7128 21.7623 64.454 22.4652 64.0237C24.6581 62.331 26.3077 61.1352 27.434 60.423C30.8988 57.8823 32.5319 55.431 32.3365 53.1023C31.7059 52.0515 30.9372 51.09 30.0508 50.2437C30.021 49.9124 30.551 49.4718 31.6077 48.8657L34.6188 46.2157C35.408 44.9666 35.8272 43.5194 35.8278 42.0419L35.7815 41.5881C35.6589 40.2432 34.6917 39.1534 32.8466 38.322C31.0358 37.4211 29.0178 37.0186 27 37.156C23.8629 37.5764 20.7953 38.4106 17.8774 39.637H17.8642ZM34.0954 39.8325L34.006 40.061L30.6438 38.6532C32.883 38.7438 34.0325 39.1368 34.0921 39.8325H34.0954ZM20.5142 49.1505C20.7427 47.9117 20.9978 47.1995 21.286 47.0338L23.7968 41.4026C23.767 41.0548 24.297 40.7832 25.4001 40.601L25.7645 40.5712L25.7943 40.9024C26.8841 40.7368 27.5499 40.644 27.805 40.6142C29.7925 40.4486 30.8293 40.8428 30.922 41.8233H31.1506L31.1042 41.2469H31.346C31.592 41.344 31.8081 41.504 31.9726 41.711C32.1372 41.918 32.2444 42.1646 32.2835 42.4262C32.2667 42.8698 32.0834 43.2909 31.77 43.6054C31.6177 43.6054 31.5282 43.516 31.5117 43.2742H31.2698L31.2102 43.9565C30.1966 45.4704 29.4712 46.2422 29.0173 46.2753C28.6088 46.834 28.3515 47.1211 28.2455 47.1365C27.4566 47.8823 26.5827 48.5327 25.6419 49.0743C23.8488 49.605 22.1027 50.2831 20.4214 51.1016C20.2709 51.0301 20.103 51.0037 19.9378 51.0254V50.8134C19.9516 50.2124 20.1583 49.6317 20.5274 49.1572L20.5142 49.1505ZM34.4267 42.1943V42.4063C34.3041 42.4063 34.0788 42.0585 33.7443 41.333V41.121C33.9298 41.0747 34.1583 41.4523 34.4002 42.1943H34.4267ZM12.3389 44.8873V44.9934C12.2158 45.0175 12.098 45.0635 11.9911 45.1292H11.8685V44.9172L12.3389 44.8873ZM19.6198 44.7184L19.6496 45.0497C19.5436 45.0497 19.3912 45.2153 19.2123 45.5333V45.3047C19.3807 45.1469 19.4964 44.941 19.5436 44.7151L19.6198 44.7184ZM18.5002 47.0769L18.5465 47.5307H18.424L18.3875 47.0802L18.5002 47.0769ZM18.212 47.8951C18.1822 48.2727 18.0894 48.4715 17.8807 48.4847H17.7582C17.8736 48.3135 17.9411 48.1145 17.9536 47.9083L18.212 47.8951ZM17.7118 49.0743V49.1803L17.4998 49.5447H17.2712V49.4387C17.3191 49.4446 17.3677 49.439 17.413 49.4222C17.4582 49.4054 17.4988 49.378 17.5312 49.3423C17.5637 49.3066 17.5871 49.2637 17.5995 49.217C17.6119 49.1704 17.6129 49.1215 17.6025 49.0743H17.725H17.7118ZM17.1983 50.1343L17.1387 50.6942H17.0162L16.9698 50.1343H17.1983ZM29.4546 50.5418L29.9548 50.8432C29.9618 50.8747 29.9616 50.9073 29.9542 50.9386C29.9467 50.97 29.9323 50.9992 29.9118 51.0241C29.8914 51.049 29.8655 51.069 29.8362 51.0824C29.807 51.0958 29.775 51.1024 29.7428 51.1016C29.5971 50.9918 29.4241 50.9242 29.2426 50.9062L29.2128 50.5749L29.4546 50.5418ZM19.8483 51.827V52.039L19.378 52.0854V51.8734L19.8483 51.827ZM27.593 52.6121C27.9242 52.7645 28.0932 52.9135 28.1064 53.0361V53.1421C27.9287 53.1448 27.7536 53.0999 27.5992 53.0119C27.4448 52.9239 27.3168 52.7962 27.2286 52.6419L27.593 52.6121ZM17.6091 55.0633C19.8241 54.7023 21.9844 54.0623 24.0387 53.1587L24.7508 53.099C25.3315 52.9948 25.9278 53.0166 26.4993 53.1629C27.0708 53.3092 27.6042 53.5766 28.0633 53.947L28.1097 54.4008C27.5665 55.9743 26.9603 56.8819 26.311 57.1701L23.2867 59.575C22.1278 60.4083 20.91 61.1567 19.643 61.8142C17.5638 63.1375 15.3137 64.1706 12.955 64.8849H12.8192C12.9418 64.4609 14.5285 61.1948 17.6157 55.0501L17.6091 55.0633ZM20.8752 53.7781V53.8841L20.3916 53.9305V53.8245L20.8752 53.7781ZM31.7369 53.2945L31.8131 54.1855C31.7071 54.4273 31.6011 54.5499 31.4818 54.5499L31.346 52.9765C31.6177 53.0692 31.7369 53.1752 31.7535 53.2812L31.7369 53.2945ZM13.3426 61.0888C13.1902 61.8606 13.0113 62.2548 12.859 62.268V62.162C12.8505 61.9562 12.8915 61.7513 12.9785 61.5646C13.0655 61.3778 13.1961 61.2147 13.3592 61.0888H13.3426ZM16.3669 65.3553C18.9037 64.3523 21.3275 63.0843 23.5981 61.5724V61.7844C23.5981 61.8738 23.2668 62.162 22.5845 62.6622C21.3333 63.1993 20.1457 63.8736 19.0434 64.6729C16.8638 65.4282 15.7905 65.8985 15.8071 66.0807C14.5052 66.5674 13.2322 67.1281 11.9944 67.7602C11.7779 67.7538 11.5658 67.6971 11.375 67.5945C11.3579 67.399 11.3991 67.2028 11.4935 67.0306C11.5878 66.8585 11.731 66.7181 11.905 66.6273C12.2351 66.5938 12.5683 66.6463 12.8722 66.7797C13.4741 66.5121 14.1025 66.3089 14.7471 66.1735V65.9449L14.0349 66.0045C14.6876 65.6052 15.3832 65.2808 16.1085 65.0373L16.4729 65.0075V65.1135C15.8667 65.1598 15.5189 65.3553 15.4427 65.6733C15.4425 65.7032 15.449 65.7327 15.4618 65.7597C15.4746 65.7867 15.4933 65.8105 15.5165 65.8293C15.5398 65.8481 15.5669 65.8613 15.596 65.8682C15.6251 65.875 15.6554 65.8752 15.6845 65.8687C15.9289 65.7303 16.152 65.5573 16.347 65.3553H16.3669ZM12.647 62.6059V62.7119C12.654 62.7433 12.6538 62.776 12.6464 62.8073C12.6389 62.8387 12.6244 62.8679 12.604 62.8928C12.5836 62.9177 12.5577 62.9376 12.5284 62.9511C12.4991 62.9645 12.4672 62.9711 12.435 62.9703V62.8643C12.4303 62.8331 12.4322 62.8014 12.4406 62.771C12.449 62.7406 12.4636 62.7124 12.4836 62.688C12.5036 62.6637 12.5284 62.6438 12.5566 62.6296C12.5847 62.6155 12.6155 62.6074 12.647 62.6059ZM18.3047 64.1495C17.7291 64.2957 17.1817 64.5364 16.6849 64.8617H16.5623V64.6332C17.1239 64.5953 17.6521 64.3525 18.0463 63.9508C18.1987 63.9475 18.2882 64.0237 18.3047 64.1595V64.1495ZM12.425 65.7925L12.7894 65.7627V65.8853C12.6656 65.9069 12.5473 65.9531 12.4416 66.0211H12.213C12.223 65.9184 12.2826 65.8389 12.425 65.7925ZM10.0202 67.1374L10.2785 67.2434C10.1891 67.9258 9.99034 68.2736 9.64253 68.3034C9.4116 68.192 9.15666 68.1397 8.90053 68.151L8.87072 67.8198C8.87072 67.684 8.93034 67.6078 9.09928 67.5614C9.26822 67.515 9.34109 67.6508 9.35765 67.8927C9.55311 67.6238 9.77506 67.3752 10.0202 67.1507V67.1374ZM77.1281 37.411L76.9327 37.3349L73.7096 37.835C73.5737 37.7697 73.4223 37.7433 73.2723 37.7589C72.9811 37.7981 72.6932 37.859 72.4111 37.941L70.8542 38.6035L70.9768 38.799C71.0952 38.7844 71.2086 38.7424 71.308 38.6764L71.8513 38.7228L71.7751 39.2362C71.5565 39.3139 71.3613 39.4458 71.2077 39.6196C71.0542 39.7935 70.9474 40.0035 70.8973 40.23C70.1398 40.5634 69.7611 40.8052 69.7611 40.9554V41.0448H69.8837L70.0957 40.9389L70.3375 41.227L70.3673 41.6212C70.3827 41.7427 69.1019 44.4457 66.5248 49.7302C64.301 54.8094 63.1306 57.5985 63.0135 58.0976C62.2583 58.3096 61.8045 58.6276 61.6885 59.035C61.6885 59.1708 61.9303 59.247 62.3709 59.2934V59.4888L62.1755 59.8201L62.2053 60.2143C62.2053 60.4263 62.7817 60.5787 63.8615 60.6979C63.8615 60.6217 63.8913 60.5919 63.9675 60.5753C63.9552 61.0657 63.884 61.5528 63.7555 62.0262H63.8781C64.2151 61.6684 64.4447 61.223 64.5406 60.741H64.63C64.736 60.741 64.8586 60.8635 64.9944 61.1352C64.3969 62.1737 63.9148 63.2745 63.5568 64.4178L63.6793 64.6133H63.8019C64.3046 63.141 64.9422 61.7183 65.7066 60.3633C67.0316 60.2408 69.3238 60.0155 72.59 59.6677L72.7854 59.5452C72.7854 59.6213 72.8318 59.6512 72.908 59.6346H73.12L73.3154 59.512C73.3154 59.5882 73.3618 59.618 73.438 59.6015L75.9025 59.3895C76.565 59.3298 76.8697 59.1311 76.8399 58.7998C76.8399 58.7104 77.2175 58.6044 78.0059 58.4984C78.1186 58.5025 78.2301 58.5226 78.3372 58.558C78.3372 58.4984 78.7148 58.4355 79.5032 58.3626C79.5032 57.9552 79.6555 57.7266 79.8973 57.7001V57.5047C79.6402 57.5314 79.3869 57.587 79.1421 57.6703C78.807 57.6715 78.4731 57.6303 78.1483 57.5477C78.0489 57.6137 77.9355 57.6557 77.8171 57.6703L76.0913 57.7299L75.8793 57.8359C75.8793 57.7763 75.8329 57.7465 75.7567 57.7597H75.6673L75.4387 57.8657C75.4387 57.8061 75.2565 57.7597 74.8955 57.7133L74.6835 57.8359L74.2595 57.8657V57.7597C76.4689 57.5179 77.572 57.2165 77.5422 56.8521C77.678 56.8521 77.7542 56.9117 77.7707 57.0475L78.4332 56.8819V56.6865L73.1332 56.8388C73.1332 56.915 73.1034 56.9448 73.0272 56.9614L72.3647 56.9018C72.2162 56.9082 72.0735 56.9615 71.9573 57.0542L71.7155 56.9647C71.2096 56.9956 70.7081 57.0766 70.2182 57.2065C69.7143 57.1691 69.2083 57.1691 68.7044 57.2065L67.5086 57.3125L66.9653 57.2529C67.4705 55.4618 68.1599 53.7278 69.0224 52.0788C69.2333 51.3481 69.6239 50.6818 70.1586 50.141C70.2729 50.145 70.3853 50.1708 70.4898 50.2172L71.3378 49.929L71.7751 50.0052C72.645 49.908 73.4988 49.6998 74.3158 49.3857C74.4981 49.3653 74.6828 49.381 74.859 49.4321L75.5215 49.2797L77.4428 49.1141C78.3419 49.0211 79.2296 48.8391 80.0928 48.5708V48.3754C79.7284 48.4052 79.5495 48.3456 79.533 48.2098C79.5032 47.9382 79.2448 47.8322 78.7479 47.8785V47.6831L79.2779 47.5307L80.6692 47.4082V47.2127H79.8079V47.0007L80.3512 46.9543C80.487 46.9543 80.5632 46.8649 80.5466 46.7423C79.8212 46.7423 79.4568 46.7424 79.4568 46.6364C76.9436 46.8829 74.4148 46.9283 71.8943 46.7722C71.7736 46.7862 71.6589 46.8332 71.5631 46.908L71.3875 46.6397C71.9521 45.1044 72.7425 43.6619 73.7328 42.3599C73.7234 42.5478 73.6664 42.7301 73.5672 42.8899V42.9794H73.7792C74.3092 41.7074 74.7464 41.0581 75.124 41.0283C76.6975 40.8925 74.8955 40.7865 78.2842 40.2565C78.3757 40.3092 78.48 40.3355 78.5856 40.3327C79.9106 40.061 81.7623 39.7894 84.1373 39.5012V39.3058L82.8653 39.4283V39.2329C83.0041 39.223 83.1362 39.1697 83.243 39.0805V39.1865C83.3506 39.1717 83.4512 39.1243 83.5312 39.0507C83.7002 39.0273 83.8725 39.0478 84.0313 39.1104C84.3785 39.0117 84.7329 38.9408 85.0913 38.8984L85.8764 38.8222C86.0718 38.6996 86.1646 38.5936 86.148 38.4909V38.4015C85.9151 38.4139 85.6816 38.3984 85.4524 38.3551C85.4524 38.2491 85.4988 38.1729 85.6346 38.1431L87.102 38.0073L87.7844 37.8417C87.7844 37.9178 87.8308 37.9477 87.8738 37.9477C87.9815 37.9328 88.0821 37.8854 88.162 37.8119C88.3618 37.8493 88.5651 37.8648 88.7682 37.8582C89.0391 37.5981 89.3573 37.3923 89.7057 37.252C89.5879 37.1543 89.5034 37.0223 89.4638 36.8744L88.4701 36.9639C88.453 36.8579 88.4171 36.7558 88.3641 36.6624C88.3641 36.573 88.5761 36.4802 89.0266 36.3908L89.222 36.467L89.4042 36.361C89.4032 36.3741 89.4055 36.3872 89.411 36.3991C89.4165 36.4111 89.425 36.4214 89.4357 36.429C89.4464 36.4367 89.4588 36.4415 89.4719 36.4429C89.4849 36.4443 89.4981 36.4423 89.5102 36.4372L89.6924 36.3312C89.6913 36.3443 89.6937 36.3574 89.6992 36.3693C89.7047 36.3812 89.7132 36.3915 89.7239 36.3992C89.7345 36.4069 89.747 36.4117 89.7601 36.4131C89.7731 36.4145 89.7863 36.4125 89.7984 36.4074H89.8878V36.2119H88.8146L88.6324 36.3345V36.2285C84.0181 36.6061 81.4012 36.8181 80.7818 36.891H79.8145C79.8145 36.9672 79.7549 37.0135 79.6191 37.0135L79.4237 36.9241L78.7413 37.0897C78.4737 37.099 78.2058 37.0891 77.9397 37.0599C77.8298 37.1437 77.6993 37.1964 77.562 37.2123C77.4097 37.2123 81.2223 37.0003 81.1031 36.9407L80.5135 37.1063H80.424C80.1212 37.1249 79.8173 37.1149 79.5164 37.0765C79.3728 37.1718 79.2051 37.2247 79.0328 37.2289C78.8967 37.2448 78.7589 37.2182 78.6386 37.1527C78.473 37.199 77.9761 37.3183 77.1712 37.4839L77.1281 37.411ZM77.3699 38.0172C77.3699 38.0934 77.4461 38.1232 77.5653 38.1067V38.3021H77.3699C77.2338 38.3181 77.0961 38.2915 76.9757 38.2259C76.8679 38.3132 76.7363 38.3663 76.5981 38.3783H76.6875L76.1443 38.3187V38.2292C76.5711 38.2093 76.9933 38.1324 77.3997 38.0007L77.3699 38.0172ZM77.8701 37.9709H77.9761V38.1663L77.6747 38.1961C77.6713 38.1678 77.6741 38.1392 77.6828 38.1121C77.6915 38.085 77.7059 38.0601 77.7251 38.0391C77.7442 38.018 77.7677 38.0013 77.7938 37.9901C77.82 37.9789 77.8483 37.9735 77.8767 37.9742L77.8701 37.9709ZM79.0361 37.8483V37.9543C78.7432 37.9832 78.4544 38.0443 78.1748 38.1365H78.0688L78.1583 37.9245L79.0195 37.835L79.0361 37.8483ZM70.4435 38.842L70.7747 38.8122V38.6168L70.4435 38.6466V38.842ZM72.8185 38.63H72.9411L73.1697 38.7195C73.1758 38.7471 73.1752 38.7759 73.1678 38.8032C73.1604 38.8306 73.1466 38.8557 73.1274 38.8766C73.1082 38.8974 73.0842 38.9133 73.0575 38.9228C73.0309 38.9324 73.0023 38.9354 72.9742 38.9315L72.643 38.9613V38.8553C72.6132 38.7294 72.6893 38.6698 72.8252 38.6234L72.8185 38.63ZM80.4373 39.0673V39.1567L79.7549 39.2163V39.1269L80.4373 39.0673ZM78.4862 39.3555V39.4615L78.092 39.4913V39.3853L78.4862 39.3555ZM79.0162 39.8093C79.152 39.8093 79.2117 39.8557 79.2282 39.9915L78.6518 40.0511V39.8557L79.0295 39.8093H79.0162ZM80.4803 39.6238L80.0895 39.7331L79.9503 39.647L77.8204 39.7463V39.8524L81.3615 39.6867V39.5807L80.4803 39.6238ZM78.0324 40.0213V40.1107L77.2606 40.1869V40.0809L78.0324 40.0213ZM72.9643 44.0294V44.1354H73.1928C73.1935 44.0207 73.2195 43.9076 73.269 43.8042V43.6087C73.1465 43.6087 73.0405 43.7611 72.9676 44.0327L72.9643 44.0294ZM65.1733 55.3449V55.4343C65.1733 55.5702 65.1137 55.6463 64.9613 55.6629V55.5735C64.9447 55.4443 65.0176 55.3847 65.17 55.3383L65.1733 55.3449ZM64.9778 55.7689C64.9142 56.2738 64.7815 56.7675 64.5837 57.2363L64.2524 57.2662C64.3636 56.7581 64.536 56.2653 64.7658 55.7987L64.9778 55.7689ZM68.6216 58.929C68.6216 59.035 68.456 59.1576 68.1082 59.2768L67.4457 59.2305H67.2337V59.035L68.6415 58.9125L68.6216 58.929ZM69.2841 58.9887V59.0781L68.7408 59.1245V59.035L69.2841 58.9887Z" fill="#FBC02D"/>
</svg>
