<svg width="79" height="90" viewBox="0 0 79 90" fill="none" xmlns="http://www.w3.org/2000/svg">
<path d="M39.4519 89.7188L7.30194 80.8027L0.137317 0.525635H78.8627L71.6906 80.7903L39.4519 89.7188Z" fill="#264DE4"/>
<path d="M65.5506 75.6793L71.6792 7.08936H39.5V82.8941L65.5506 75.6793Z" fill="#2965F1"/>
<path d="M16.5619 36.863L17.4451 46.7087H39.5V36.863H16.5619Z" fill="#EBEBEB"/>
<path d="M14.7869 16.9353L15.6827 26.7809H39.5V16.9353H14.7869Z" fill="#EBEBEB"/>
<path d="M39.5 62.4333L39.4568 62.4448L28.4807 59.484L27.779 51.6317H17.8855L19.2661 67.0909L39.4546 72.6893L39.5 72.677V62.4333Z" fill="#EBEBEB"/>
<path d="M62.3751 36.8631L64.1542 16.9353H39.4661V26.781H53.3534L52.4566 36.8631H39.4661V46.7087H51.6021L50.4579 59.4778L39.4657 62.4416V72.6847L59.6703 67.0909L59.8184 65.4274L62.1347 39.5069L62.3751 36.8631Z" fill="white"/>
</svg>
