<svg width="25" height="24" viewBox="0 0 25 24" fill="none" xmlns="http://www.w3.org/2000/svg">
<g clip-path="url(#clip0)">
<path d="M23.3421 24.0001C24.0735 24.0001 24.6667 23.407 24.6667 22.6755V1.32459C24.6667 0.592969 24.0735 0 23.3421 0H1.99127C1.25955 0 0.666672 0.592969 0.666672 1.32459V22.6755C0.666672 23.407 1.25955 24.0001 1.99127 24.0001H23.3421Z" fill="#395185"/>
<path d="M17.2262 24.0001V14.706H20.3459L20.813 11.084H17.2262V8.77138C17.2262 7.72269 17.5175 7.00803 19.0213 7.00803L20.9394 7.00719V3.76766C20.6075 3.7235 19.469 3.62488 18.1445 3.62488C15.379 3.62488 13.4859 5.31285 13.4859 8.41278V11.084H10.3582V14.706H13.4859V24.0001H17.2262Z" fill="white"/>
</g>
<defs>
<clipPath id="clip0">
<rect width="24" height="24" fill="white" transform="translate(0.666672)"/>
</clipPath>
</defs>
</svg>
