<svg width="101" height="102" viewBox="0 0 101 102" fill="none" xmlns="http://www.w3.org/2000/svg">
<path d="M18.3062 78.1436L18.8428 77.3956L44.1559 29.3764L44.2095 28.8682L33.0522 7.91073C32.8479 7.52749 32.5283 7.21818 32.1386 7.02655C31.7489 6.83493 31.3088 6.7707 30.8806 6.84294C30.4524 6.91518 30.0577 7.12025 29.7524 7.42912C29.4471 7.73799 29.2467 8.13503 29.1795 8.56408L18.3062 78.1436Z" fill="#FFC24A"/>
<path d="M18.6219 77.5755L19.0259 76.7864L44.0771 29.2659L32.9481 8.22634C32.7646 7.86045 32.4675 7.56387 32.1012 7.38104C31.735 7.19821 31.3194 7.13896 30.9166 7.21219C30.5139 7.28541 30.1457 7.48716 29.8673 7.78721C29.5888 8.08726 29.4151 8.46945 29.3721 8.87653L18.6219 77.5755Z" fill="#FFA712"/>
<path d="M52.3433 44.7189L60.6505 36.197L52.3401 20.3495C52.1572 20.0085 51.8852 19.7234 51.5531 19.5246C51.221 19.3259 50.8413 19.2209 50.4543 19.2209C50.0672 19.2209 49.6875 19.3259 49.3554 19.5246C49.0233 19.7234 48.7513 20.0085 48.5684 20.3495L44.1276 28.8146V29.5374L52.3433 44.7189Z" fill="#F4BD62"/>
<path d="M52.1949 44.3718L60.2718 36.1024L52.1949 20.6999C52.0627 20.3665 51.8369 20.0785 51.5447 19.8705C51.2525 19.6626 50.9064 19.5436 50.5481 19.5279C50.1898 19.5122 49.8346 19.6005 49.5253 19.7822C49.2161 19.9638 48.9659 20.231 48.8051 20.5516L44.3422 29.165L44.2096 29.6037L52.1949 44.3718Z" fill="#FFA50E"/>
<path d="M18.3126 78.147L18.5556 77.9008L19.4362 77.5441L51.8193 45.281L52.2296 44.1636L44.1528 28.7675L18.3126 78.147Z" fill="#F6820C"/>
<path d="M53.3785 94.4176L82.6937 78.0714L74.317 26.5267C74.257 26.1633 74.098 25.8235 73.8575 25.5446C73.617 25.2657 73.3043 25.0585 72.9537 24.9456C72.6031 24.8328 72.2282 24.8187 71.8702 24.905C71.5121 24.9913 71.1848 25.1745 70.9241 25.4346L18.3062 78.144L47.4479 94.4145C48.3538 94.92 49.3741 95.1854 50.4116 95.1854C51.4491 95.1854 52.4693 94.92 53.3753 94.4145" fill="#FDE068"/>
<path d="M82.4255 77.9355L74.1183 26.779C74.1036 26.4314 73.9862 26.0961 73.7808 25.8153C73.5754 25.5345 73.2914 25.321 72.9646 25.2017C72.6379 25.0824 72.2831 25.0627 71.9451 25.1452C71.6072 25.2276 71.3013 25.4085 71.0662 25.6648L18.6219 78.046L47.4416 94.1429C48.3404 94.6443 49.3525 94.9075 50.3817 94.9075C51.4109 94.9075 52.4229 94.6443 53.3217 94.1429L82.4255 77.9355Z" fill="#FCCA3F"/>
<path d="M53.3785 93.9251C52.4725 94.4307 51.4522 94.6961 50.4147 94.6961C49.3772 94.6961 48.357 94.4307 47.451 93.9251L18.5461 77.8977L18.3062 78.1439L47.4479 94.4143C48.3538 94.9199 49.3741 95.1853 50.4116 95.1853C51.4491 95.1853 52.4693 94.9199 53.3753 94.4143L82.6937 78.0713L82.6211 77.6294L53.3785 93.9251Z" fill="#EEAB37"/>
</svg>
