<svg width="25" height="24" viewBox="0 0 25 24" fill="none" xmlns="http://www.w3.org/2000/svg">
<g clip-path="url(#clip0)">
<path d="M12.3333 0C5.70334 0 0.333344 5.37 0.333344 12C0.333344 17.31 3.76834 21.795 8.53834 23.385C9.13834 23.49 9.36334 23.13 9.36334 22.815C9.36334 22.53 9.34834 21.585 9.34834 20.58C6.33334 21.135 5.55334 19.845 5.31334 19.17C5.17834 18.825 4.59334 17.76 4.08334 17.475C3.66334 17.25 3.06334 16.695 4.06834 16.68C5.01334 16.665 5.68834 17.55 5.91334 17.91C6.99334 19.725 8.71834 19.215 9.40834 18.9C9.51334 18.12 9.82834 17.595 10.1733 17.295C7.50334 16.995 4.71334 15.96 4.71334 11.37C4.71334 10.065 5.17834 8.985 5.94334 8.145C5.82334 7.845 5.40334 6.615 6.06334 4.965C6.06334 4.965 7.06834 4.65 9.36334 6.195C10.3233 5.925 11.3433 5.79 12.3633 5.79C13.3833 5.79 14.4033 5.925 15.3633 6.195C17.6583 4.635 18.6633 4.965 18.6633 4.965C19.3233 6.615 18.9033 7.845 18.7833 8.145C19.5483 8.985 20.0133 10.05 20.0133 11.37C20.0133 15.975 17.2083 16.995 14.5383 17.295C14.9733 17.67 15.3483 18.39 15.3483 19.515C15.3483 21.12 15.3333 22.41 15.3333 22.815C15.3333 23.13 15.5583 23.505 16.1583 23.385C18.5407 22.581 20.6109 21.05 22.0774 19.0076C23.5439 16.9653 24.3329 14.5144 24.3333 12C24.3333 5.37 18.9633 0 12.3333 0Z" fill="black"/>
</g>
<defs>
<clipPath id="clip0">
<rect width="24" height="24" fill="white" transform="translate(0.333344)"/>
</clipPath>
</defs>
</svg>
