<svg width="79" height="90" viewBox="0 0 79 90" fill="none" xmlns="http://www.w3.org/2000/svg">
<path d="M78.8627 0.759033L71.6906 80.8143L39.4518 89.7195L7.30193 80.8266L0.137314 0.759033H78.8627Z" fill="#E44D26"/>
<path d="M39.5 82.9127L65.5506 75.7167L71.6792 7.30566H39.5V82.9127Z" fill="#F16529"/>
<path d="M25.5577 26.9458H39.5V17.1259H14.7869L15.0227 19.7603L17.4451 46.8216H39.5V37.0016H26.4585L25.5577 26.9458Z" fill="#EBEBEB"/>
<path d="M27.779 51.7318H17.8855L19.2661 67.1507L39.4546 72.7345L39.5 72.7222V62.5053L39.4568 62.5166L28.4807 59.5636L27.779 51.7318Z" fill="#EBEBEB"/>
<path d="M39.4661 46.8217H51.6021L50.4579 59.5575L39.4658 62.5136V72.7299L59.6703 67.1506L59.8184 65.4915L62.1347 39.6387L62.3751 37.0017H39.4661V46.8217Z" fill="white"/>
<path d="M39.466 26.9218V26.9458H63.2719L63.4694 24.7387L63.9187 19.7603L64.1542 17.1259H39.466V26.9221V26.9218Z" fill="white"/>
</svg>
