<svg width="24" height="24" viewBox="0 0 24 24" fill="none" xmlns="http://www.w3.org/2000/svg">
<g clip-path="url(#clip0)">
<path d="M20.4481 20.4489H16.8921V14.8798C16.8921 13.5519 16.8684 11.8423 15.0426 11.8423C13.1905 11.8423 12.9071 13.2893 12.9071 14.7832V20.4485H9.35113V8.99636H12.7648V10.5614H12.8127C13.1543 9.97726 13.648 9.49671 14.2411 9.17093C14.8343 8.84515 15.5047 8.68636 16.1809 8.71145C19.7851 8.71145 20.4496 11.0822 20.4496 14.1664L20.4481 20.4489ZM5.33863 7.43101C4.19891 7.4312 3.27481 6.50739 3.27463 5.36767C3.27444 4.22795 4.19816 3.30386 5.33788 3.30367C6.47759 3.30339 7.40169 4.2272 7.40188 5.36692C7.40197 5.91423 7.18466 6.43917 6.79772 6.82626C6.41079 7.21335 5.88594 7.43089 5.33863 7.43101ZM7.11669 20.4489H3.55691V8.99636H7.11659V20.4489L7.11669 20.4489ZM22.2209 0.00113639H1.77003C0.803469 -0.00973861 0.010813 0.764543 -0.000999451 1.73111V22.2673C0.010438 23.2344 0.803 24.0094 1.76994 23.9993H22.2209C23.1899 24.0113 23.9856 23.2362 23.999 22.2673V1.72951C23.9852 0.761074 23.1895 -0.0131136 22.2209 -0.000457362" fill="#0A66C2"/>
</g>
<defs>
<clipPath id="clip0">
<rect width="24" height="24" fill="white"/>
</clipPath>
</defs>
</svg>
