<svg width="105" height="64" viewBox="0 0 105 64" fill="none" xmlns="http://www.w3.org/2000/svg">
<g clip-path="url(#clip0)">
<path d="M25.0395 16.9251H44.6549V18.4901H26.8376V30.2678H43.5926V31.8326H26.8376V44.7635H44.8592V46.3283H25.0395V16.9251ZM46.4123 16.9251H48.4964L57.7319 29.856L67.1717 16.9249L80.0115 0.5L58.9169 31.215L69.7872 46.3283H67.6212L57.7319 32.5739L47.8015 46.3283H45.6766L56.6285 31.2148L46.4121 16.9251H46.4123ZM70.5635 18.4901V16.9249H92.917V18.4899H82.6188V46.3281H80.8207V18.4901H70.5635ZM0.5 16.9249H2.74758L33.7404 63.4761L20.9328 46.3281L2.37972 19.1488L2.29806 46.3285H0.5V16.9249ZM92.7358 44.2909C92.3684 44.2909 92.0929 44.0055 92.0929 43.636C92.0929 43.267 92.3684 42.9812 92.7358 42.9812C93.1075 42.9812 93.3787 43.2668 93.3787 43.636C93.3787 44.0053 93.1075 44.2909 92.7358 44.2909ZM94.5026 42.5681H95.4648C95.4778 43.0911 95.8583 43.4428 96.4181 43.4428C97.0435 43.4428 97.3977 43.0648 97.3977 42.3571V37.8737H98.3774V42.3614C98.3774 43.636 97.6427 44.3702 96.4268 44.3702C95.2852 44.3702 94.5026 43.6581 94.5026 42.5679V42.5681ZM99.6587 42.511H100.63C100.713 43.1131 101.299 43.4954 102.143 43.4954C102.93 43.4954 103.507 43.0866 103.507 42.5241C103.507 42.0406 103.14 41.7505 102.305 41.5528L101.491 41.355C100.35 41.0867 99.8293 40.5329 99.8293 39.6012C99.8293 38.4717 100.748 37.7199 102.125 37.7199C103.407 37.7199 104.343 38.4715 104.399 39.5396H103.446C103.354 38.9551 102.847 38.5901 102.112 38.5901C101.338 38.5901 100.822 38.9638 100.822 39.5351C100.822 39.9877 101.154 40.2473 101.977 40.4406L102.672 40.612C103.966 40.9154 104.5 41.4429 104.5 42.3966C104.5 43.6097 103.564 44.3702 102.069 44.3702C100.669 44.3702 99.7286 43.6448 99.6587 42.5108V42.511Z" fill="black"/>
</g>
<defs>
<clipPath id="clip0">
<rect width="104" height="64" fill="white" transform="translate(0.5)"/>
</clipPath>
</defs>
</svg>
