<svg width="91" height="80" viewBox="0 0 91 80" fill="none" xmlns="http://www.w3.org/2000/svg">
<g clip-path="url(#clip0)">
<path d="M74.4979 25.9033C73.5401 25.5754 72.5742 25.2715 71.6011 24.9921C71.7645 24.3254 71.915 23.6669 72.0486 23.0198C74.2416 12.3949 72.808 3.83527 67.911 1.01703C63.2159 -1.68473 55.5375 1.13246 47.7827 7.86825C47.0184 8.53328 46.2711 9.21748 45.5415 9.92018C45.053 9.45291 44.556 8.9947 44.0505 8.5458C35.9231 1.34369 27.7767 -1.69175 22.885 1.13457C18.1941 3.84474 16.8051 11.8914 18.7795 21.9609C18.9759 22.9582 19.1977 23.9503 19.4446 24.9363C18.2915 25.2633 17.1788 25.6114 16.1139 25.9819C6.58519 29.2977 0.5 34.4939 0.5 39.8837C0.5 45.4504 7.03273 51.0339 16.9573 54.4195C17.7619 54.6928 18.5733 54.9461 19.3905 55.1791C19.1251 56.2411 18.8894 57.3103 18.6839 58.3854C16.8016 68.2802 18.2715 76.1367 22.9497 78.8297C27.7816 81.6107 35.8914 78.7525 43.7879 71.863C44.4282 71.3029 45.0544 70.7269 45.6659 70.1356C46.4561 70.8965 47.2673 71.6353 48.0988 72.3511C55.748 78.9202 63.3024 81.5728 67.9761 78.8725C72.8034 76.0833 74.3724 67.6433 72.3355 57.3749C72.175 56.5705 71.9951 55.77 71.7958 54.9742C72.3653 54.8058 72.9243 54.6325 73.4693 54.4521C83.7869 51.0405 90.5 45.5247 90.5 39.8837C90.5 34.4742 84.2183 29.243 74.4979 25.9033ZM72.2602 50.81C71.768 50.9725 71.2632 51.1293 70.7485 51.2819C69.6095 47.683 68.0724 43.8563 66.1912 39.9023C67.9863 36.0426 69.4643 32.2647 70.5713 28.6893C71.4921 28.9553 72.3854 29.2356 73.2467 29.5314C81.5752 32.3932 86.6553 36.6237 86.6553 39.8837C86.6553 43.356 81.1688 47.8637 72.2602 50.81ZM68.5639 58.1202C69.4646 62.6605 69.5929 66.7658 68.9963 69.9753C68.4605 72.8591 67.3827 74.7816 66.0495 75.5518C63.2135 77.1904 57.148 75.0605 50.6064 69.4423C49.8331 68.7768 49.0785 68.09 48.3434 67.3826C50.8796 64.6146 53.414 61.3967 55.8876 57.8226C60.2386 57.4374 64.349 56.8072 68.0766 55.9472C68.2602 56.6865 68.4233 57.4114 68.5639 58.1202ZM31.183 75.2686C28.412 76.2451 26.2048 76.2732 24.8707 75.5054C22.0318 73.8714 20.8516 67.563 22.4614 59.1012C22.6528 58.1013 22.8719 57.1069 23.1185 56.1191C26.805 56.9332 30.8855 57.5184 35.2467 57.8714C37.7371 61.3686 40.3447 64.583 42.9726 67.3977C42.4141 67.9371 41.8424 68.4626 41.258 68.9739C37.766 72.0202 34.2669 74.1816 31.183 75.2686ZM18.2012 50.7886C13.8126 49.2914 10.1884 47.3458 7.70422 45.2226C5.4718 43.3149 4.34504 41.4205 4.34504 39.8837C4.34504 36.6128 9.2307 32.4409 17.3796 29.6054C18.3685 29.2616 19.4035 28.937 20.4775 28.6325C21.6039 32.2886 23.0812 36.1114 24.864 39.977C23.058 43.8998 21.5596 47.7837 20.4223 51.483C19.6764 51.2697 18.9358 51.0382 18.2012 50.7886ZM22.5528 21.2237C20.8614 12.5967 21.9847 6.08895 24.8116 4.45562C27.8224 2.71597 34.4803 5.19632 41.4978 11.4153C41.9554 11.8217 42.4056 12.2364 42.8482 12.6591C40.2332 15.4616 37.6496 18.6521 35.1813 22.1286C30.9485 22.5202 26.8967 23.149 23.1716 23.9914C22.9421 23.0743 22.7357 22.1515 22.5528 21.224V21.2237ZM61.3748 30.7914C60.4949 29.2745 59.5824 27.7768 58.6379 26.2991C61.5095 26.6616 64.2608 27.1426 66.8444 27.7307C66.0689 30.2121 65.1021 32.8061 63.9641 35.4658C63.1322 33.8906 62.269 32.3322 61.3748 30.7914ZM45.5432 15.4016C47.3165 17.3191 49.0926 19.4598 50.8395 21.7826C47.2958 21.6156 43.7461 21.6149 40.2023 21.7805C41.951 19.4791 43.7422 17.3412 45.5432 15.4016ZM29.6101 30.8177C28.7271 32.3461 27.8799 33.8948 27.0693 35.4626C25.95 32.8125 24.992 30.2065 24.2097 27.69C26.7775 27.1167 29.5159 26.6479 32.3691 26.2921C31.4141 27.7788 30.4942 29.2876 29.6101 30.8174V30.8177ZM32.4511 53.7483C29.5032 53.4198 26.7238 52.9753 24.1566 52.4174C24.9512 49.856 25.9303 47.1946 27.0739 44.4876C27.8877 46.0565 28.7384 47.6062 29.6252 49.1353C30.5371 50.7072 31.4814 52.2469 32.4511 53.7483ZM45.6494 64.636C43.8269 62.6739 42.0093 60.503 40.2343 58.1683C41.9577 58.2356 43.7144 58.27 45.5 58.27C47.3345 58.27 49.1478 58.229 50.9327 58.1497C49.1802 60.5265 47.4107 62.7005 45.6494 64.636ZM64.0003 44.3493C65.2033 47.0861 66.2172 49.7335 67.0223 52.2511C64.413 52.8454 61.5956 53.324 58.627 53.6795C59.5782 52.1744 60.4994 50.6506 61.3899 49.109C62.2953 47.5419 63.1656 45.955 64.0003 44.3493ZM58.0596 47.1918C56.6963 49.5554 55.2563 51.8742 53.742 54.1444C50.999 54.3383 48.2499 54.4346 45.5 54.4332C42.6991 54.4332 39.9748 54.3461 37.3515 54.1763C35.7977 51.9114 34.3302 49.5885 32.9524 47.2128H32.9527C31.5814 44.8497 30.3004 42.4354 29.1126 39.9753C30.2974 37.5145 31.5744 35.0991 32.9411 32.7342L32.9408 32.7346C34.3069 30.369 35.7626 28.0561 37.3047 25.8009C39.9812 25.5988 42.7258 25.4935 45.4996 25.4935H45.5C48.2865 25.4935 51.0346 25.5998 53.7104 25.8033C55.2369 28.0552 56.6833 30.3602 58.0469 32.7139C59.4182 35.0736 60.7121 37.4772 61.9268 39.9209C60.7246 42.3896 59.4347 44.8147 58.0596 47.1918ZM65.9908 4.34124C69.0044 6.07597 70.1765 13.0714 68.283 22.2451C68.1621 22.8304 68.0264 23.4265 67.8787 24.0311C64.1444 23.1707 60.0898 22.5311 55.8447 22.1335C53.3718 18.6188 50.8093 15.4233 48.2369 12.657C48.9111 12.0084 49.6013 11.3767 50.3069 10.7623C56.9514 4.99141 63.1614 2.71281 65.9908 4.34124ZM45.5 31.8626C49.9385 31.8626 53.5367 35.4539 53.5367 39.8837C53.5367 44.3135 49.9385 47.9047 45.5 47.9047C41.0615 47.9047 37.4633 44.3135 37.4633 39.8837C37.4633 35.4539 41.0615 31.8626 45.5 31.8626Z" fill="#00D8FF"/>
</g>
<defs>
<clipPath id="clip0">
<rect width="90" height="80" fill="white" transform="translate(0.5)"/>
</clipPath>
</defs>
</svg>
