<svg width="87" height="66" viewBox="0 0 87 66" fill="none" xmlns="http://www.w3.org/2000/svg">
<path d="M74.8611 37.9891C71.8345 38.0049 69.2037 38.7423 67.0012 39.8323C66.1927 38.2132 65.3846 36.7708 65.2422 35.7128C65.0835 34.4787 64.8935 33.7252 65.0835 32.2505C65.2738 30.7758 66.1295 28.6759 66.1135 28.5157C66.0979 28.3555 65.9232 27.602 64.1802 27.5862C62.4371 27.57 60.9316 27.9227 60.7573 28.3875C60.5829 28.8522 60.2502 29.9103 60.0283 31C59.7272 32.6032 56.5422 38.3253 54.7199 41.3228C54.1334 40.153 53.6263 39.1269 53.5152 38.3095C53.3568 37.0754 53.1665 36.3219 53.3568 34.8472C53.5471 33.3725 54.4029 31.2729 54.3869 31.1124C54.3709 30.9522 54.1966 30.1987 52.4535 30.1829C50.7101 30.1667 49.2046 30.5194 49.0306 30.9842C48.8563 31.4493 48.666 32.5389 48.3017 33.597C47.937 34.6551 43.7059 44.2086 42.5967 46.6767C42.1484 47.6757 41.6782 48.6644 41.1863 49.6422C41.1863 49.6422 41.1704 49.6903 41.1228 49.7704C40.9683 50.077 40.8099 50.3816 40.6477 50.6841V50.6999C40.4098 51.1331 40.1563 51.5335 40.0295 51.5335C39.9344 51.5335 39.76 50.3796 40.0611 48.8086C40.6949 45.4908 42.2004 40.3293 42.1848 40.153C42.1848 40.0568 42.4699 39.1592 41.2023 38.6941C39.966 38.2294 39.5225 38.9987 39.4113 38.9987C39.3005 38.9987 39.221 39.2713 39.221 39.2713C39.221 39.2713 40.6001 33.4688 36.5906 33.4688C34.087 33.4688 30.6322 36.2418 28.9207 38.7423C26.9751 39.8132 25.0312 40.8872 23.089 41.9642C22.1544 42.4933 21.1876 43.0223 20.2842 43.519C20.2207 43.4551 20.1575 43.3746 20.0939 43.3107C15.2447 38.0692 6.27555 34.3663 6.65583 27.3298C6.79857 24.765 7.66993 18.0327 23.8815 9.85797C37.2244 3.20572 47.8422 5.04891 49.6804 9.13644C52.3108 14.9713 43.9914 25.8069 30.2043 27.3775C24.9432 27.9708 22.1857 25.919 21.4887 25.1497C20.7597 24.3481 20.6486 24.2999 20.3791 24.4605C19.9356 24.7011 20.2207 25.4223 20.3791 25.8389C20.7913 26.9286 22.4868 28.8522 25.3551 29.7982C27.8906 30.6315 34.0551 31.0966 41.519 28.1792C49.8704 24.9091 56.3995 15.8207 54.4821 8.20694C52.5643 0.480816 39.8868 -2.06775 27.8906 2.24391C20.7597 4.80897 13.0262 8.84803 7.46398 14.1057C0.85572 20.3568 -0.190319 25.7908 0.237545 28.0671C1.775 36.1456 12.7887 41.4032 17.1941 45.2982C16.9721 45.4265 16.7658 45.5389 16.5918 45.6351C14.389 46.741 5.99008 51.1808 3.89834 55.8775C1.52147 61.1991 4.27897 65.0144 6.10121 65.5269C11.7586 67.114 17.5743 64.2609 20.6961 59.5481C23.8179 54.8356 23.4377 48.7124 21.9957 45.9074C21.9797 45.8754 21.9641 45.8431 21.9322 45.8111C22.5028 45.4746 23.089 45.1219 23.6596 44.7854C24.7083 44.1583 25.7703 43.5543 26.8449 42.9738C26.3059 44.4647 25.9097 46.2439 25.7197 48.8086C25.4818 51.8223 26.7019 55.7331 28.3025 57.2718C29.0159 57.9455 29.8556 57.9613 30.3946 57.9613C32.2644 57.9613 33.1045 56.3904 34.0394 54.531C35.1803 52.2551 36.2103 49.6103 36.2103 49.6103C36.2103 49.6103 34.9268 56.7592 38.4132 56.7592C39.6808 56.7592 40.9644 55.092 41.535 54.2426V54.2584C41.535 54.2584 41.5666 54.2103 41.6302 54.0983C41.7569 53.8899 41.8361 53.7614 41.8361 53.7614V53.7298C42.3432 52.8319 43.4844 50.7962 45.1798 47.414C47.3667 43.0543 49.4745 37.6044 49.4745 37.6044C49.4745 37.6044 49.6648 38.9348 50.3142 41.1468C50.6948 42.4451 51.4867 43.8717 52.1208 45.2501C51.6138 45.9717 51.2967 46.3721 51.2967 46.3721L51.3127 46.3883C50.9004 46.9331 50.4569 47.5261 49.9655 48.1036C48.2381 50.1871 46.1783 52.5758 45.8928 53.2647C45.5598 54.0821 45.6393 54.6754 46.2735 55.1563C46.7329 55.509 47.5567 55.5568 48.3968 55.509C49.9499 55.3966 51.0432 55.0119 51.5818 54.7717C52.4219 54.4671 53.4044 54.002 54.3233 53.3128C56.0192 52.0464 57.0489 50.2352 56.9541 47.8472C56.9065 46.5327 56.4786 45.2182 55.9556 43.9838C56.1143 43.7596 56.2567 43.5352 56.4154 43.3107C59.0934 39.3514 61.1695 35.0074 61.1695 35.0074C61.1695 35.0074 61.3598 36.3377 62.0092 38.5501C62.3263 39.6721 62.9761 40.8903 63.5464 42.0763C61.0268 44.1443 59.4737 46.5485 58.9191 48.1194C57.9209 51.0368 58.6971 52.351 60.171 52.6555C60.8364 52.7999 61.7873 52.4792 62.4847 52.1746C63.372 51.8862 64.4181 51.3895 65.4165 50.6518C67.1123 49.3858 68.7443 47.6223 68.6491 45.2343C68.6015 44.1443 68.3164 43.0701 67.9202 42.0282C70.0595 41.131 72.817 40.6339 76.3347 41.0505C83.8782 41.9481 85.3677 46.7087 85.0823 48.7127C84.7971 50.7161 83.2124 51.8061 82.6898 52.1427C82.1664 52.4795 81.9924 52.5916 82.04 52.8319C82.1032 53.1846 82.3567 53.1688 82.8006 53.1045C83.4187 52.9924 86.7625 51.4854 86.9048 47.7987C87.1427 43.0862 82.7054 37.941 74.8611 37.9891ZM16.671 57.8331C14.1671 60.59 10.6809 61.6319 9.17544 60.7505C7.55914 59.8045 8.19295 55.7331 11.2672 52.8161C13.137 51.0368 15.5458 49.3854 17.1465 48.3758C17.5108 48.1514 18.0498 47.831 18.6996 47.4302C18.8103 47.3659 18.8739 47.3339 18.8739 47.3339L19.2542 47.0933C20.3791 51.2609 19.3018 54.9318 16.671 57.8331ZM34.8952 45.2982C34.0235 47.4463 32.2012 52.9443 31.092 52.6397C30.1411 52.3833 29.5545 48.2157 30.9017 44.0962C31.583 42.0282 33.025 39.5597 33.8651 38.5982C35.2279 37.0593 36.7334 36.546 37.0977 37.1717C37.5575 37.9891 35.4338 43.9518 34.8952 45.2982ZM49.9339 52.5754C49.5693 52.7679 49.2209 52.8962 49.0622 52.7999C48.9514 52.7356 49.2209 52.4792 49.2209 52.4792C49.2209 52.4792 51.1067 50.4277 51.8513 49.4978C52.2795 48.953 52.7862 48.3119 53.3252 47.5904V47.7987C53.3252 50.2513 50.9796 51.9024 49.9336 52.5754H49.9339ZM61.5338 49.8987C61.2643 49.7062 61.3119 49.0651 62.2152 47.0613C62.5639 46.2759 63.3877 44.9617 64.7984 43.6953C64.9567 44.2082 65.0678 44.7053 65.0519 45.17C65.0359 48.2638 62.8493 49.4178 61.5338 49.8987Z" fill="#CD6799"/>
</svg>
