<svg width="113" height="48" viewBox="0 0 113 48" fill="none" xmlns="http://www.w3.org/2000/svg">
<path d="M59.5387 43.975C59.6009 43.8355 59.7581 43.7385 59.8722 43.621C61.6139 41.8115 63.3704 40.0182 65.0884 38.1867C65.6259 37.6947 66.0414 37.0861 66.3021 36.4086C66.5629 35.7311 66.6619 35.003 66.5914 34.2812C66.5374 33.9722 66.4667 33.6662 66.3794 33.3647C65.911 33.8054 65.4752 34.2063 65.0365 34.6102C64.3546 35.2389 63.6757 35.8704 62.988 36.4917C62.5824 36.9014 62.0609 37.1796 61.4925 37.2895C60.924 37.3994 60.3353 37.3358 59.804 37.1071C59.2663 36.9114 58.7984 36.5634 58.4584 36.1065C58.1185 35.6495 57.9215 35.1037 57.8919 34.5368C57.8759 34.4639 57.8546 34.3922 57.8281 34.3224C57.3049 34.763 56.8039 35.1684 56.3073 35.5855L45.9862 44.2511C45.9151 44.3113 45.838 44.3862 45.7713 44.445H59.5313L59.5105 44.4318C59.4364 44.3804 59.475 44.1101 59.5387 43.975Z" fill="#FFCEBF"/>
<path d="M45.1413 43.975C45.2637 43.8171 45.4114 43.6802 45.5785 43.5697L59.8618 31.5626C60.8361 30.7431 61.806 29.9191 62.7715 29.0907C62.8908 29.0083 62.9843 28.8943 63.0413 28.7617C63.2722 27.7646 63.3049 26.7324 63.1376 25.7229C62.9894 25.8257 62.9094 25.8698 62.8412 25.9417C61.6717 26.9787 60.5081 28.0244 59.3326 29.0555C58.9432 29.4438 58.4396 29.6998 57.8941 29.7866C57.3487 29.8734 56.7894 29.7867 56.2969 29.5387C55.7944 29.3037 55.3739 28.9258 55.0888 28.4531C54.8037 27.9805 54.667 27.4345 54.696 26.8847V26.4088C54.4811 26.5645 54.324 26.6688 54.1772 26.7863C48.4606 31.3218 42.7449 35.8538 37.0302 40.3825C36.7723 40.5866 36.464 41.042 36.126 40.5999C35.7881 40.1578 36.3024 39.9756 36.5618 39.77C42.654 34.9261 48.7491 30.0865 54.8472 25.2514C55.8404 24.4627 55.9056 24.1322 55.2593 22.8794L54.8739 23.2378C53.817 24.2115 52.7483 25.1721 51.7078 26.1621C51.2809 26.57 50.7463 26.85 50.1657 26.9698C49.5851 27.0895 48.9822 27.0441 48.4265 26.8387C47.8709 26.6334 47.3852 26.2765 47.0255 25.8093C46.6658 25.3421 46.4468 24.7836 46.3938 24.1983C46.1966 24.3452 46.0262 24.4524 45.8646 24.5773L36.8227 31.5215C36.6668 31.6731 36.4889 31.8008 36.295 31.9005C36.1487 31.9443 35.9915 31.9365 35.8503 31.8784V44.4524H45.1235C45.089 44.3769 45.0727 44.2945 45.0757 44.2116C45.0788 44.1288 45.1013 44.0478 45.1413 43.975Z" fill="#FFCEBF"/>
<path d="M70.1919 4.05873C69.9399 4.87683 69.6953 5.69639 69.4744 6.52329C69.2704 7.10765 69.2942 7.74645 69.541 8.31436C69.7878 8.88227 70.2399 9.33831 70.8085 9.59298C72.5478 10.4989 74.5078 10.9058 76.4678 10.768V4.19826C76.4461 4.05422 76.4541 3.9073 76.4916 3.76645C76.5331 3.68678 76.5854 3.61314 76.6472 3.54761H70.1859C70.2852 3.66217 70.2512 3.86339 70.1919 4.05873Z" fill="#FF6196"/>
<path d="M57.2145 18.1719C57.1837 18.9052 56.9248 19.6111 56.4733 20.1929C54.8591 22.2576 53.0054 24.127 50.9503 25.7624C50.6189 26.0664 50.1989 26.2585 49.7504 26.3113C49.302 26.3641 48.8482 26.2748 48.4542 26.0562C48.062 25.8901 47.7313 25.6078 47.5075 25.2481C47.2838 24.8883 47.178 24.4687 47.2046 24.0469C47.2521 23.5289 47.4691 23.0405 47.8227 22.656C50.1208 20.4848 52.6106 18.522 55.2623 16.7913C55.436 16.6564 55.6481 16.5789 55.8686 16.57C56.0891 16.561 56.3069 16.621 56.4911 16.7414C56.7333 16.8903 56.929 17.1029 57.0567 17.3554C57.1844 17.6079 57.239 17.8905 57.2145 18.1719Z" fill="#FF87AF"/>
<path d="M55.4387 27.0741C55.4042 26.7495 55.4463 26.4213 55.5615 26.1155C55.6768 25.8097 55.862 25.5345 56.1027 25.3116C58.3528 23.2552 60.7669 21.3823 63.3214 19.7113C63.3985 19.6628 63.4696 19.6143 63.5541 19.5644C63.7773 19.4048 64.0476 19.3232 64.3227 19.3325C64.5977 19.3418 64.8618 19.4415 65.0735 19.6158C65.2782 19.7877 65.4231 20.0191 65.4875 20.2773C65.5519 20.5354 65.5326 20.8071 65.4322 21.0537C65.109 22.1203 64.5125 23.0858 63.7009 23.8561C62.0525 25.4652 60.3722 27.0419 58.6611 28.5855C58.4034 28.848 58.0649 29.0182 57.6989 29.0693C57.3329 29.1203 56.9601 29.0493 56.6393 28.8675C56.3022 28.6939 56.0151 28.4382 55.8051 28.1245C55.5951 27.8108 55.469 27.4494 55.4387 27.0741Z" fill="#FF87AF"/>
<path d="M66.1348 28.0448C65.7198 28.4855 65.2929 28.9055 64.8941 29.3564C64.7742 29.5307 64.6748 29.718 64.5977 29.9146C64.817 29.9792 65.0735 30.1496 65.2514 30.0893C66.157 29.7882 67.0405 29.4269 68.0351 29.0465C67.8187 29.54 67.6556 29.9953 67.4259 30.4125C66.4794 31.9886 65.294 33.4113 63.9114 34.6307C63.3857 35.133 62.8397 35.6133 62.2735 36.0716C61.9736 36.3181 61.613 36.4813 61.2286 36.5445C60.8442 36.6077 60.4498 36.5686 60.0856 36.4311C59.7215 36.2937 59.4007 36.0628 59.1562 35.7622C58.9116 35.4616 58.752 35.1021 58.6937 34.7203C58.67 34.508 58.6889 34.2932 58.7495 34.0883C58.81 33.8833 58.911 33.6923 59.0465 33.5262C61.0637 31.3558 63.3689 29.4668 65.8991 27.9112C65.9299 27.8994 65.9625 27.8929 65.9955 27.8921L66.1348 28.0448Z" fill="#FF87AF"/>
<path d="M69.5352 22.1947L72.0714 11.0322L73.8501 11.4449L72.9326 14.2077C72.0758 16.778 71.2087 19.3483 70.3727 21.9215C70.2096 22.3974 69.9962 22.4855 69.5352 22.1947Z" fill="#FF6196"/>
<path d="M66.6714 28.7601C66.9397 27.7452 67.2065 26.8067 67.4318 25.8579C67.6514 24.9377 68.069 24.0755 68.6562 23.3302C69.0164 22.8616 69.421 23.0482 69.8346 23.1495C70.217 23.242 70.3134 23.5196 70.3297 23.8839C70.39 24.8912 70.0804 25.886 69.4581 26.6848C68.7172 27.5948 67.7596 28.308 66.6714 28.7601Z" fill="#FF6196"/>
<path d="M77.2416 4.75062C77.2637 4.42351 77.2553 4.09507 77.2164 3.7695C77.1858 3.67855 77.1252 3.60044 77.0444 3.54771C76.9786 3.4947 76.9016 3.45705 76.8191 3.43756C76.7717 3.42875 76.705 3.47721 76.6412 3.54624C76.5795 3.61178 76.5271 3.68542 76.4856 3.76509C76.4482 3.90594 76.4401 4.05286 76.4619 4.1969V10.7652C74.5018 10.903 72.5419 10.4961 70.8025 9.59015C70.2339 9.33547 69.7818 8.87944 69.535 8.31153C69.2882 7.74362 69.2645 7.10482 69.4685 6.52046C69.6894 5.69356 69.9339 4.87399 70.1859 4.0559C70.2452 3.86056 70.2793 3.65934 70.1859 3.54478C70.134 3.48901 70.0623 3.45532 69.9858 3.45078C69.8879 3.45182 69.7931 3.48487 69.716 3.54478C69.6052 3.61047 69.5169 3.70771 69.4626 3.82384C69.1661 4.70509 68.9052 5.59515 68.6784 6.49403C68.5928 6.84824 68.5697 7.21448 68.6103 7.57649C68.6676 8.23152 68.9135 8.85648 69.3186 9.37717C69.7238 9.89787 70.2712 10.2924 70.8959 10.514C71.1761 10.63 71.3406 10.7446 71.2621 11.1103C71.1538 11.5744 71.0486 12.0386 70.9419 12.5042C70.2156 15.659 69.4932 18.8154 68.7748 21.9732C68.7545 22.114 68.692 22.2455 68.5954 22.3506C68.1219 22.7236 67.7241 23.1821 67.4229 23.7019C67.0392 24.3879 66.7737 25.1325 66.6373 25.905C66.6112 26.1515 66.5213 26.387 66.3764 26.589C66.2315 26.791 66.0365 26.9525 65.8102 27.058C65.1921 27.3679 64.6244 27.7689 63.9381 28.186C63.9839 27.3682 63.9749 26.5483 63.9114 25.7317C63.8592 25.4805 63.8703 25.2204 63.9437 24.9745C64.0171 24.7285 64.1506 24.5043 64.3324 24.3217C65.2364 23.4343 65.8808 22.3207 66.1971 21.0993C66.2916 20.8162 66.3175 20.515 66.2727 20.2201C66.228 19.9252 66.1138 19.6449 65.9395 19.4018C65.7652 19.1588 65.5356 18.9597 65.2693 18.8209C65.003 18.682 64.7074 18.6071 64.4065 18.6024C63.9193 18.597 63.441 18.7317 63.0295 18.9901C61.6151 19.9472 60.2252 20.9394 58.8613 21.9658C58.0505 22.571 57.2871 23.2407 56.5015 23.8752C56.4676 23.8392 56.4383 23.7992 56.414 23.7562C56.399 23.6481 56.3696 23.5424 56.3266 23.4419C55.6699 22.4373 56.125 21.7073 56.838 20.9568C57.5808 20.1853 57.9912 19.1575 57.9823 18.0913C58.0053 17.548 57.8336 17.0142 57.4976 16.5843C57.3186 16.3661 57.098 16.185 56.8484 16.0512C56.4938 15.8589 56.0883 15.7786 55.6864 15.8212C55.2845 15.8637 54.9053 16.027 54.5997 16.2891L54.1862 16.5829C53.242 17.2526 52.2859 17.9047 51.3773 18.6215C50.0508 19.6709 48.7528 20.7552 47.4848 21.8733C46.8919 22.3918 46.459 23.0997 45.8439 23.5815C42.6362 26.0916 39.3945 28.5561 36.1646 31.0368C36.0535 31.1025 35.9514 31.182 35.8607 31.2733C35.8514 31.2867 35.8435 31.3009 35.837 31.3159C35.7688 31.4731 35.711 31.733 35.7911 31.8285C35.8107 31.8492 35.8344 31.8657 35.8607 31.877C36.0019 31.935 36.1591 31.9428 36.3054 31.899C36.4993 31.7993 36.6772 31.6716 36.8331 31.5201L45.875 24.5758C46.0366 24.451 46.2071 24.3379 46.4042 24.1969C46.4572 24.7821 46.6762 25.3406 47.0359 25.8078C47.3956 26.2751 47.8813 26.6319 48.4369 26.8373C48.9926 27.0426 49.5955 27.088 50.1762 26.9683C50.7568 26.8486 51.2913 26.5685 51.7182 26.1606C52.7558 25.1707 53.8275 24.2101 54.8843 23.2363L55.2697 22.8779C55.916 24.1308 55.8508 24.4612 54.8576 25.25C48.7546 30.089 42.656 34.929 36.5619 39.77C36.3025 39.9756 35.7896 40.1622 36.1261 40.5999C36.4625 41.0376 36.7723 40.5866 37.0303 40.3825C42.7479 35.8578 48.4616 31.3272 54.1714 26.7907C54.3196 26.6732 54.4752 26.5689 54.6902 26.4132V26.8891C54.6611 27.4389 54.7978 27.9849 55.0829 28.4575C55.368 28.9302 55.7885 29.3081 56.291 29.5431C56.7836 29.7911 57.3428 29.8779 57.8882 29.791C58.4337 29.7042 58.9373 29.4482 59.3267 29.0599C60.5022 28.0318 61.6658 26.9831 62.8353 25.9461C62.9094 25.8801 62.9954 25.8301 63.1317 25.7273C63.2991 26.7368 63.2663 27.769 63.0354 28.7661C62.9784 28.8987 62.8849 29.0127 62.7656 29.0951C61.7992 29.9225 60.8293 30.7465 59.8559 31.5671L45.5786 43.5756C45.4114 43.6861 45.2637 43.823 45.1413 43.9809C45.1022 44.053 45.0803 44.1329 45.0772 44.2146C45.0742 44.2963 45.09 44.3777 45.1235 44.4524C45.1905 44.5021 45.2679 44.5363 45.35 44.5523C45.4321 44.5683 45.5168 44.5658 45.5978 44.5449C45.6618 44.5265 45.7206 44.4939 45.7698 44.4495C45.8439 44.3907 45.918 44.3158 45.9847 44.2556L56.3058 35.59C56.8024 35.1728 57.3034 34.7616 57.8267 34.3268C57.8532 34.3967 57.8745 34.4683 57.8904 34.5413C57.92 35.1082 58.117 35.654 58.4569 36.1109C58.7969 36.5679 59.2648 36.9158 59.8025 37.1116C60.3338 37.3403 60.9225 37.4038 61.491 37.294C62.0595 37.1841 62.5809 36.9059 62.9865 36.4962C63.6743 35.8749 64.3531 35.2433 65.035 34.6147C65.4797 34.2108 65.9095 33.8054 66.3779 33.3692C66.4652 33.6707 66.536 33.9767 66.5899 34.2857C66.658 35.0051 66.5579 35.7303 66.2972 36.4051C66.0365 37.0799 65.6224 37.686 65.0869 38.1764C63.3689 40.0094 61.6124 41.8028 59.8707 43.6108C59.7566 43.7283 59.5995 43.8252 59.5372 43.9648C59.475 44.1043 59.4349 44.3775 59.509 44.4362L59.5298 44.4495C59.6852 44.5244 59.86 44.5505 60.0308 44.5244C60.0787 44.5146 60.1213 44.488 60.1509 44.4495C60.1924 44.4069 60.2324 44.354 60.2724 44.3143C61.6836 42.8691 63.1021 41.4312 64.5029 39.9757C65.0683 39.408 65.5998 38.8083 66.0948 38.1794C66.7403 37.4713 67.1683 36.5954 67.3285 35.6545C67.4886 34.7137 67.3743 33.747 66.999 32.8684C66.9587 32.6724 66.9981 32.4687 67.1087 32.3014C67.205 32.1369 67.3118 31.9768 67.4215 31.8182C67.7724 31.3667 68.0648 30.8732 68.2916 30.3495C68.7298 29.064 69.4026 27.8692 70.2763 26.8245C70.678 26.3198 70.9544 25.7287 71.0831 25.0988C71.2119 24.4689 71.1894 23.8178 71.0175 23.1981C70.9567 22.9625 70.9567 22.7155 71.0175 22.4799C71.7675 20.1784 72.5398 17.8842 73.3046 15.5885L74.3274 12.513L74.6431 11.5627C75.3161 11.5627 75.9505 11.5495 76.582 11.5627C77.1067 11.5774 77.2668 11.3336 77.2608 10.8283C77.2297 8.80143 77.2416 6.77603 77.2416 4.75062ZM50.9504 25.7626C50.619 26.0665 50.1989 26.2587 49.7505 26.3114C49.302 26.3642 48.8482 26.2749 48.4542 26.0563C48.062 25.8903 47.7313 25.608 47.5076 25.2482C47.2838 24.8884 47.178 24.4688 47.2046 24.0471C47.2521 23.529 47.4692 23.0406 47.8227 22.6561C50.1208 20.4849 52.6106 18.5222 55.2623 16.7914C55.407 16.69 55.5717 16.62 55.7455 16.5858C55.8621 16.5645 55.9817 16.5645 56.0983 16.5858C56.238 16.6128 56.3712 16.6656 56.4911 16.7415C56.7335 16.8906 56.9294 17.1034 57.0571 17.3562C57.1848 17.609 57.2393 17.8919 57.2145 18.1735C57.1837 18.9068 56.9249 19.6127 56.4733 20.1945C54.8591 22.2587 53.0053 24.1276 50.9504 25.7626ZM58.6582 28.5958C58.4005 28.8584 58.062 29.0286 57.696 29.0796C57.33 29.1307 56.9572 29.0597 56.6364 28.8778C56.2987 28.7038 56.0112 28.4475 55.8011 28.1329C55.5911 27.8184 55.4653 27.456 55.4357 27.08C55.4013 26.7554 55.4434 26.4272 55.5586 26.1214C55.6738 25.8156 55.8591 25.5404 56.0998 25.3175C58.3499 23.2611 60.764 21.3883 63.3185 19.7172C63.3956 19.6687 63.4667 19.6202 63.5512 19.5703C63.7744 19.4107 64.0447 19.3291 64.3198 19.3384C64.5948 19.3477 64.8589 19.4474 65.0706 19.6217C65.2753 19.7936 65.4202 20.025 65.4846 20.2832C65.549 20.5413 65.5296 20.813 65.4293 21.0596C65.1061 22.1262 64.5096 23.0917 63.698 23.862C62.063 25.4806 60.3628 27.0389 58.6612 28.5899L58.6582 28.5958ZM67.42 30.4185C66.4748 31.9922 65.2915 33.4128 63.9114 34.6309C63.3857 35.1332 62.8397 35.6135 62.2735 36.0717C61.9736 36.3183 61.6131 36.4815 61.2287 36.5447C60.8442 36.6078 60.4498 36.5687 60.0857 36.4313C59.7215 36.2938 59.4008 36.063 59.1562 35.7624C58.9117 35.4618 58.7521 35.1022 58.6938 34.7205C58.67 34.5082 58.689 34.2934 58.7495 34.0884C58.8101 33.8835 58.911 33.6924 59.0466 33.5264C61.0637 31.3559 63.369 29.467 65.8992 27.9113C65.9299 27.8995 65.9625 27.8931 65.9955 27.8922L66.1437 28.0391C65.7287 28.4797 65.3018 28.8998 64.9031 29.3507C64.7832 29.525 64.6837 29.7122 64.6066 29.9088C64.826 29.9735 65.0824 30.1438 65.2603 30.0836C65.9762 29.8457 66.6803 29.5696 67.4348 29.2758L68.044 29.0408C67.8158 29.5402 67.6527 29.9955 67.4229 30.4126L67.42 30.4185ZM69.4552 26.6952C68.9022 27.3927 68.2092 27.9688 67.42 28.3872C67.1759 28.5223 66.9254 28.6486 66.6685 28.7661C66.9323 27.7659 67.1962 26.8391 67.42 25.9021L67.4289 25.8639C67.6485 24.9438 68.0661 24.0815 68.6532 23.3362C69.0134 22.8676 69.4181 23.0542 69.8316 23.1555C70.2141 23.2481 70.3104 23.5257 70.3267 23.8899C70.3875 24.8963 70.079 25.8906 69.4581 26.6893L69.4552 26.6952ZM72.9237 14.2108C72.0669 16.7812 71.1998 19.3515 70.3638 21.9247C70.2067 22.4079 69.9932 22.4961 69.5322 22.2052L71.7305 12.5218L72.0684 11.0354L73.8471 11.4481L73.4899 12.5218L72.9237 14.2108Z" fill="black"/>
<path d="M94.5567 39.8488L110 24.5465L94.5567 9.24414" stroke="#BFBFBF" stroke-width="5" stroke-linecap="round" stroke-linejoin="round"/>
<path d="M18.4433 40.9418L3 25.6395L18.4433 10.3372" stroke="#BFBFBF" stroke-width="5" stroke-linecap="round" stroke-linejoin="round"/>
</svg>
