<svg width="87" height="100" viewBox="0 0 87 100" fill="none" xmlns="http://www.w3.org/2000/svg">
<g clip-path="url(#clip0)">
<path d="M43.5 0.516846L87 25.2344V74.6856L43.5 99.4032L0 74.6856V25.2344L43.5 0.516846Z" fill="white"/>
<path d="M79.2356 72.9704L44.9447 92.4768V77.3069L66.3171 65.4843L79.2356 72.9704ZM81.5829 70.8433V30.0819L69.042 37.3533V63.5712L81.5829 70.8433ZM7.63291 72.97L41.9242 92.4608V77.2905L20.5517 65.4843L7.63291 72.9704V72.97ZM5.28561 70.8433V30.0819L17.8269 37.3533V63.5712L5.28561 70.8433ZM6.74694 27.4437L41.9242 7.45835V22.1342L19.3864 34.5833L19.2056 34.6823L6.74694 27.4434V27.4437ZM80.1056 27.4437L44.9447 7.45801V22.1339L67.4662 34.5994L67.6466 34.6984L80.1056 27.443V27.4437Z" fill="#8ED6FB"/>
<path d="M41.9242 73.8443L20.847 62.1862V39.1178L41.9242 51.3364V73.8443ZM44.9447 73.8443L66.0218 62.2029V39.1178L44.9447 51.3364V73.8443ZM22.2588 36.4465L43.4344 24.7556L64.5931 36.4465L43.4344 48.7146L22.2588 36.4465Z" fill="#1C78C0"/>
</g>
<defs>
<clipPath id="clip0">
<rect width="87" height="99" fill="white" transform="translate(0 0.5)"/>
</clipPath>
</defs>
</svg>
